<?xml version="1.0" encoding="utf-8"?>
<!-- Generator: Adobe Illustrator 17.0.0, SVG Export Plug-In . SVG Version: 6.00 Build 0)  -->
<!DOCTYPE svg PUBLIC "-//W3C//DTD SVG 1.1//EN" "http://www.w3.org/Graphics/SVG/1.1/DTD/svg11.dtd">
<svg version="1.1" xmlns="http://www.w3.org/2000/svg" xmlns:xlink="http://www.w3.org/1999/xlink" x="0px" y="0px" width="1792px"
	 height="1792px" viewBox="0 0 1792 1792" enable-background="new 0 0 1792 1792" xml:space="preserve">
<g id="Guide">
</g>
<g id="Font" display="none">
</g>
<g id="内容">
	<path d="M1352.92,668.636c-85.191-85.188-209.936-112.638-336.417-86.556l-477.95-391.049
		c30.084-71.769,32.126-133.564-1.068-166.759c-62.988-62.987-228.934,0.837-370.648,142.559
		C25.11,308.55-38.714,474.495,24.273,537.483c33.195,33.194,94.989,31.154,166.761,1.066l391.047,477.95
		c-26.081,126.482,1.366,251.23,86.555,336.419c0.074,0.074,0.148,0.146,0.219,0.218l-0.071-0.072
		c90.948,90.679,290.752,41.444,467.622-107.587L1734.978,1792H1792v-57.023l-546.521-598.572
		C1394.588,959.438,1443.797,759.514,1352.92,668.636z"/>
</g>
<g id="レイヤー_5" display="none">
</g>
<g id="Unicode" display="none">
	<text transform="matrix(1 0 0 1 437.0635 964.2812)" display="inline" fill="#ED1E79" font-family="'ArialMT'" font-size="256">U+F727</text>
</g>
</svg>
