<?xml version="1.0" encoding="utf-8"?>
<!-- Generator: Adobe Illustrator 17.0.0, SVG Export Plug-In . SVG Version: 6.00 Build 0)  -->
<!DOCTYPE svg PUBLIC "-//W3C//DTD SVG 1.1//EN" "http://www.w3.org/Graphics/SVG/1.1/DTD/svg11.dtd">
<svg version="1.1" xmlns="http://www.w3.org/2000/svg" xmlns:xlink="http://www.w3.org/1999/xlink" x="0px" y="0px" width="1792px"
	 height="1792px" viewBox="0 0 1792 1792" enable-background="new 0 0 1792 1792" xml:space="preserve">
<g id="Guide">
</g>
<g id="Font" display="none">
	<path display="inline" d="M1792,1792H0v-213.547l597.333-383.787v-149.333C524.16,1045.333,448,848.213,448,746.667V448
		C448,201.6,649.6,0,896,0c246.4,0,448,201.6,448,448v298.667c0,101.547-76.16,298.667-149.334,298.667v149.333L1792,1578.453V1792z
		"/>
</g>
<g id="内容">
	<path d="M1600,223.961C1599.979,100.267,1499.7,0,1376,0H256v1792h1344V896c-106.039,0-191.999-85.962-191.999-192
		s85.96-192,191.999-192V224.039c0-0.013,0-0.026,0-0.039S1600,223.974,1600,223.961z M1472,1664h64v64h-64V1664z M384,1728h-64v-64
		h64V1728z M512,1728h-64v-64h64V1728z M640,1728h-64v-64h64V1728z M768,1728h-64v-64h64V1728z M896,1728h-64v-64h64V1728z
		 M1024,1728h-64v-64h64V1728z M1152,1728h-64v-64h64V1728z M1280,1728h-64v-64h64V1728z M1408,1728h-64v-64h64V1728z"/>
</g>
<g id="レイヤー_5" display="none">
</g>
<g id="Unicode" display="none">
	<text transform="matrix(1 0 0 1 422.876 964.2812)" display="inline" fill="#ED1E79" font-family="'ArialMT'" font-size="256">U+F70B</text>
</g>
</svg>
