<?xml version="1.0" encoding="utf-8"?>
<!-- Generator: Adobe Illustrator 17.0.0, SVG Export Plug-In . SVG Version: 6.00 Build 0)  -->
<!DOCTYPE svg PUBLIC "-//W3C//DTD SVG 1.1//EN" "http://www.w3.org/Graphics/SVG/1.1/DTD/svg11.dtd">
<svg version="1.1" xmlns="http://www.w3.org/2000/svg" xmlns:xlink="http://www.w3.org/1999/xlink" x="0px" y="0px" width="1792px"
	 height="1792px" viewBox="0 0 1792 1792" enable-background="new 0 0 1792 1792" xml:space="preserve">
<g id="Guide">
</g>
<g id="Font" display="none">
	<path display="inline" d="M1792,373.333H0V224h298.669c0-82.133,67.198-149.333,149.331-149.333h448
		c82.133,0,149.336,67.2,149.336,149.333H1792V373.333z M1792,1717.333H0V522.667h1792V1717.333z"/>
</g>
<g id="内容">
	<path d="M1664,0H128C57.308,0,0,57.308,0,128v1536c0,70.692,57.308,128,128,128h1536c70.692,0,128-57.308,128-128V128
		C1792,57.308,1734.692,0,1664,0z M1439.058,1258.038l-181.02,181.02L896,1077.02l-362.039,362.039l-181.019-181.02L714.981,896
		L352.941,533.961l181.019-181.019L896,714.981l362.038-362.038l181.02,181.02L1077.02,896L1439.058,1258.038z"/>
</g>
<g id="レイヤー_5" display="none">
</g>
<g id="Unicode" display="none">
	<text transform="matrix(1 0 0 1 437.0635 964.2812)" display="inline" fill="#ED1E79" font-family="'ArialMT'" font-size="256">U+F707</text>
</g>
</svg>
