<?xml version="1.0" encoding="utf-8"?>
<!-- Generator: Adobe Illustrator 17.0.0, SVG Export Plug-In . SVG Version: 6.00 Build 0)  -->
<!DOCTYPE svg PUBLIC "-//W3C//DTD SVG 1.1//EN" "http://www.w3.org/Graphics/SVG/1.1/DTD/svg11.dtd">
<svg version="1.1" xmlns="http://www.w3.org/2000/svg" xmlns:xlink="http://www.w3.org/1999/xlink" x="0px" y="0px" width="1792px"
	 height="1792px" viewBox="0 0 1792 1792" enable-background="new 0 0 1792 1792" xml:space="preserve">
<g id="Guide">
</g>
<g id="Font" display="none">
	<polygon display="inline" points="307.117,727.955 0,1035.072 606.991,1643.512 1792,455.605 1484.883,148.488 605.542,1027.829 	
		"/>
</g>
<g id="内容">
	<path d="M1664,128h-256V0h-256v128H640V0H384v128H128C57.308,128,0,185.308,0,256v191.766h1792V256
		C1792,185.308,1734.692,128,1664,128z"/>
	<path d="M0,512v1152c0,70.692,57.308,128,128,128h1536c70.692,0,128-57.308,128-128V512H0z M384,1536H128v-255.999h256V1536z
		 M384,1216H128V960.002h256V1216z M384,896H128V640.002h256V896z M704,1536H448v-255.999h256V1536z M704,1216H448V960.002h256V1216
		z M704,896H448V640.002h256V896z M1024,1536H768v-255.999h256V1536z M1024,1216H768V960.002h256V1216z M1024,896H768V640.002h256
		V896z M1344,1536h-256v-255.999h256V1536z M1344,1216h-256V960.002h256V1216z M1344,896h-256V640.002h256V896z M1664,1536h-256
		v-255.999h256V1536z M1664,1216h-256V960.002h256V1216z M1664,896h-256V640.002h256V896z"/>
</g>
<g id="レイヤー_5" display="none">
</g>
<g id="Unicode" display="none">
	<text transform="matrix(1 0 0 1 437.0635 964.2812)" display="inline" fill="#ED1E79" font-family="'ArialMT'" font-size="256">U+F713</text>
</g>
</svg>
