<?xml version="1.0" encoding="utf-8"?>
<!-- Generator: Adobe Illustrator 17.0.0, SVG Export Plug-In . SVG Version: 6.00 Build 0)  -->
<!DOCTYPE svg PUBLIC "-//W3C//DTD SVG 1.1//EN" "http://www.w3.org/Graphics/SVG/1.1/DTD/svg11.dtd">
<svg version="1.1" xmlns="http://www.w3.org/2000/svg" xmlns:xlink="http://www.w3.org/1999/xlink" x="0px" y="0px" width="1792px"
	 height="1792px" viewBox="0 0 1792 1792" enable-background="new 0 0 1792 1792" xml:space="preserve">
<g id="Guide">
</g>
<g id="Font" display="none">
	<path display="inline" d="M1568,1045.333h-149.331V896H1568V1045.333z M1568,1344h-149.331v-149.333H1568V1344z M1568,1642.667
		h-149.331v-149.333H1568V1642.667z M1269.336,1045.333H1120V896h149.336V1045.333z M1269.336,1344H1120v-149.333h149.336V1344z
		 M1269.336,1642.667H1120v-149.333h149.336V1642.667z M970.669,1045.333H821.336V896h149.333V1045.333z M970.669,1344H821.336
		v-149.333h149.333V1344z M970.669,1642.667H821.336v-149.333h149.333V1642.667z M672,1045.333H522.669V896H672V1045.333z M672,1344
		H522.669v-149.333H672V1344z M672,1642.667H522.669v-149.333H672V1642.667z M373.336,1045.333H224V896h149.336V1045.333z
		 M373.336,1344H224v-149.333h149.336V1344z M373.336,1642.667H224v-149.333h149.336V1642.667z M74.669,224v224h1642.667V224
		c0-41.813-32.856-74.667-74.667-74.667h-224V0h-149.333v149.333H522.669V0H373.336v149.333h-224
		C107.52,149.333,74.669,182.187,74.669,224z M74.669,597.333v1120c0,40.32,32.851,74.667,74.667,74.667h1493.333
		c41.811,0,74.667-34.347,74.667-74.667v-1120H74.669z"/>
</g>
<g id="内容">
	<path d="M1719.753,1409.354c-22.873-9.965-428.606-134.028-537.055-198.02c-7.953-20.495-44.542-76.495-51.006-106.012
		c2.102-21.942-1.038-96.478,12.002-123.012c70.956-84.46,156.982-209.206,168.451-451.942C1321.146,339.877,1190.651,64,897.67,64
		c-0.561,0-1.113,0.025-1.67,0.039c-0.556-0.013-1.108-0.039-1.669-0.039C601.35,64,470.855,339.877,479.855,530.367
		c11.469,242.736,97.495,367.482,168.451,451.942c13.04,26.535,9.903,101.071,12.002,123.012
		c-6.464,29.517-43.053,85.517-51.006,106.012c-108.448,63.992-514.182,188.055-537.053,198.02
		c-22.872,9.965-61.628,38.464-72.247,66.962V1792H896c0-0.001,0-0.002,0-0.003c0.003,0.001,0.003,0.002,0.003,0.003H1792v-315.684
		C1781.379,1447.817,1742.628,1419.319,1719.753,1409.354z"/>
</g>
<g id="レイヤー_5" display="none">
</g>
<g id="Unicode" display="none">
	<text transform="matrix(1 0 0 1 430.0635 964.2812)" display="inline" fill="#ED1E79" font-family="'ArialMT'" font-size="256">U+F70F</text>
</g>
</svg>
