<?xml version="1.0" encoding="utf-8"?>
<!-- Generator: Adobe Illustrator 17.0.0, SVG Export Plug-In . SVG Version: 6.00 Build 0)  -->
<!DOCTYPE svg PUBLIC "-//W3C//DTD SVG 1.1//EN" "http://www.w3.org/Graphics/SVG/1.1/DTD/svg11.dtd">
<svg version="1.1" xmlns="http://www.w3.org/2000/svg" xmlns:xlink="http://www.w3.org/1999/xlink" x="0px" y="0px" width="1792px"
	 height="1792px" viewBox="0 0 1792 1792" enable-background="new 0 0 1792 1792" xml:space="preserve">
<g id="Guide">
</g>
<g id="Font" display="none">
</g>
<g id="内容">
	<g>
		<path d="M0,0.001V1792h1792V0.001H0z M1664,1664H128V128h1536V1664z"/>
		<path d="M896,1536c35.347,0,64-28.653,64-64c0-448,320-512,320-832c0-212.077-171.923-384-384-384S512,427.923,512,640
			c0,320,320,384,320,832C832,1507.347,860.653,1536,896,1536z M768,640c0-70.692,57.308-128,128-128s128,57.308,128,128
			s-57.308,128-128,128S768,710.692,768,640z"/>
	</g>
</g>
<g id="レイヤー_5" display="none">
</g>
<g id="Unicode" display="none">
	<text transform="matrix(1 0 0 1 415.8135 964.2812)" display="inline" fill="#ED1E79" font-family="'ArialMT'" font-size="256">U+F72D</text>
</g>
</svg>
