<?xml version="1.0" encoding="utf-8"?>
<!-- Generator: Adobe Illustrator 17.0.0, SVG Export Plug-In . SVG Version: 6.00 Build 0)  -->
<!DOCTYPE svg PUBLIC "-//W3C//DTD SVG 1.1//EN" "http://www.w3.org/Graphics/SVG/1.1/DTD/svg11.dtd">
<svg version="1.1" xmlns="http://www.w3.org/2000/svg" xmlns:xlink="http://www.w3.org/1999/xlink" x="0px" y="0px" width="1792px"
	 height="1792px" viewBox="0 0 1792 1792" enable-background="new 0 0 1792 1792" xml:space="preserve">
<g id="Guide">
</g>
<g id="Font" display="none">
</g>
<g id="内容">
	<path d="M1408,0H384c-70.692,0-128,57.308-128,128v1536c0,70.692,57.308,128,128,128h1024c70.692,0,128-57.308,128-128V128
		C1536,57.308,1478.692,0,1408,0z M960,1664H832c-35.346,0-64-28.653-64-64s28.654-64,64-64h128c35.346,0,64,28.653,64,64
		S995.346,1664,960,1664z M1408,1344c0,35.347-28.654,64-64,64H448c-35.346,0-64-28.653-64-64V192c0-35.347,28.654-64,64-64h896
		c35.346,0,64,28.653,64,64V1344z"/>
</g>
<g id="レイヤー_5" display="none">
</g>
<g id="Unicode" display="none">
	<text transform="matrix(1 0 0 1 437.0625 964.2812)" display="inline" fill="#ED1E79" font-family="'ArialMT'" font-size="256">U+F728</text>
</g>
</svg>
