<?xml version="1.0" encoding="utf-8"?>
<!-- Generator: Adobe Illustrator 17.0.0, SVG Export Plug-In . SVG Version: 6.00 Build 0)  -->
<!DOCTYPE svg PUBLIC "-//W3C//DTD SVG 1.1//EN" "http://www.w3.org/Graphics/SVG/1.1/DTD/svg11.dtd">
<svg version="1.1" xmlns="http://www.w3.org/2000/svg" xmlns:xlink="http://www.w3.org/1999/xlink" x="0px" y="0px" width="1792px"
	 height="1792px" viewBox="0 0 1792 1792" enable-background="new 0 0 1792 1792" xml:space="preserve">
<g id="Guide">
</g>
<g id="Font" display="none">
</g>
<g id="内容">
	<g>
		<path d="M1727.999,64H1280c-35.2,0-73.109,27.322-84.239,60.716l-23.522,70.567c-11.131,33.394-49.039,60.716-84.239,60.716H448
			c-35.201,0-64.002,28.8-64.002,64.001v320H113.385C51.022,640,0,691.023,0,753.386v925.229C0,1740.977,51.022,1792,113.385,1792
			h1309.23c62.362,0,113.386-51.023,113.386-113.386V1280h191.998c35.201,0,64.001-28.8,64.001-64V128
			C1792,92.8,1763.2,64,1727.999,64z M1472.001,1664c0,35.2-28.801,64-64.001,64H128C92.8,1728,64,1699.2,64,1664V768
			c0-35.2,28.8-64,64.001-64h640c35.2,0,73.108-27.322,84.239-60.716l23.522-70.567c11.131-33.394,49.04-60.716,84.24-60.716H1408
			c35.2,0,64.001,28.8,64.001,64V1664z"/>
		<polygon points="831.998,895.998 703.998,895.998 703.998,1152 448,1152 448,1280 703.998,1280 703.998,1535.999 
			831.998,1535.999 831.998,1280 1088.001,1280 1088.001,1152 831.998,1152 		"/>
	</g>
</g>
<g id="レイヤー_5" display="none">
</g>
<g id="Unicode" display="none">
	<text transform="matrix(1 0 0 1 422.876 964.2812)" display="inline" fill="#ED1E79" font-family="'ArialMT'" font-size="256">U+F71B</text>
</g>
</svg>
