<?xml version="1.0" encoding="utf-8"?>
<!-- Generator: Adobe Illustrator 17.0.0, SVG Export Plug-In . SVG Version: 6.00 Build 0)  -->
<!DOCTYPE svg PUBLIC "-//W3C//DTD SVG 1.1//EN" "http://www.w3.org/Graphics/SVG/1.1/DTD/svg11.dtd">
<svg version="1.1" xmlns="http://www.w3.org/2000/svg" xmlns:xlink="http://www.w3.org/1999/xlink" x="0px" y="0px" width="1792px"
	 height="1792px" viewBox="0 0 1792 1792" enable-background="new 0 0 1792 1792" xml:space="preserve">
<g id="Guide">
</g>
<g id="Font" display="none">
</g>
<g id="内容">
	<path d="M1408.001,0c-167.195,0-309.432,106.856-362.147,256H0v1535.999h1536V746.148
		c149.145-52.715,256.001-194.952,256.001-362.148C1792.001,171.923,1620.078,0,1408.001,0z M1408,1663.999H128V384h896.001
		c0,212.077,171.922,384,383.999,384V1663.999z M1600,512l-64,64l-128-128l-128,128l-64-64l128-128l-128-128l64-64l128,128l128-128
		l64,64l-128,128L1600,512z"/>
</g>
<g id="レイヤー_5" display="none">
</g>
<g id="Unicode" display="none">
	<text transform="matrix(1 0 0 1 437.0635 964.2812)" display="inline" fill="#ED1E79" font-family="'ArialMT'" font-size="256">U+F737</text>
</g>
</svg>
