<?xml version="1.0" encoding="utf-8"?>
<!-- Generator: Adobe Illustrator 17.0.0, SVG Export Plug-In . SVG Version: 6.00 Build 0)  -->
<!DOCTYPE svg PUBLIC "-//W3C//DTD SVG 1.1//EN" "http://www.w3.org/Graphics/SVG/1.1/DTD/svg11.dtd">
<svg version="1.1" xmlns="http://www.w3.org/2000/svg" xmlns:xlink="http://www.w3.org/1999/xlink" x="0px" y="0px" width="1792px"
	 height="1792px" viewBox="0 0 1792 1792" enable-background="new 0 0 1792 1792" xml:space="preserve">
<g id="Guide">
</g>
<g id="Font" display="none">
	<path display="inline" d="M407.273,325.818v814.545c130.327-130.327,285.091-179.2,415.418-166.167
		c65.164,8.146,131.957,19.549,198.749,37.469c135.214,35.84,257.397,73.309,373.062,66.793
		c115.666-4.888,226.444-87.971,316.044-263.913V0c-86.342,175.942-229.702,247.622-373.062,236.218
		c-143.36-11.404-304.64-61.906-451.258-105.891c-146.618-43.985-275.316-68.422-373.062,6.517
		C464.291,174.312,428.451,237.847,407.273,325.818z M244.363,1792H81.454V0h162.909V1792z"/>
</g>
<g id="内容">
	<path d="M1268,820l332,332V0H448l308.11,308.11L501,627c-282.705,353.381-348.405,740.847-181,973
		c131,181.667,358.644,206.986,491.953,185.604c147.945-23.73,292.485-101.996,385.047-261.27c-128,64-279.101,62.396-340.049-5.717
		C761.522,1411.971,833,1255,1076.999,1011L1268,820z"/>
</g>
<g id="レイヤー_5" display="none">
</g>
<g id="Unicode" display="none">
	<text transform="matrix(1 0 0 1 437.0627 964.2812)" display="inline" fill="#ED1E79" font-family="'ArialMT'" font-size="256">U+F719</text>
</g>
</svg>
