<?xml version="1.0" encoding="utf-8"?>
<!-- Generator: Adobe Illustrator 17.0.0, SVG Export Plug-In . SVG Version: 6.00 Build 0)  -->
<!DOCTYPE svg PUBLIC "-//W3C//DTD SVG 1.1//EN" "http://www.w3.org/Graphics/SVG/1.1/DTD/svg11.dtd">
<svg version="1.1" xmlns="http://www.w3.org/2000/svg" xmlns:xlink="http://www.w3.org/1999/xlink" x="0px" y="0px" width="1792px"
	 height="1792px" viewBox="0 0 1792 1792" enable-background="new 0 0 1792 1792" xml:space="preserve">
<g id="Guide">
</g>
<g id="Font" display="none">
	<path display="inline" d="M740.715,1206.572v155.286h310.571v-155.286H740.715z M529.524,740.714h222.06
		c4.658,0,10.87,0,18.634,1.553c15.529,1.553,20.188,1.553,26.399-4.659c3.106-1.553,4.658-6.211,4.658-12.423
		c0-12.423,1.553-23.293,7.765-31.057c1.553-3.106,3.106-6.211,4.658-9.317c1.553-1.553,4.659-4.659,9.317-6.211
		s7.764-1.553,9.317-3.106c4.658-1.553,23.292-3.106,27.951-3.106c1.553,0,7.765,0,18.634,0c9.317,0,15.529,0,18.635,0
		c38.821,0,63.667,23.293,63.667,55.903c0,43.48-3.105,45.033-48.139,76.09c-4.658,1.553-10.87,3.106-18.634,4.659
		c-15.529,6.211-65.221,31.057-94.725,63.667c-31.058,32.61-60.562,99.383-59.008,178.579h310.571
		c4.657-3.106,12.423-7.764,21.74-12.423c18.634-10.87,74.536-59.009,110.253-111.806c35.716-52.797,69.876-147.522,69.876-251.563
		c0-105.594-41.925-186.343-91.616-228.27c-51.246-41.927-131.994-66.773-181.685-72.984c-26.398-3.106-52.797-4.659-80.749-4.659
		c-104.043,0-184.79,23.293-256.222,77.643C571.452,503.126,529.524,604.062,529.524,740.714z M71.431,1243.841
		C23.293,1133.588,0,1018.676,0,896c0-243.799,100.935-473.622,262.434-635.12C422.377,100.936,652.201,0,896,0
		c243.8,0,473.622,100.936,635.12,260.88C1691.062,422.378,1792,652.201,1792,896s-100.938,473.622-260.88,633.567
		C1369.622,1691.064,1139.8,1792,896,1792c-243.799,0-473.623-100.936-633.566-262.433
		C181.685,1450.371,118.018,1354.094,71.431,1243.841z"/>
</g>
<g id="内容">
	<path d="M896,0C401.151,0,0,401.153,0,896s401.151,896,896,896c494.848,0,896-401.153,896-896S1390.848,0,896,0z
		 M1027.861,1386.142c-7.245,17.578-17.336,32.834-30.251,45.75c-12.937,12.936-28.193,23.026-45.771,30.251
		C934.262,1469.367,915.655,1473,896,1473c-19.656,0-38.283-3.633-55.862-10.857c-17.576-7.225-32.833-17.315-45.748-30.251
		c-12.938-12.916-23.026-28.172-30.252-45.75c-7.244-17.577-10.856-36.204-10.856-55.86s3.612-38.263,10.856-55.84
		c7.226-17.578,17.314-32.834,30.252-45.77c12.915-12.916,28.172-23.006,45.748-30.251c17.579-7.225,36.206-10.857,55.862-10.857
		c19.655,0,38.262,3.633,55.84,10.857c17.577,7.245,32.834,17.335,45.771,30.251c12.915,12.936,23.006,28.193,30.251,45.77
		c7.224,17.577,10.856,36.184,10.856,55.84S1035.085,1368.564,1027.861,1386.142z M1255.42,726.209
		c-6.216,24.298-16.811,48.313-31.826,72.066c-15.014,23.773-34.69,47.788-59.028,72.066
		c-24.339,24.298-55.134,50.896-92.407,79.815c-23.813,18.607-39.879,36.709-48.153,54.266
		c-8.272,17.557-12.409,35.135-12.409,52.692v44.943H779.111v-68.191c0-30.998,4.138-57.334,12.412-79.048
		c8.275-21.695,22.26-41.835,41.936-60.441c28.979-27.89,55.639-52.188,79.976-72.853c24.339-20.665,45.308-40.039,62.905-58.121
		c17.598-18.082,31.32-35.115,41.168-51.138c9.828-16.023,14.753-32.814,14.753-50.371c0-34.105-10.596-60.704-31.786-79.815
		c-21.189-19.111-47.788-28.677-79.794-28.677c-48.575,0-85.526,13.44-110.833,40.301c-25.307,26.861-39.514,59.412-42.622,97.635
		l-238.678-15.499c11.36-109.582,51.662-193.13,120.883-250.605C718.65,367.758,807.527,339,916.019,339
		c47.526,0,92.206,6.478,134.061,19.434c41.854,12.956,78.786,32.37,110.812,58.262c32.027,25.892,57.334,57.979,75.94,96.283
		c18.605,38.303,27.91,82.257,27.91,131.861C1264.743,674.809,1261.636,701.932,1255.42,726.209z"/>
</g>
<g id="レイヤー_5" display="none">
</g>
<g id="Unicode" display="none">
	<text transform="matrix(1 0 0 1 437.0635 964.2812)" display="inline" fill="#ED1E79" font-family="'ArialMT'" font-size="256">U+F704</text>
</g>
</svg>
