<?xml version="1.0" encoding="utf-8"?>
<!-- Generator: Adobe Illustrator 17.0.0, SVG Export Plug-In . SVG Version: 6.00 Build 0)  -->
<!DOCTYPE svg PUBLIC "-//W3C//DTD SVG 1.1//EN" "http://www.w3.org/Graphics/SVG/1.1/DTD/svg11.dtd">
<svg version="1.1" xmlns="http://www.w3.org/2000/svg" xmlns:xlink="http://www.w3.org/1999/xlink" x="0px" y="0px" width="1792px"
	 height="1792px" viewBox="0 0 1792 1792" enable-background="new 0 0 1792 1792" xml:space="preserve">
<g id="Guide">
</g>
<g id="Font" display="none">
</g>
<g id="内容">
	<g>
		<g>
			<polygon points="1701.062,925.51 1792,768 461.785,0 237.91,387.763 1679.529,774.044 1737.484,789.573 1721.956,847.529 			"/>
		</g>
		<g>
			<path d="M0,1107.485l-1.87,6.979l1.87,0.501V1600h648.066c28.418,110.415,128.648,192,247.935,192
				c119.286,0,219.516-81.585,247.934-192H1536V896H0V1107.485z M1216,1088c106.039,0,192,85.961,192,192s-85.961,192-192,192
				s-192-85.961-192-192S1109.961,1088,1216,1088z M896,1344c106.039,0,192,85.961,192,192s-85.961,192-192,192s-192-85.961-192-192
				S789.961,1344,896,1344z M448,960c106.039,0,192,85.961,192,192s-85.961,192-192,192s-192-85.961-192-192S341.961,960,448,960z"
				/>
		</g>
		<g>
			<polygon points="73.83,831.946 1600,831.946 1600,1070.854 1664,832 180.338,434.453 			"/>
		</g>
	</g>
</g>
<g id="レイヤー_5" display="none">
</g>
<g id="Unicode" display="none">
	<text transform="matrix(1 0 0 1 437.0635 964.2812)" display="inline" fill="#ED1E79" font-family="'ArialMT'" font-size="256">U+F725</text>
</g>
</svg>
