<?xml version="1.0" encoding="utf-8"?>
<!-- Generator: Adobe Illustrator 17.0.0, SVG Export Plug-In . SVG Version: 6.00 Build 0)  -->
<!DOCTYPE svg PUBLIC "-//W3C//DTD SVG 1.1//EN" "http://www.w3.org/Graphics/SVG/1.1/DTD/svg11.dtd">
<svg version="1.1" xmlns="http://www.w3.org/2000/svg" xmlns:xlink="http://www.w3.org/1999/xlink" x="0px" y="0px" width="1792px"
	 height="1792px" viewBox="0 0 1792 1792" enable-background="new 0 0 1792 1792" xml:space="preserve">
<g id="Guide">
</g>
<g id="Font" display="none">
	<path display="inline" d="M560.39,895.22c0-182.634,149.854-334.049,335.61-334.049s335.61,151.414,335.61,334.049
		c0,185.756-149.854,335.609-335.61,335.609S560.39,1080.976,560.39,895.22z M0,895.22c0,34.341,3.122,73.366,9.366,115.512
		l235.707,59.317l3.122,9.366c14.049,51.512,34.341,99.902,59.317,145.171l4.683,7.805l-124.878,209.171
		c46.829,60.878,101.463,115.512,163.902,163.902l207.61-126.439l7.805,4.683c46.829,26.537,95.22,46.829,146.732,60.878
		l7.805,3.122l59.317,235.707c42.146,4.683,79.61,7.805,115.512,7.805c28.098,0,67.122-3.122,115.512-7.805l59.317-235.707
		l9.366-3.122c48.39-14.049,96.781-34.341,145.171-60.878l7.805-4.683l209.171,126.439c57.756-45.268,112.39-99.902,162.342-163.902
		l-124.878-209.171l4.683-7.805c24.976-45.269,45.268-93.659,60.878-145.171l1.561-9.366l237.268-59.317
		c4.683-42.146,7.805-79.61,7.805-115.512c0-29.659-3.122-67.122-7.805-113.952l-237.268-59.317l-1.561-9.366
		c-17.171-53.073-37.463-101.463-60.878-145.171l-4.683-7.805l124.878-209.17c-45.268-60.879-99.902-115.513-162.342-163.903
		l-209.171,126.439l-7.805-4.683c-46.829-26.537-95.22-46.829-145.171-60.878l-9.366-1.561L1011.512,8.585
		C969.366,3.902,931.902,0.78,896,0.78c-28.098,0-67.122,3.122-115.512,7.805l-59.317,237.268l-7.805,1.561
		c-51.512,14.049-101.464,34.341-146.732,60.878l-7.805,4.683l-207.61-126.439c-60.878,48.39-115.512,103.024-163.902,163.903
		l124.878,209.17l-4.683,7.805c-26.537,48.39-45.268,96.781-59.317,145.171l-3.122,9.366L9.366,781.268
		C3.122,831.22,0,868.683,0,895.22z"/>
</g>
<g id="内容">
	<path d="M1360.594,1536H929.188v-151.995c5.113-13.723,23.773-27.444,34.785-32.243c11.012-4.798,206.365-64.532,258.582-95.343
		c3.828-9.866,21.445-36.83,24.558-51.042c-1.01-10.565,0.501-46.453-5.778-59.229c-34.164-40.666-75.584-100.729-81.106-217.602
		C1155.895,836.83,1218.725,704,1359.789,704c0.27,0,0.537,0.013,0.805,0.019c0.267-0.006,0.533-0.019,0.805-0.019
		c141.065,0,203.895,132.83,199.561,224.547c-5.522,116.872-46.942,176.935-81.106,217.602c-6.279,12.776-4.768,48.664-5.777,59.229
		c3.111,14.211,20.729,41.175,24.557,51.042c32.215,19.009,118.912,49.027,183.19,70.361C1752.045,1198.953,1792,1052.145,1792,896
		c0-494.848-401.152-895.999-896-895.999C401.153,0.001,0.001,401.152,0.001,896c0,156.145,39.955,302.953,110.178,430.78
		c64.278-21.334,150.975-51.352,183.189-70.361c3.83-9.866,21.446-36.83,24.559-51.042c-1.01-10.565,0.5-46.453-5.778-59.229
		c-34.165-40.666-75.585-100.729-81.106-217.602C226.707,836.83,289.539,704,430.603,704c0.27,0,0.535,0.013,0.804,0.019
		c0.267-0.006,0.534-0.019,0.804-0.019c141.065,0,203.895,132.83,199.562,224.547c-5.521,116.872-46.941,176.935-81.106,217.602
		c-6.278,12.776-4.769,48.664-5.778,59.229c3.112,14.211,20.729,41.175,24.558,51.042c52.216,30.812,247.569,90.545,258.581,95.343
		c11.014,4.799,29.672,18.52,34.787,32.243V1536H431.407H268.942C430.546,1694.356,651.868,1792,896,1792
		c244.132,0,465.454-97.643,627.058-256H1360.594z M690.928,896c-2.133-24.344-7.509-49.154-15.973-73.211
		c-13.722-38.997-35.176-74.499-62.045-102.667c-11.982-12.562-24.922-23.625-38.702-33.154
		c64.333-21.346,151.443-51.483,183.753-70.548c3.829-9.866,21.445-36.83,24.559-51.042c-1.01-10.565,0.5-46.453-5.779-59.228
		c-34.164-40.666-75.584-100.729-81.105-217.602C691.301,196.83,754.131,64,895.196,64c0.271,0,0.536,0.013,0.804,0.019
		c0.268-0.006,0.535-0.019,0.805-0.019c141.064,0,203.895,132.83,199.562,224.547c-5.522,116.872-46.941,176.936-81.107,217.602
		c-6.277,12.776-4.768,48.664-5.777,59.228c3.111,14.212,20.728,41.175,24.557,51.042c32.311,19.065,119.42,49.203,183.754,70.548
		c-13.781,9.529-26.721,20.593-38.703,33.156c-26.869,28.168-48.323,63.671-62.044,102.667
		c-8.464,24.057-13.841,48.867-15.974,73.21H896H690.928z"/>
</g>
<g id="レイヤー_5" display="none">
</g>
<g id="Unicode" display="none">
	<text transform="matrix(1 0 0 1 437.0625 964.2812)" display="inline" fill="#ED1E79" font-family="'ArialMT'" font-size="256">U+F710</text>
</g>
</svg>
