<?xml version="1.0" encoding="utf-8"?>
<!-- Generator: Adobe Illustrator 17.0.0, SVG Export Plug-In . SVG Version: 6.00 Build 0)  -->
<!DOCTYPE svg PUBLIC "-//W3C//DTD SVG 1.1//EN" "http://www.w3.org/Graphics/SVG/1.1/DTD/svg11.dtd">
<svg version="1.1" xmlns="http://www.w3.org/2000/svg" xmlns:xlink="http://www.w3.org/1999/xlink" x="0px" y="0px" width="1792px"
	 height="1792px" viewBox="0 0 1792 1792" enable-background="new 0 0 1792 1792" xml:space="preserve">
<g id="Guide">
</g>
<g id="Font" display="none">
</g>
<g id="内容">
	<g>
		<circle cx="480" cy="480" r="224"/>
		<path d="M0,0v1792h649.776c-14.093-10.13-27.419-21.429-39.883-33.893c-27.437-27.437-49.306-58.994-65.174-93.937L128,1664.254
			V128h1535.999v416.641c35.01,15.875,66.627,37.77,94.109,65.252c12.463,12.464,23.762,25.79,33.892,39.883V0H0z"/>
		<path d="M1663.999,1157.358v506.591l-506.693,0.101l-94.059,94.058c-12.464,12.464-25.789,23.763-39.882,33.893H1792v-768.633
			c-10.13,14.093-21.429,27.419-33.893,39.883L1663.999,1157.358z"/>
		<path d="M1536,1536v-256.066c-21.047,15.38-43.854,28.097-68.213,37.974c-38.415,15.575-78.984,23.473-120.586,23.473
			c-1.927,0-3.852-0.017-5.775-0.051c1.332,69.535-20.033,137.904-61.504,194.671H1536z"/>
		<path d="M609.894,1304.75l184.251-184.252c30.578-30.578,66.266-54.266,106.069-70.405
			c38.413-15.575,78.983-23.473,120.585-23.473c1.927,0,3.852,0.017,5.776,0.051c-1.645-85.826,31.278-169.88,93.922-232.526
			l155.932-155.93L1024,512l-384,512L256,768v768h260.054c-0.021-1.523-0.054-3.045-0.054-4.571
			c0-41.608,7.899-82.185,23.479-120.602C555.62,1371.021,579.311,1335.332,609.894,1304.75z"/>
		<path d="M1715.681,652.319c-101.759-101.759-266.745-101.759-368.503,0l-184.252,184.252
			c-68.194,68.194-90.662,164.778-67.454,251.704l343.831-343.83c50.881-50.881,133.373-50.879,184.252,0.001
			c50.881,50.88,50.881,133.371,0,184.251c-0.035,0.035-0.07,0.068-0.105,0.103l-343.728,343.728
			c86.927,23.21,183.512,0.742,251.707-67.452l184.252-184.253C1817.439,919.065,1817.439,754.078,1715.681,652.319z"/>
		<path d="M1272.528,1279.722l-159.579,159.579v0.001l-184.252,184.252c-50.88,50.88-133.371,50.88-184.252,0
			c-50.879-50.88-50.879-133.371,0-184.251l119.75-119.75h-0.001l224.081-224.082c-86.926-23.209-183.51-0.74-251.703,67.453
			l-184.253,184.253c-101.759,101.759-101.759,266.744,0.001,368.504c101.76,101.759,266.744,101.759,368.502,0l184.253-184.252
			C1273.27,1463.234,1295.738,1366.648,1272.528,1279.722z"/>
		<path d="M923.429,1357.715c0,47.969,38.888,86.856,86.857,86.856c24.062,0,45.836-9.784,61.566-25.591l0.002,0.002
			l347.278-347.279c15.718-15.719,25.44-37.433,25.44-61.418c0-47.969-38.889-86.857-86.857-86.857
			c-23.984,0-45.699,9.722-61.418,25.44l-346.555,346.555l0.012,0.011C933.519,1311.215,923.429,1333.285,923.429,1357.715z"/>
	</g>
</g>
<g id="レイヤー_5" display="none">
</g>
<g id="Unicode" display="none">
	<text transform="matrix(1 0 0 1 437.0625 964.2812)" display="inline" fill="#ED1E79" font-family="'ArialMT'" font-size="256">U+F738</text>
</g>
</svg>
