<?xml version="1.0" encoding="utf-8"?>
<!-- Generator: Adobe Illustrator 17.0.0, SVG Export Plug-In . SVG Version: 6.00 Build 0)  -->
<!DOCTYPE svg PUBLIC "-//W3C//DTD SVG 1.1//EN" "http://www.w3.org/Graphics/SVG/1.1/DTD/svg11.dtd">
<svg version="1.1" xmlns="http://www.w3.org/2000/svg" xmlns:xlink="http://www.w3.org/1999/xlink" x="0px" y="0px" width="1792px"
	 height="1792px" viewBox="0 0 1792 1792" enable-background="new 0 0 1792 1792" xml:space="preserve">
<g id="Guide">
</g>
<g id="Font" display="none">
</g>
<g id="内容">
	<g>
		<path d="M1390.713,144.787L1535.5,0H960v575.5l181.394-181.394c155.725,100.951,262.431,294.992,266.953,519.064
			c-1.327,76.104-11.444,149.217-29.012,217.496C1308.979,1404.097,1119.146,1600,896,1600v128c492.914,0,892.5-386.826,892.5-864
			C1788.5,563.977,1630.522,299.683,1390.713,144.787z"/>
		<path d="M383.653,878.829c1.327-76.104,11.443-149.217,29.012-217.495C483.021,387.903,672.854,192,896,192V64
			C403.086,64,3.5,450.826,3.5,928c0,300.023,157.977,564.317,397.786,719.213L256.5,1792H832v-575.5l-181.394,181.395
			C494.881,1296.942,388.175,1102.901,383.653,878.829z"/>
	</g>
</g>
<g id="レイヤー_5" display="none">
</g>
<g id="Unicode" display="none">
	<text transform="matrix(1 0 0 1 422.8755 964.2812)" display="inline" fill="#ED1E79" font-family="'ArialMT'" font-size="256">U+F71A</text>
</g>
</svg>
