<?xml version="1.0" encoding="utf-8"?>
<!-- Generator: Adobe Illustrator 17.0.0, SVG Export Plug-In . SVG Version: 6.00 Build 0)  -->
<!DOCTYPE svg PUBLIC "-//W3C//DTD SVG 1.1//EN" "http://www.w3.org/Graphics/SVG/1.1/DTD/svg11.dtd">
<svg version="1.1" xmlns="http://www.w3.org/2000/svg" xmlns:xlink="http://www.w3.org/1999/xlink" x="0px" y="0px" width="1792px"
	 height="1792px" viewBox="0 0 1792 1792" enable-background="new 0 0 1792 1792" xml:space="preserve">
<g id="Guide">
</g>
<g id="Font" display="none">
	<path display="inline" d="M746.667,224v149.333h298.667V224H746.667z M746.667,1120H0V522.667
		c0-82.133,67.2-149.333,149.333-149.333h448V224c0-82.133,67.2-149.333,149.333-149.333h298.667
		c82.134,0,149.333,67.2,149.333,149.333v149.333h448c82.134,0,149.333,67.2,149.333,149.333V1120h-746.667V970.667H746.667V1120z
		 M0,1568v-298.667h1792V1568c0,82.133-67.2,149.333-149.333,149.333H149.333C67.2,1717.333,0,1650.133,0,1568z"/>
</g>
<g id="内容">
	<g>
		<path d="M1728,1280h-544.003c-17.674,0-32,14.327-32,32v96h-512v-96c0-17.673-14.326-32-32-32h-544c-35.347,0-64,28.654-64,64v384
			c0,35.346,28.653,64,64,64H1728c35.345,0,64-28.654,64-64v-384C1792,1308.654,1763.345,1280,1728,1280z"/>
		<path d="M1792,768L1536.002,0H256L0,768v384c0,35.346,28.653,64,64,64h1664.002c35.346,0,64-28.654,64-64V768H1792z M1184,704
			c-17.674,0-32,14.327-32,32v96H640v-96c0-17.673-14.327-32-32-32H128L320,64h1152l192,640H1184z"/>
	</g>
</g>
<g id="レイヤー_5" display="none">
</g>
<g id="Unicode" display="none">
	<text transform="matrix(1 0 0 1 437.063 964.2812)" display="inline" fill="#ED1E79" font-family="'ArialMT'" font-size="256">U+F702</text>
</g>
</svg>
