<?xml version="1.0" encoding="utf-8"?>
<!-- Generator: Adobe Illustrator 17.0.2, SVG Export Plug-In . SVG Version: 6.00 Build 0)  -->
<!DOCTYPE svg PUBLIC "-//W3C//DTD SVG 1.1//EN" "http://www.w3.org/Graphics/SVG/1.1/DTD/svg11.dtd">
<svg version="1.1" id="レイヤー_1" xmlns="http://www.w3.org/2000/svg" xmlns:xlink="http://www.w3.org/1999/xlink" x="0px"
	 y="0px" width="1792px" height="1792px" viewBox="0 0 1792 1792" enable-background="new 0 0 1792 1792" xml:space="preserve">
<g id="Guide">
</g>
<g id="Font" display="none">
	<path display="inline" d="M0,1567.253c10.453-209.067,50.773-380.8,141.867-537.6C232.96,872.854,361.387,762.347,560,690.667
		c98.56-34.347,210.56-55.253,336-62.72V223.253l896,676.48l-896,669.013v-449.493c-186.664,4.48-364.372,38.827-527.146,107.52
		C206.08,1295.467,70.187,1413.44,0,1567.253z"/>
</g>
<g id="レイヤー_5" display="none">
</g>
<g id="Unicode" display="none">
	<text transform="matrix(1 0 0 1 437.0635 964.2812)" display="inline" fill="#ED1E79" font-family="'ArialMT'" font-size="256">U+F716</text>
</g>
<path d="M1793,508.667L897-2L2.166,509.333L1,508.667V1342l893,448l899-448V508.667l-0.328,0.188L1793,508.667z M577,638
	c0,70.692-114.614,128-256,128c-141.385,0-256-57.308-256-128V510c0,70.692,114.615,128,256,128c141.386,0,256-57.308,256-128V638z
	 M1153,958c0,70.692-114.614,128-256,128c-141.385,0-256-57.308-256-128V830c0,70.692,114.615,128,256,128
	c141.386,0,256-57.308,256-128V958z M1153,318c0,70.692-114.614,128-256,128c-141.385,0-256-57.308-256-128V190
	c0,70.692,114.615,128,256,128c141.386,0,256-57.308,256-128V318z M1729,638c0,70.692-114.614,128-256,128
	c-141.385,0-256-57.308-256-128V510c0,70.692,114.615,128,256,128c141.386,0,256-57.308,256-128V638z"/>
</svg>
