<?xml version="1.0" encoding="utf-8"?>
<!-- Generator: Adobe Illustrator 17.0.0, SVG Export Plug-In . SVG Version: 6.00 Build 0)  -->
<!DOCTYPE svg PUBLIC "-//W3C//DTD SVG 1.1//EN" "http://www.w3.org/Graphics/SVG/1.1/DTD/svg11.dtd">
<svg version="1.1" xmlns="http://www.w3.org/2000/svg" xmlns:xlink="http://www.w3.org/1999/xlink" x="0px" y="0px" width="1792px"
	 height="1792px" viewBox="0 0 1792 1792" enable-background="new 0 0 1792 1792" xml:space="preserve">
<g id="Guide">
</g>
<g id="Font" display="none">
	<path display="inline" d="M746.667,224v149.333h298.667V224H746.667z M746.667,1120H0V522.667
		c0-82.133,67.2-149.333,149.333-149.333h448V224c0-82.133,67.2-149.333,149.333-149.333h298.667
		c82.134,0,149.333,67.2,149.333,149.333v149.333h448c82.134,0,149.333,67.2,149.333,149.333V1120h-746.667V970.667H746.667V1120z
		 M0,1568v-298.667h1792V1568c0,82.133-67.2,149.333-149.333,149.333H149.333C67.2,1717.333,0,1650.133,0,1568z"/>
</g>
<g id="内容">
	<g>
		<path d="M1623.296,33.802c-129.727-61.565-270.382-36.689-314.161,55.561c-27.396,57.726-87.962,291.667-97.673,473.77
			c-48.803,51.685-93.849,109.274-123.698,154.125c-225.226-68.851-417.166-55.581-466.384,44.083l-0.023-0.011l-0.734,1.549
			c-0.004,0.007-0.008,0.015-0.011,0.022c-0.004,0.008-0.007,0.015-0.01,0.023l-6.182,13.024l0.86,0.405
			c-41.782,128.879,147.64,336.806,435.405,473.371c159.131,75.519,316.185,113.95,437.185,113.95
			c99.555,0,174.688-26.002,206.577-78.748l0.52,0.245l4.799-10.113c0.002-0.006,0.006-0.012,0.009-0.019
			c0.002-0.006,0.006-0.012,0.009-0.019l0.736-1.552l-0.024-0.011c47.155-103.5-70.255-265.561-274.549-398.252
			c14.801-48.524,29.735-114.026,38.964-179.77c137.438-122.041,286.02-324.151,314.009-383.127
			C1822.697,220.058,1753.022,95.367,1623.296,33.802z"/>
		<path d="M1487.868,1423.674c-66.433,0-140.18-10.274-219.197-30.536c-80.457-20.632-162.454-50.646-243.711-89.208
			c-151.289-71.797-282.231-165.247-368.709-263.135c-44.66-50.553-75.778-100.388-92.491-148.123
			c-0.682-1.947-1.332-3.891-1.965-5.832L511.6,992.608l0.007,0.004c-0.084,0.174-0.172,0.345-0.255,0.52
			c-21.142,44.55-11.357,100.162,23.037,159.697C235.697,1164.676,0,1303.043,0,1472c0,176.731,257.884,320,576,320
			c267.213,0,491.917-101.089,556.99-238.184c222.222,65.904,410.229,51.107,457.521-48.547c0.083-0.175,0.16-0.353,0.241-0.528
			l0.008,0.004l50.188-105.757C1598.582,1415.37,1547.115,1423.674,1487.868,1423.674z M739.85,1362.039
			c46.155,33.104,97.756,64.88,153.699,94.077c1.61,5.205,2.451,10.505,2.451,15.884c0,70.692-143.269,128-320,128
			s-320-57.308-320-128s143.27-128,320-128C635.887,1344,691.921,1350.587,739.85,1362.039z M568,1728
			c-278.352,0-504-114.615-504-256c0-141.385,225.648-256,504-256c3.655,0,7.299,0.024,10.935,0.063
			c18.343,22.192,39.615,44.572,63.519,66.804c-21.586-1.883-43.79-2.868-66.454-2.868c-212.078,0-384,85.961-384,192
			s171.922,192,384,192c201.303,0,366.42-77.45,382.678-176.004c33.791,15.486,67.432,29.298,100.595,41.413
			C1007.967,1643.152,807.493,1728,568,1728z"/>
	</g>
</g>
<g id="レイヤー_5" display="none">
</g>
<g id="Unicode" display="none">
	<text transform="matrix(1 0 0 1 422.8755 964.2812)" display="inline" fill="#ED1E79" font-family="'ArialMT'" font-size="256">U+F70A</text>
</g>
</svg>
