<?xml version="1.0" encoding="utf-8"?>
<!-- Generator: Adobe Illustrator 17.0.0, SVG Export Plug-In . SVG Version: 6.00 Build 0)  -->
<!DOCTYPE svg PUBLIC "-//W3C//DTD SVG 1.1//EN" "http://www.w3.org/Graphics/SVG/1.1/DTD/svg11.dtd">
<svg version="1.1" xmlns="http://www.w3.org/2000/svg" xmlns:xlink="http://www.w3.org/1999/xlink" x="0px" y="0px" width="1792px"
	 height="1792px" viewBox="0 0 1792 1792" enable-background="new 0 0 1792 1792" xml:space="preserve">
<g id="Guide">
</g>
<g id="Font" display="none">
</g>
<g id="内容">
	<g>
		<path d="M640,128C640,57.308,582.693,0,512,0S384,57.308,384,128c0,36.528,15.303,69.48,39.845,92.802L31.813,1792H160
			L545.081,251.675C599.737,237.092,640,187.252,640,128z"/>
		<path d="M1504,384c-159.058,0-288.043-129.5-288.043-129.5S1085.93,128,928,128c-159.058,0-288,57.308-288,128h0l-248.927,995.71
			C420.049,1194.631,534.817,1152,672,1152c159.058,0,288,128,288,128s128.945,128,288,128c159.058,0,288-57.308,288-128v-0.001
			l247.565-993.16C1752.509,342.633,1639.133,384,1504,384z"/>
	</g>
</g>
<g id="レイヤー_5" display="none">
</g>
<g id="Unicode" display="none">
	<text transform="matrix(1 0 0 1 437.0625 964.2812)" display="inline" fill="#ED1E79" font-family="'ArialMT'" font-size="256">U+F730</text>
</g>
</svg>
