<?xml version="1.0" encoding="utf-8"?>
<!-- Generator: Adobe Illustrator 17.0.0, SVG Export Plug-In . SVG Version: 6.00 Build 0)  -->
<!DOCTYPE svg PUBLIC "-//W3C//DTD SVG 1.1//EN" "http://www.w3.org/Graphics/SVG/1.1/DTD/svg11.dtd">
<svg version="1.1" xmlns="http://www.w3.org/2000/svg" xmlns:xlink="http://www.w3.org/1999/xlink" x="0px" y="0px" width="1792px"
	 height="1792px" viewBox="0 0 1792 1792" enable-background="new 0 0 1792 1792" xml:space="preserve">
<g id="Guide">
</g>
<g id="Font" display="none">
	<path display="inline" d="M1568,597.333h-448v-448L1568,597.333z M224,1754.667V37.333C224,14.933,238.934,0,261.336,0h709.333
		v746.667H1568v1008c0,22.4-14.934,37.333-37.331,37.333H261.336C238.934,1792,224,1777.067,224,1754.667z"/>
</g>
<g id="内容">
	<g>
		<path d="M576,1312c0-166.882,75.146-316.21,193.444-416H512l-29.685-89.055L448.003,704H832L1152,0H704L384,704l43.6,130.796
			C286.558,918.398,192,1072.155,192,1248c0,254.343,197.823,462.477,448,478.944V1728l158.12,22.589
			C663.424,1651.568,576,1491.997,576,1312z"/>
		<path d="M1152,833.056V832l-60.098-8.585L1408,128L1209.151,0L896,704l53.106,159.316C768.388,932.187,640,1107.099,640,1312
			c0,265.097,214.902,480,480,480c265.097,0,480-214.903,480-480C1600,1057.656,1402.176,849.523,1152,833.056z M1120,1536
			c-123.712,0-224-100.288-224-224s100.288-224,224-224c123.711,0,224,100.288,224,224S1243.711,1536,1120,1536z"/>
	</g>
</g>
<g id="レイヤー_5" display="none">
</g>
<g id="Unicode" display="none">
	<text transform="matrix(1 0 0 1 437.0635 964.2812)" display="inline" fill="#ED1E79" font-family="'ArialMT'" font-size="256">U+F715</text>
</g>
</svg>
