<?xml version="1.0" encoding="utf-8"?>
<!-- Generator: Adobe Illustrator 17.0.0, SVG Export Plug-In . SVG Version: 6.00 Build 0)  -->
<!DOCTYPE svg PUBLIC "-//W3C//DTD SVG 1.1//EN" "http://www.w3.org/Graphics/SVG/1.1/DTD/svg11.dtd">
<svg version="1.1" xmlns="http://www.w3.org/2000/svg" xmlns:xlink="http://www.w3.org/1999/xlink" x="0px" y="0px" width="1792px"
	 height="1792px" viewBox="0 0 1792 1792" enable-background="new 0 0 1792 1792" xml:space="preserve">
<g id="Guide">
</g>
<g id="Font" display="none">
</g>
<g id="内容">
	<path d="M895.86,0C401.034,0,0,401.194,0,895.913C0,1390.894,401.034,1792,895.86,1792c494.794,0,896.14-401.106,896.14-896.087
		C1792,401.194,1390.654,0,895.86,0z M1220.443,1197.685c-114.365,142.741-264.569,170.83-384.611,163.337
		c-157.661-9.694-325.501-150.929-332.369-298.345c-5.072-116.488,53.454-279.531,275.332-300.542
		c55.86-5.26,118.865,11.353,130.199,71.355c11.061,59.74-44.782,92.883-75.257,95.116
		c-105.696,8.219-146.604,63.617-134.959,134.072c11.351,67.477,89.585,99.337,161.556,101.226
		c67.471,1.988,174.984-28.954,229.027-110.885c103.031-156.794,46.88-293.166-11.646-358.864
		c-82.423-92.295-196.493-147.225-389.095-57.627c-45.703,21.355-91.991,17.892-127.814-11.37
		c-20.314-16.719-34.348-55.848-25.68-88.506c7.46-28.245,22.689-55.139,70.759-81.548c243.685-134.384,477.797-43.283,601.44,92
		C1343.48,695.956,1407.073,965.311,1220.443,1197.685z"/>
</g>
<g id="レイヤー_5" display="none">
</g>
<g id="Unicode" display="none">
	<text transform="matrix(1 0 0 1 437.0625 964.2812)" display="inline" fill="#ED1E79" font-family="'ArialMT'" font-size="256">U+F700</text>
</g>
</svg>
