<?xml version="1.0" encoding="utf-8"?>
<!-- Generator: Adobe Illustrator 17.0.0, SVG Export Plug-In . SVG Version: 6.00 Build 0)  -->
<!DOCTYPE svg PUBLIC "-//W3C//DTD SVG 1.1//EN" "http://www.w3.org/Graphics/SVG/1.1/DTD/svg11.dtd">
<svg version="1.1" xmlns="http://www.w3.org/2000/svg" xmlns:xlink="http://www.w3.org/1999/xlink" x="0px" y="0px" width="1792px"
	 height="1792px" viewBox="0 0 1792 1792" enable-background="new 0 0 1792 1792" xml:space="preserve">
<g id="Guide">
</g>
<g id="Font" display="none">
	<polygon display="inline" points="558.47,1063.685 0,660.665 689.452,660.665 899.599,84.922 902.477,84.922 1112.623,660.665 
		1792,660.665 1242.165,1060.807 1450.872,1707.078 898.159,1311.254 348.324,1707.078 	"/>
</g>
<g id="内容">
	<g>
		<path d="M1781.167,1035.652C1788.288,990.144,1792,943.506,1792,896s-3.712-94.144-10.833-139.651l-196.751-8.296
			c-18.117-84.71-51.474-163.769-97.062-234.174l133.264-144.996c-55.136-75.665-121.835-142.364-197.5-197.501l-144.996,133.264
			c-70.404-45.588-149.463-78.944-234.174-97.062l-8.297-196.751C990.144,3.711,943.507,0,896,0
			c-47.506,0-94.146,3.711-139.651,10.833l-8.296,196.751c-84.711,18.118-163.769,51.473-234.174,97.061L368.883,171.381
			c-75.665,55.137-142.364,121.835-197.501,197.501l133.264,144.996c-45.588,70.405-78.945,149.464-97.062,234.175l-196.751,8.296
			C3.711,801.856,0,848.494,0,896s3.711,94.144,10.833,139.652l196.751,8.296c18.116,84.71,51.474,163.77,97.062,234.174
			l-133.264,144.996c55.137,75.665,121.836,142.364,197.501,197.5l144.996-133.263c70.404,45.587,149.463,78.943,234.174,97.061
			l8.296,196.75C801.854,1788.289,848.494,1792,896,1792c47.507,0,94.144-3.711,139.651-10.833l8.297-196.75
			c84.71-18.118,163.77-51.474,234.174-97.062l144.996,133.264c75.665-55.137,142.364-121.835,197.5-197.5l-133.264-144.996
			c45.588-70.405,78.944-149.463,97.062-234.174L1781.167,1035.652z M896,1472c-318.115,0-576-257.884-576-576s257.885-576,576-576
			s576,257.884,576,576S1214.115,1472,896,1472z"/>
		<path d="M896,384c-282.771,0-512,229.231-512,512s229.229,512,512,512s512-229.23,512-512S1178.771,384,896,384z M896,1024
			c-70.693,0-128-57.308-128-128s57.307-128,128-128c70.692,0,128,57.308,128,128S966.692,1024,896,1024z"/>
	</g>
</g>
<g id="レイヤー_5" display="none">
</g>
<g id="Unicode" display="none">
	<text transform="matrix(1 0 0 1 437.0635 964.2812)" display="inline" fill="#ED1E79" font-family="'ArialMT'" font-size="256">U+F714</text>
</g>
</svg>
