<?xml version="1.0" encoding="utf-8"?>
<!-- Generator: Adobe Illustrator 17.0.0, SVG Export Plug-In . SVG Version: 6.00 Build 0)  -->
<!DOCTYPE svg PUBLIC "-//W3C//DTD SVG 1.1//EN" "http://www.w3.org/Graphics/SVG/1.1/DTD/svg11.dtd">
<svg version="1.1" xmlns="http://www.w3.org/2000/svg" xmlns:xlink="http://www.w3.org/1999/xlink" x="0px" y="0px" width="1792px"
	 height="1792px" viewBox="0 0 1792 1792" enable-background="new 0 0 1792 1792" xml:space="preserve">
<g id="Guide">
</g>
<g id="Font" display="none">
	<path display="inline" d="M1792,1792H0v-213.547l597.333-383.787v-149.333C524.16,1045.333,448,848.213,448,746.667V448
		C448,201.6,649.601,0,896,0s448,201.6,448,448v298.667c0,101.547-76.16,298.667-149.334,298.667v149.333L1792,1578.453V1792z"/>
</g>
<g id="内容">
	<path d="M640.001,0L127.999,0C57.332,0,0.042,57.266,0,127.923v0.154l0.001,511.922l1152,1152.001L1792,1152.001L640.001,0z
		 M352.002,448c-53.02,0-96-42.981-96-96c0-53.019,42.98-96,96-96c53.02,0,96,42.981,96,96C448.002,405.02,405.022,448,352.002,448z
		"/>
</g>
<g id="レイヤー_5" display="none">
</g>
<g id="Unicode" display="none">
	<text transform="matrix(1 0 0 1 415.8135 964.2812)" display="inline" fill="#ED1E79" font-family="'ArialMT'" font-size="256">U+F70C</text>
</g>
</svg>
