<?xml version="1.0" encoding="utf-8"?>
<!-- Generator: Adobe Illustrator 17.0.0, SVG Export Plug-In . SVG Version: 6.00 Build 0)  -->
<!DOCTYPE svg PUBLIC "-//W3C//DTD SVG 1.1//EN" "http://www.w3.org/Graphics/SVG/1.1/DTD/svg11.dtd">
<svg version="1.1" xmlns="http://www.w3.org/2000/svg" xmlns:xlink="http://www.w3.org/1999/xlink" x="0px" y="0px" width="1792px"
	 height="1792px" viewBox="0 0 1792 1792" enable-background="new 0 0 1792 1792" xml:space="preserve">
<g id="Guide">
</g>
<g id="Font" display="none">
</g>
<g id="内容">
	<path d="M1600,0c-106.039,0-192,85.961-192,192c0,45.755,16.015,87.764,42.731,120.75l-243.396,527.358
		C1189.812,834.843,1171.239,832,1152,832c-51.129,0-97.586,19.99-131.994,52.575L831.783,777.019
		c0.138-2.99,0.217-5.995,0.217-9.019c0-106.039-85.961-192-192-192s-192,85.961-192,192c0,40.808,12.741,78.635,34.448,109.74
		L196.89,1408.062c-1.625-0.04-3.255-0.062-4.89-0.062c-106.039,0-192,85.961-192,192s85.961,192,192,192s192-85.961,192-192
		c0-45.755-16.015-87.763-42.73-120.748l243.399-527.36C602.19,957.157,620.762,960,640,960c51.129,0,97.586-19.99,131.993-52.574
		l188.224,107.556c-0.138,2.989-0.217,5.995-0.217,9.019c0,106.039,85.961,192,192,192s192-85.961,192-192
		c0-40.808-12.741-78.634-34.447-109.74l285.558-530.321c1.625,0.04,3.255,0.061,4.89,0.061c106.039,0,192-85.961,192-192
		S1706.039,0,1600,0z"/>
</g>
<g id="レイヤー_5" display="none">
</g>
<g id="Unicode" display="none">
	<text transform="matrix(1 0 0 1 430.0635 964.2812)" display="inline" fill="#ED1E79" font-family="'ArialMT'" font-size="256">U+F72F</text>
</g>
</svg>
