<?xml version="1.0" encoding="utf-8"?>
<!-- Generator: Adobe Illustrator 17.0.0, SVG Export Plug-In . SVG Version: 6.00 Build 0)  -->
<!DOCTYPE svg PUBLIC "-//W3C//DTD SVG 1.1//EN" "http://www.w3.org/Graphics/SVG/1.1/DTD/svg11.dtd">
<svg version="1.1" xmlns="http://www.w3.org/2000/svg" xmlns:xlink="http://www.w3.org/1999/xlink" x="0px" y="0px" width="1792px"
	 height="1792px" viewBox="0 0 1792 1792" enable-background="new 0 0 1792 1792" xml:space="preserve">
<g id="Guide">
</g>
<g id="Font" display="none">
	<path display="inline" d="M1418.666,597.333H672V448h746.666V597.333z M1418.666,896H672V746.667h746.666V896z M1418.666,1194.667
		H672v-149.333h746.666V1194.667z M672,1344v149.333h746.666V1344H672z M522.666,597.333H373.333V448h149.333V597.333z M522.666,896
		H373.333V746.667h149.333V896z M522.666,1194.667H373.333v-149.333h149.333V1194.667z M522.666,1493.333H373.333V1344h149.333
		V1493.333z M1568,1642.667H224v-1344h1344V1642.667z M74.666,0v1792h1642.667V0H74.666z"/>
</g>
<g id="内容">
	<g>
		<path d="M673.495,1339.383c70.947,3.007,145.574,4.615,222.505,4.615s151.558-1.609,222.504-4.615
			c19.899-122.059,31.835-262.073,33.332-411.383H640.164C641.661,1077.31,653.597,1217.323,673.495,1339.383z"/>
		<path d="M1118.504,452.614c-70.946-3.007-145.574-4.615-222.504-4.615c-76.931,0-151.558,1.609-222.505,4.615
			C653.597,574.674,641.661,714.688,640.164,864h511.672C1150.339,714.688,1138.403,574.674,1118.504,452.614z"/>
		<path d="M684.969,388.658C752.875,385.612,823.496,384,896,384c72.504,0,143.125,1.611,211.031,4.658
			C1060.874,153.912,983.573,0,896,0S731.127,153.912,684.969,388.658z"/>
		<path d="M354.869,417.392c81.453-11.137,171.918-19.832,268.764-25.552c33.714-163.576,83.343-294.503,142.406-373.347
			C593.369,68.355,446.122,215.596,354.869,417.392z"/>
		<path d="M256.407,864h319.774c1.603-146.854,14.199-285.361,35.401-408.359c-105.889,5.887-202.033,14.959-283.344,26.463
			C285.406,597.028,259.853,726.575,256.407,864z"/>
		<path d="M1599.602,928c-3.169,131.954-25.864,257.169-64.276,370.45c103.23-18.672,172.292-41.909,191.927-67.441
			c1.95-4.833,3.862-9.684,5.729-14.559c0.003-0.15,0.017-0.299,0.017-0.449h0.157c34.4-89.938,54.718-186.835,58.27-288H1599.602z"
			/>
		<path d="M1535.589,864c-3.445-137.425-28.998-266.972-71.83-381.897c-81.312-11.503-177.455-20.576-283.342-26.463
			c21.202,122.998,33.798,261.505,35.401,408.359H1535.589z"/>
		<path d="M192.395,864c3.17-131.955,25.864-257.171,64.277-370.453c-103.228,18.671-172.288,41.908-191.925,67.439
			c-1.95,4.834-3.863,9.688-5.731,14.563c-0.003,0.15-0.017,0.299-0.017,0.449c0,0.001,0,0.001,0,0.001h-0.159
			C24.443,665.937,4.126,762.835,0.573,864H192.395z"/>
		<path d="M192.395,928H0.573c3.552,101.165,23.87,198.063,58.268,288H59c0,0.15,0.014,0.3,0.017,0.451
			c1.867,4.874,3.779,9.724,5.729,14.557c19.635,25.532,88.695,48.77,191.927,67.442C218.26,1185.169,195.565,1059.954,192.395,928z
			"/>
		<path d="M1025.96,18.493c59.062,78.843,108.691,209.771,142.405,373.347c96.847,5.72,187.311,14.414,268.763,25.552
			C1345.875,215.596,1198.628,68.355,1025.96,18.493z"/>
		<path d="M766.039,1773.507c-59.062-78.843-108.691-209.77-142.406-373.345c-96.846-5.72-187.31-14.414-268.764-25.552
			C446.124,1576.405,593.369,1723.645,766.039,1773.507z"/>
		<path d="M280.94,1363.421c-64.842-10.833-122.413-23.347-171.072-37.203c92.699,169.028,238.319,304.905,414.566,385.333
			C423.241,1625.638,339.203,1505.68,280.94,1363.421z"/>
		<path d="M280.939,428.582c58.265-142.26,142.301-262.219,243.495-348.132c-176.248,80.429-321.869,216.306-414.567,385.336
			C158.526,451.928,216.098,439.415,280.939,428.582z"/>
		<path d="M611.582,1336.356C590.38,1213.358,577.784,1074.852,576.181,928H256.407c3.446,137.423,28.998,266.969,71.83,381.893
			C409.549,1321.396,505.692,1330.469,611.582,1336.356z"/>
		<path d="M1511.059,428.581c64.842,10.833,122.414,23.347,171.074,37.203c-92.699-169.029-238.319-304.906-414.568-385.335
			C1368.758,166.362,1452.795,286.322,1511.059,428.581z"/>
		<path d="M1511.058,1363.421c-58.263,142.258-142.301,262.217-243.494,348.129c176.248-80.428,321.868-216.304,414.567-385.332
			C1633.472,1340.075,1575.899,1352.589,1511.058,1363.421z"/>
		<path d="M1107.031,1403.344c-67.907,3.047-138.527,4.658-211.031,4.658c-72.504,0-143.123-1.611-211.031-4.658
			C731.127,1638.089,808.427,1792,896,1792S1060.874,1638.089,1107.031,1403.344z"/>
		<path d="M1733,576c0,0,0-0.001,0-0.001c0-0.15-0.014-0.298-0.017-0.448c-1.868-4.876-3.781-9.73-5.732-14.565
			c-19.639-25.531-88.698-48.768-191.926-67.439c38.414,113.282,61.108,238.498,64.277,370.453h191.825
			c-3.552-101.165-23.87-198.063-58.27-288H1733z"/>
		<path d="M1437.127,1374.611c-81.452,11.137-171.916,19.831-268.762,25.551c-33.714,163.575-83.342,294.502-142.405,373.345
			C1198.628,1723.645,1345.874,1576.405,1437.127,1374.611z"/>
		<path d="M1535.589,928h-319.771c-1.603,146.853-14.2,285.358-35.4,408.356c105.887-5.887,202.031-14.959,283.342-26.463
			C1506.592,1194.97,1532.145,1065.423,1535.589,928z"/>
	</g>
</g>
<g id="レイヤー_5" display="none">
</g>
<g id="Unicode" display="none">
	<text transform="matrix(1 0 0 1 437.0635 964.2812)" display="inline" fill="#ED1E79" font-family="'ArialMT'" font-size="256">U+F703</text>
</g>
</svg>
