<?xml version="1.0" encoding="utf-8"?>
<!-- Generator: Adobe Illustrator 17.0.0, SVG Export Plug-In . SVG Version: 6.00 Build 0)  -->
<!DOCTYPE svg PUBLIC "-//W3C//DTD SVG 1.1//EN" "http://www.w3.org/Graphics/SVG/1.1/DTD/svg11.dtd">
<svg version="1.1" xmlns="http://www.w3.org/2000/svg" xmlns:xlink="http://www.w3.org/1999/xlink" x="0px" y="0px" width="1792px"
	 height="1792px" viewBox="0 0 1792 1792" enable-background="new 0 0 1792 1792" xml:space="preserve">
<g id="Guide">
</g>
<g id="Font" display="none">
	<path display="inline" d="M746.667,224v149.333h298.666V224H746.667z M746.667,1120H0V522.667
		c0-82.133,67.2-149.333,149.333-149.333h448V224c0-82.133,67.2-149.333,149.333-149.333h298.666
		c82.134,0,149.334,67.2,149.334,149.333v149.333h448c82.133,0,149.333,67.2,149.333,149.333V1120h-746.667V970.667H746.667V1120z
		 M0,1568v-298.667h1792V1568c0,82.133-67.2,149.333-149.333,149.333H149.333C67.2,1717.333,0,1650.133,0,1568z"/>
</g>
<g id="内容">
	<path d="M192,0v1792h960.839L1600,1344.839V0H192z M1088,1727.58v-447.161h447.161L1088,1727.58z"/>
</g>
<g id="レイヤー_5" display="none">
</g>
<g id="Unicode" display="none">
	<text transform="matrix(1 0 0 1 437.0627 964.2812)" display="inline" fill="#ED1E79" font-family="'ArialMT'" font-size="256">U+F709</text>
</g>
</svg>
