<?xml version="1.0" encoding="utf-8"?>
<!-- Generator: Adobe Illustrator 17.0.0, SVG Export Plug-In . SVG Version: 6.00 Build 0)  -->
<!DOCTYPE svg PUBLIC "-//W3C//DTD SVG 1.1//EN" "http://www.w3.org/Graphics/SVG/1.1/DTD/svg11.dtd">
<svg version="1.1" xmlns="http://www.w3.org/2000/svg" xmlns:xlink="http://www.w3.org/1999/xlink" x="0px" y="0px" width="1792px"
	 height="1792px" viewBox="0 0 1792 1792" enable-background="new 0 0 1792 1792" xml:space="preserve">
<g id="Guide">
</g>
<g id="Font" display="none">
</g>
<g id="内容">
	<path d="M1590.317,926.886c-0.356-0.355-0.715-0.704-1.072-1.059l0.007-0.007L770.483,107.05
		c-141.311-141.309-370.419-141.309-511.73,0c-141.311,141.311-141.311,370.421-0.001,511.732l0,0l818.77,818.77l0,0
		c6.798,6.799,13.94,13.045,21.361,18.753c3.8,3.476,8.02,6.499,12.576,8.984c84.282,55.73,198.877,46.485,273.101-27.737
		c84.786-84.788,84.787-222.252,0.001-307.039l-0.001-0.001L616.965,362.915L514.618,465.262l767.595,767.597h0.001
		c28.262,28.263,28.261,74.084-0.001,102.348c-28.262,28.261-74.083,28.261-102.346,0l0,0l-818.77-818.77l0-0.001
		c-84.786-84.787-84.786-222.253,0-307.039c84.789-84.787,222.252-84.787,307.038,0l818.771,818.77
		c141.31,141.312,141.31,370.421,0,511.73c-141.312,141.311-370.421,141.311-511.732,0.002l-248.878-248.88L156.405,721.128
		L54.06,823.475l818.769,818.768l0.008-0.008c0.354,0.357,0.704,0.717,1.06,1.073c197.244,197.247,517.521,196.771,715.355-1.063
		C1787.085,1444.408,1787.564,1124.133,1590.317,926.886z"/>
</g>
<g id="レイヤー_5" display="none">
</g>
<g id="Unicode" display="none">
	<text transform="matrix(1 0 0 1 437.0635 964.2812)" display="inline" fill="#ED1E79" font-family="'ArialMT'" font-size="256">U+F723</text>
</g>
</svg>
