<?xml version="1.0" encoding="utf-8"?>
<!-- Generator: Adobe Illustrator 17.0.0, SVG Export Plug-In . SVG Version: 6.00 Build 0)  -->
<!DOCTYPE svg PUBLIC "-//W3C//DTD SVG 1.1//EN" "http://www.w3.org/Graphics/SVG/1.1/DTD/svg11.dtd">
<svg version="1.1" xmlns="http://www.w3.org/2000/svg" xmlns:xlink="http://www.w3.org/1999/xlink" x="0px" y="0px" width="1792px"
	 height="1792px" viewBox="0 0 1792 1792" enable-background="new 0 0 1792 1792" xml:space="preserve">
<g id="Guide">
</g>
<g id="Font" display="none">
	<path display="inline" d="M1231.417,871.154c-17.081-17.081-24.845-37.269-24.845-60.561c0-48.139,37.268-85.407,85.407-85.407
		c45.033,0,83.854,37.269,83.854,85.407c0,48.139-38.822,85.407-83.854,85.407C1268.686,896,1248.499,888.236,1231.417,871.154z
		 M760.901,882.024c0-66.773,49.692-122.676,113.359-133.546l189.449-195.66l1.553-1.553c-9.317-13.976-13.976-29.504-13.976-43.48
		c0-45.033,37.268-85.407,85.407-85.407c45.033,0,83.854,37.269,83.854,85.407c0,48.139-38.822,85.407-83.854,85.407
		c-17.081,0-31.057-4.659-45.033-15.529l-85.407,225.165c17.081,23.293,26.398,49.691,26.398,79.196
		c0,74.537-60.562,135.099-135.099,135.099S760.901,956.562,760.901,882.024z M610.273,566.794
		c-17.081-17.082-24.845-35.716-24.845-59.009c0-45.033,37.269-85.407,85.407-85.407c45.033,0,83.854,37.269,83.854,85.407
		c0,48.139-38.821,85.407-83.854,85.407C647.542,593.192,627.355,583.875,610.273,566.794z M441.012,871.154
		c-17.082-17.081-24.846-37.269-24.846-60.561c0-48.139,38.822-85.407,83.855-85.407c48.139,0,85.407,37.269,85.407,85.407
		c0,48.139-37.269,85.407-85.407,85.407C476.728,896,458.094,888.236,441.012,871.154z M232.929,896
		c0,364.922,298.149,663.071,663.071,663.071c366.475,0,663.071-298.149,663.071-663.071c0-366.475-296.596-663.071-663.071-663.071
		C531.078,232.929,232.929,529.525,232.929,896z M71.432,1243.841C23.293,1133.588,0,1018.676,0,896
		c0-243.799,100.936-473.622,262.433-635.12C422.377,100.936,652.201,0,896,0c243.799,0,473.622,100.936,635.12,260.88
		C1691.064,422.378,1792,652.201,1792,896s-100.936,473.622-260.88,633.567C1369.622,1691.064,1139.799,1792,896,1792
		c-243.799,0-473.623-100.936-633.567-262.433C181.685,1450.371,118.017,1354.094,71.432,1243.841z"/>
</g>
<g id="内容">
	<g>
		<path d="M1791.427,1057h0.574v-64h-0.574c-4.912-139.896-41.892-271.631-103.82-388.084l0.353-0.203l-7.798-13.506
			c-5.016-9.047-10.184-17.996-15.5-26.847l-8.702-15.073l-0.402,0.231c-72.002-114.779-169.298-212.074-284.076-284.076
			l0.231-0.401l-15.083-8.708c-8.845-5.312-17.786-10.477-26.828-15.489l-13.515-7.803l-0.204,0.352
			c-116.452-61.927-248.188-98.908-388.083-103.819V129h-64v0.575c-139.896,4.911-271.631,41.892-388.083,103.819l-0.204-0.352
			l-13.518,7.804c-9.038,5.011-17.979,10.175-26.822,15.486l-15.086,8.71l0.232,0.401
			C305.741,337.445,208.445,434.74,136.443,549.519l-0.401-0.231l-8.701,15.071c-5.316,8.852-10.485,17.802-15.501,26.849
			l-7.798,13.506l0.352,0.203C42.467,721.369,5.486,853.104,0.574,993H0.001v64h0.573c5.814,165.635,56.606,319.818,140.508,450.75
			c0.112-0.031,0.225-0.06,0.337-0.091C93.36,1520.762,46.193,1535.076,0,1550.552v134.086
			C267.484,1590.375,572.393,1537,896.001,1537c323.608,0,628.514,53.375,895.999,147.637v-134.086
			c-46.206-15.48-93.388-29.799-141.461-42.904c0.127,0.035,0.255,0.068,0.382,0.103
			C1734.821,1376.818,1785.613,1222.635,1791.427,1057z M416.093,1447.877C323.26,1342.608,264.513,1206.563,257.144,1057h128.2
			c-0.654-10.583-0.99-21.252-0.99-31.999c0-10.748,0.336-21.418,0.99-32.001h-128.2c4.595-93.237,29.15-181.223,69.486-259.776
			l111.043,64.111c9.546-19.181,20.267-37.673,32.057-55.393l-111.042-64.11c49.217-76.018,114.127-140.927,190.144-190.145
			l64.111,111.042c17.719-11.79,36.212-22.51,55.392-32.057l-64.11-111.043c78.552-40.335,166.538-64.89,259.776-69.484v128.198
			c10.583-0.653,21.253-0.989,32-0.989c10.747,0,21.417,0.336,32,0.989V386.145c93.237,4.594,181.223,29.149,259.775,69.485
			l-64.11,111.042c19.18,9.546,37.673,20.267,55.393,32.057l64.11-111.042c76.018,49.218,140.926,114.127,190.144,190.145
			l-111.042,64.11c11.79,17.72,22.511,36.212,32.057,55.393l111.042-64.11c40.336,78.552,64.892,166.539,69.485,259.776h-128.197
			c0.653,10.583,0.989,21.253,0.989,32.001c0,10.747-0.336,21.416-0.989,31.999h128.198
			c-7.369,149.563-66.115,285.607-158.948,390.877c-153.936-25.413-314.635-38.876-479.908-38.876
			C730.727,1409.001,570.028,1422.464,416.093,1447.877z"/>
		<path d="M768.001,1217c0,70.692,57.307,128,128,128c70.692,0,128-57.308,128-128s-64-192-128-576
			C832.001,1025,768.001,1146.308,768.001,1217z M960.001,1217c0,35.346-28.654,64-64,64c-35.347,0-64-28.654-64-64s28.653-64,64-64
			C931.347,1153,960.001,1181.654,960.001,1217z"/>
	</g>
</g>
<g id="レイヤー_5" display="none">
</g>
<g id="Unicode" display="none">
	<text transform="matrix(1 0 0 1 437.0627 964.2812)" display="inline" fill="#ED1E79" font-family="'ArialMT'" font-size="256">U+F701</text>
</g>
</svg>
