<?xml version="1.0" encoding="utf-8"?>
<!-- Generator: Adobe Illustrator 17.0.0, SVG Export Plug-In . SVG Version: 6.00 Build 0)  -->
<!DOCTYPE svg PUBLIC "-//W3C//DTD SVG 1.1//EN" "http://www.w3.org/Graphics/SVG/1.1/DTD/svg11.dtd">
<svg version="1.1" xmlns="http://www.w3.org/2000/svg" xmlns:xlink="http://www.w3.org/1999/xlink" x="0px" y="0px" width="1792px"
	 height="1792px" viewBox="0 0 1792 1792" enable-background="new 0 0 1792 1792" xml:space="preserve">
<g id="Guide">
</g>
<g id="Font" display="none">
</g>
<g id="内容">
	<g>
		<circle cx="480" cy="480" r="224"/>
		<path d="M1280,1407.999c-70.692,0-128,57.308-128,128V1792h256v-256.001C1408,1465.307,1350.692,1407.999,1280,1407.999z"/>
		<path d="M0,0v1792h896V768h256v405.852c40.036-14.15,83.118-21.853,128-21.853c212.077,0,384,171.923,384,384V1792h128V0H0z
			 M1663.999,1197.344c-36.604-41.473-79.819-76.969-127.999-104.84V768l-512-256l-384,512L256,768v768h511.999
			c0,0.052,0.001,0.103,0.001,0.154v127.973l-640,0.127V128h1535.999V1197.344z"/>
	</g>
</g>
<g id="レイヤー_5" display="none">
</g>
<g id="Unicode" display="none">
	<text transform="matrix(1 0 0 1 422.8755 964.2812)" display="inline" fill="#ED1E79" font-family="'ArialMT'" font-size="256">U+F73A</text>
</g>
</svg>
