<?xml version="1.0" encoding="utf-8"?>
<!-- Generator: Adobe Illustrator 17.0.0, SVG Export Plug-In . SVG Version: 6.00 Build 0)  -->
<!DOCTYPE svg PUBLIC "-//W3C//DTD SVG 1.1//EN" "http://www.w3.org/Graphics/SVG/1.1/DTD/svg11.dtd">
<svg version="1.1" xmlns="http://www.w3.org/2000/svg" xmlns:xlink="http://www.w3.org/1999/xlink" x="0px" y="0px" width="1792px"
	 height="1792px" viewBox="0 0 1792 1792" enable-background="new 0 0 1792 1792" xml:space="preserve">
<g id="Guide">
</g>
<g id="Font" display="none">
</g>
<g id="内容">
	<path d="M1696,1280c-123.712,0-224-100.288-224-224s100.288-224,224-224c34.357,0,66.902,7.745,96,21.569V320h-533.569
		c13.824-29.098,21.569-61.643,21.569-96c0-123.712-100.288-224-224-224S832,100.288,832,224c0,34.357,7.745,66.903,21.569,96H320
		v533.568C290.902,839.745,258.357,832,224,832C100.288,832,0,932.288,0,1056s100.288,224,224,224c34.357,0,66.902-7.745,96-21.569
		V1792h533.569c-13.824-29.098-21.569-61.643-21.569-96c0-123.712,100.288-224,224-224s224,100.288,224,224
		c0,34.357-7.745,66.902-21.569,96H1792v-533.569C1762.902,1272.255,1730.357,1280,1696,1280z"/>
</g>
<g id="レイヤー_5" display="none">
</g>
<g id="Unicode" display="none">
	<text transform="matrix(1 0 0 1 415.8135 964.2812)" display="inline" fill="#ED1E79" font-family="'ArialMT'" font-size="256">U+F71D</text>
</g>
</svg>
