<?xml version="1.0" encoding="utf-8"?>
<!-- Generator: Adobe Illustrator 17.0.0, SVG Export Plug-In . SVG Version: 6.00 Build 0)  -->
<!DOCTYPE svg PUBLIC "-//W3C//DTD SVG 1.1//EN" "http://www.w3.org/Graphics/SVG/1.1/DTD/svg11.dtd">
<svg version="1.1" xmlns="http://www.w3.org/2000/svg" xmlns:xlink="http://www.w3.org/1999/xlink" x="0px" y="0px" width="1792px"
	 height="1792px" viewBox="0 0 1792 1792" enable-background="new 0 0 1792 1792" xml:space="preserve">
<g id="Guide">
</g>
<g id="Font" display="none">
</g>
<g id="内容">
	<g>
		<path d="M1792,512c0-282.77-286.538-512-640-512C821.784,0,549.992,200.072,515.669,456.956C556.026,451.072,597.575,448,640,448
			c379.268,0,688.479,245.385,703.427,552.693c22.135-5.543,43.758-12.014,64.786-19.371
			c64.653,73.443,152.839,132.675,255.787,170.678c-53.944-76.933-90.062-160.523-106.308-243.998
			C1700.736,814.104,1792,671.58,1792,512z"/>
		<path d="M640,512C286.538,512,0,741.231,0,1024c0,205.746,151.701,383.144,370.5,464.522
			C362.248,1591.318,322.781,1696.761,256,1792c141.453-52.217,255.024-144.519,317.985-258.693
			C595.688,1535.086,617.71,1536,640,1536c353.462,0,640-229.23,640-512S993.462,512,640,512z"/>
	</g>
</g>
<g id="レイヤー_5" display="none">
</g>
<g id="Unicode" display="none">
	<text transform="matrix(1 0 0 1 422.8755 964.2812)" display="inline" fill="#ED1E79" font-family="'ArialMT'" font-size="256">U+F72A</text>
</g>
</svg>
