<?xml version="1.0" encoding="utf-8"?>
<!-- Generator: Adobe Illustrator 17.0.0, SVG Export Plug-In . SVG Version: 6.00 Build 0)  -->
<!DOCTYPE svg PUBLIC "-//W3C//DTD SVG 1.1//EN" "http://www.w3.org/Graphics/SVG/1.1/DTD/svg11.dtd">
<svg version="1.1" xmlns="http://www.w3.org/2000/svg" xmlns:xlink="http://www.w3.org/1999/xlink" x="0px" y="0px" width="1792px"
	 height="1792px" viewBox="0 0 1792 1792" enable-background="new 0 0 1792 1792" xml:space="preserve">
<g id="Guide">
</g>
<g id="Font" display="none">
	<path display="inline" d="M1792,1344l-448-448l448-448V1344z M1792,149.333H0l896,900.48L1792,149.333z M448,896L0,1344V448
		L448,896z M1792,1642.667H0l597.336-597.333L896,1344l298.669-298.667L1792,1642.667z"/>
</g>
<g id="内容">
	<path d="M1792,1088l-255.997-896H256L0,1088v448c0,35.346,28.653,64,64,64h1664.003c35.346,0,64-28.654,64-64v-448H1792z
		 M1184,1024c-17.674,0-32,14.327-32,32v96H640v-96c0-17.673-14.326-32-32-32H128l192-768h1152l192,768H1184z"/>
</g>
<g id="レイヤー_5" display="none">
</g>
<g id="Unicode" display="none">
	<text transform="matrix(1 0 0 1 415.8135 964.2812)" display="inline" fill="#ED1E79" font-family="'ArialMT'" font-size="256">U+F70D</text>
</g>
</svg>
