<?xml version="1.0" encoding="utf-8"?>
<!-- Generator: Adobe Illustrator 17.0.0, SVG Export Plug-In . SVG Version: 6.00 Build 0)  -->
<!DOCTYPE svg PUBLIC "-//W3C//DTD SVG 1.1//EN" "http://www.w3.org/Graphics/SVG/1.1/DTD/svg11.dtd">
<svg version="1.1" xmlns="http://www.w3.org/2000/svg" xmlns:xlink="http://www.w3.org/1999/xlink" x="0px" y="0px" width="1792px"
	 height="1792px" viewBox="0 0 1792 1792" enable-background="new 0 0 1792 1792" xml:space="preserve">
<g id="Guide">
</g>
<g id="Font" display="none">
	<path display="inline" d="M263.573,262.827C235.2,291.2,220.267,327.04,220.267,368.853c0,83.627,67.2,150.827,150.827,150.827
		c82.133,0,149.333-67.2,149.333-150.827c0-83.626-67.2-150.827-149.333-150.827C329.28,218.027,293.44,232.96,263.573,262.827z
		 M1044.587,1792L0.747,746.667V37.333C0.747,17.92,18.667,0,38.08,0h707.84l1045.333,1045.333L1044.587,1792z"/>
</g>
<g id="内容">
	<path d="M1731.311,658.179l-216.875-24.169l-337.942-37.661l-50.24-110.966c-0.001-0.003-0.002-0.005-0.003-0.007l-90.004-198.791
		L946.241,87.786c-27.633-61.024-72.848-61.024-100.481,0l-90.007,198.799L665.75,485.376c-0.002,0.002-0.002,0.004-0.003,0.007
		L615.505,596.35L277.563,634.01L60.69,658.179c-66.583,7.419-80.56,50.421-31.063,95.56l161.259,147.037l161.249,147.028
		c0.004,0.002,0.006,0.005,0.009,0.009l90.006,82.068l-68.611,333.04l-44.033,213.729c-13.52,65.622,23.062,92.2,81.294,59.065
		l189.662-107.923l189.66-107.923c0,0,0,0,0.001,0L896,1459.623l105.876,60.247l0,0l189.661,107.923l189.662,107.923
		c58.226,33.132,94.807,6.562,81.299-59.044l-44.036-213.75l-44.033-213.728c-0.001-0.006-0.003-0.012-0.003-0.019l-24.576-119.292
		l90.012-82.073c0.001-0.002,0.002-0.002,0.003-0.004l161.249-147.028l161.254-147.034
		C1811.871,708.602,1797.896,665.599,1731.311,658.179z"/>
</g>
<g id="レイヤー_5" display="none">
</g>
<g id="Unicode" display="none">
	<text transform="matrix(1 0 0 1 437.0625 964.2812)" display="inline" fill="#ED1E79" font-family="'ArialMT'" font-size="256">U+F708</text>
</g>
</svg>
