<?xml version="1.0" encoding="utf-8"?>
<!-- Generator: Adobe Illustrator 17.0.0, SVG Export Plug-In . SVG Version: 6.00 Build 0)  -->
<!DOCTYPE svg PUBLIC "-//W3C//DTD SVG 1.1//EN" "http://www.w3.org/Graphics/SVG/1.1/DTD/svg11.dtd">
<svg version="1.1" xmlns="http://www.w3.org/2000/svg" xmlns:xlink="http://www.w3.org/1999/xlink" x="0px" y="0px" width="1792px"
	 height="1792px" viewBox="0 0 1792 1792" enable-background="new 0 0 1792 1792" xml:space="preserve">
<g id="Guide">
</g>
<g id="Font" display="none">
</g>
<g id="内容">
	<g>
		<path fill-rule="evenodd" clip-rule="evenodd" d="M1344,742.998V704h188.199c2.508-21.051,3.801-42.399,3.801-64
			c0-353.462-343.846-640-768-640S0,286.538,0,640c0,231.591,147.615,434.447,368.712,546.805
			C357.484,1283.768,318.828,1382.399,256,1472c124.4-45.922,227.231-122.85,293.046-218.388
			c43.149,10.676,87.887,18.273,133.844,22.496L1280,678.998L1344,742.998z"/>
		<path fill-rule="evenodd" clip-rule="evenodd" d="M1600,1087.999V768h-192v128l-128.001-128.001L767.998,1280H896v511.999h768
			V1280h128.001L1600,1087.999z M1216,1664h-192v-320h192V1664z M1536,1664h-192v-320h192V1664z"/>
	</g>
</g>
<g id="ラベル">
</g>
<g id="Unicode" display="none">
	<text transform="matrix(1 0 0 1 422.876 964.2812)" display="inline" fill="#ED1E79" font-family="'ArialMT'" font-size="256">U+F72B</text>
</g>
</svg>
