<?xml version="1.0" encoding="utf-8"?>
<!-- Generator: Adobe Illustrator 17.0.0, SVG Export Plug-In . SVG Version: 6.00 Build 0)  -->
<!DOCTYPE svg PUBLIC "-//W3C//DTD SVG 1.1//EN" "http://www.w3.org/Graphics/SVG/1.1/DTD/svg11.dtd">
<svg version="1.1" xmlns="http://www.w3.org/2000/svg" xmlns:xlink="http://www.w3.org/1999/xlink" x="0px" y="0px" width="1792px"
	 height="1792px" viewBox="0 0 1792 1792" enable-background="new 0 0 1792 1792" xml:space="preserve">
<g id="Guide">
</g>
<g id="Font" display="none">
	<path display="inline" d="M560.39,895.22c0-182.634,149.854-334.049,335.61-334.049s335.61,151.414,335.61,334.049
		c0,185.756-149.854,335.609-335.61,335.609S560.39,1080.976,560.39,895.22z M0,895.22c0,34.341,3.122,73.366,9.366,115.512
		l235.707,59.317l3.122,9.366c14.049,51.512,34.341,99.902,59.317,145.171l4.683,7.805l-124.878,209.171
		c46.829,60.878,101.463,115.512,163.902,163.902l207.61-126.439l7.805,4.683c46.829,26.537,95.22,46.829,146.732,60.878
		l7.805,3.122l59.317,235.707c42.146,4.683,79.61,7.805,115.512,7.805c28.098,0,67.122-3.122,115.512-7.805l59.317-235.707
		l9.366-3.122c48.39-14.049,96.781-34.341,145.171-60.878l7.805-4.683l209.171,126.439c57.756-45.268,112.39-99.902,162.342-163.902
		l-124.878-209.171l4.683-7.805c24.976-45.269,45.268-93.659,60.878-145.171l1.561-9.366l237.268-59.317
		c4.683-42.146,7.805-79.61,7.805-115.512c0-29.659-3.122-67.122-7.805-113.952l-237.268-59.317l-1.561-9.366
		c-17.171-53.073-37.463-101.463-60.878-145.171l-4.683-7.805l124.878-209.17c-45.268-60.879-99.902-115.513-162.342-163.903
		l-209.171,126.439l-7.805-4.683c-46.829-26.537-95.22-46.829-145.171-60.878l-9.366-1.561L1011.512,8.585
		C969.366,3.902,931.902,0.78,896,0.78c-28.098,0-67.122,3.122-115.512,7.805l-59.317,237.268l-7.805,1.561
		c-51.512,14.049-101.464,34.341-146.732,60.878l-7.805,4.683l-207.61-126.439c-60.878,48.39-115.512,103.024-163.902,163.903
		l124.878,209.17l-4.683,7.805c-26.537,48.39-45.268,96.781-59.317,145.171l-3.122,9.366L9.366,781.268
		C3.122,831.22,0,868.683,0,895.22z"/>
</g>
<g id="内容">
	<path d="M192,0v1792h960.839L1600,1344.839V0H192z M1088,1727.58v-447.161h447.16L1088,1727.58z"/>
</g>
<g id="ラベル">
</g>
<g id="Unicode" display="none">
	<text transform="matrix(1 0 0 1 437.0625 964.2812)" display="inline" fill="#ED1E79" font-family="'ArialMT'" font-size="256">U+F710</text>
</g>
</svg>
