<?xml version="1.0" encoding="utf-8"?>
<!-- Generator: Adobe Illustrator 17.0.0, SVG Export Plug-In . SVG Version: 6.00 Build 0)  -->
<!DOCTYPE svg PUBLIC "-//W3C//DTD SVG 1.1//EN" "http://www.w3.org/Graphics/SVG/1.1/DTD/svg11.dtd">
<svg version="1.1" xmlns="http://www.w3.org/2000/svg" xmlns:xlink="http://www.w3.org/1999/xlink" x="0px" y="0px" width="1792px"
	 height="1792px" viewBox="0 0 1792 1792" enable-background="new 0 0 1792 1792" xml:space="preserve">
<g id="Guide">
</g>
<g id="Font" display="none">
</g>
<g id="内容">
	<path d="M1408,704c0-106.039,85.961-192,192-192V224.039c0-0.014,0-0.026,0-0.039s0-0.025,0-0.039
		C1599.979,100.268,1499.699,0,1376,0H255.999v1792H1600V896C1493.961,896,1408,810.039,1408,704z M832,384h512v128H832V384z
		 M832,640h512v128H832V640z M832,1024h512v128H832V1024z M832,1280h512v128H832V1280z M448,384h256v384H448V384z M448,1024h256v384
		H448V1024z M383.999,1728h-64v-64h64V1728z M511.999,1728h-64v-64h64V1728z M639.999,1728h-64v-64h64V1728z M767.999,1728h-64v-64
		h64V1728z M895.999,1728h-64v-64h64V1728z M1023.999,1728h-64v-64h64V1728z M1151.999,1728h-64v-64h64V1728z M1279.999,1728h-64
		v-64h64V1728z M1407.999,1728h-64v-64h64V1728z M1471.999,1664h64v64h-64V1664z"/>
</g>
<g id="ラベル">
</g>
<g id="Unicode" display="none">
	<text transform="matrix(1 0 0 1 415.8135 964.2812)" display="inline" fill="#ED1E79" font-family="'ArialMT'" font-size="256">U+F71C</text>
</g>
</svg>
