<?xml version="1.0" encoding="utf-8"?>
<!-- Generator: Adobe Illustrator 17.0.0, SVG Export Plug-In . SVG Version: 6.00 Build 0)  -->
<!DOCTYPE svg PUBLIC "-//W3C//DTD SVG 1.1//EN" "http://www.w3.org/Graphics/SVG/1.1/DTD/svg11.dtd">
<svg version="1.1" xmlns="http://www.w3.org/2000/svg" xmlns:xlink="http://www.w3.org/1999/xlink" x="0px" y="0px" width="1792px"
	 height="1792px" viewBox="0 0 1792 1792" enable-background="new 0 0 1792 1792" xml:space="preserve">
<g id="Guide">
</g>
<g id="Font" display="none">
	<path display="inline" d="M1288.747,1344v149.333h261.333V1344H1288.747z M1717.333,1792H74.667v-597.333H806.4l-433.067-448H672V0
		h448v746.667h298.667l-433.066,448h731.733V1792z"/>
</g>
<g id="内容">
	<g>
		<path d="M0,960c0-70.692,57.308-128,128-128h64v-64h64V128h896V0H0v1024h0V960z"/>
		<polygon points="576,832 576,320 1472,320 1472,192 320,192 320,768 384,768 384,832 		"/>
		<path d="M640,384v448h64v-64h192v64h64c70.692,0,128,57.308,128,128v64v64v576.001c0,49.178-18.499,94.029-48.905,127.999h305.744
			L1792,1344.839V384H640z M1280,1728v-448h448L1280,1728z"/>
		<path d="M0,1664c0,70.692,57.308,128,128,128h768c70.692,0,128-57.308,128-128v-576H0V1664z"/>
	</g>
</g>
<g id="ラベル">
</g>
<g id="Unicode" display="none">
	<text transform="matrix(1 0 0 1 437.0625 964.2812)" display="inline" fill="#ED1E79" font-family="'ArialMT'" font-size="256">U+F718</text>
</g>
</svg>
