<?xml version="1.0" encoding="utf-8"?>
<!-- Generator: Adobe Illustrator 17.0.0, SVG Export Plug-In . SVG Version: 6.00 Build 0)  -->
<!DOCTYPE svg PUBLIC "-//W3C//DTD SVG 1.1//EN" "http://www.w3.org/Graphics/SVG/1.1/DTD/svg11.dtd">
<svg version="1.1" xmlns="http://www.w3.org/2000/svg" xmlns:xlink="http://www.w3.org/1999/xlink" x="0px" y="0px" width="1792px"
	 height="1792px" viewBox="0 0 1792 1792" enable-background="new 0 0 1792 1792" xml:space="preserve">
<g id="Guide">
</g>
<g id="Font" display="none">
	<g display="inline">
		<g>
			<path fill="#231815" d="M1111.265,903.807v-0.666c0-50.073,38.245-91.316,91.929-91.316c33.075,0,53.683,11.124,70.036,29.45
				l-30.401,32.743c-11.124-11.796-22.254-19.313-39.938-19.313c-24.869,0-42.56,21.925-42.56,47.789v0.648
				c0,26.836,17.334,48.451,44.503,48.451c16.716,0,28.149-7.208,40.253-18.662l29.118,29.445
				c-16.965,18.647-36.605,32.077-71.623,32.077C1149.873,994.452,1111.265,953.868,1111.265,903.807z"/>
			<path fill="#231815" d="M1326.249,815.108h49.786v24.866c11.433-14.746,26.503-28.149,51.68-28.149
				c22.914,0,40.248,10.149,49.429,27.807c15.379-17.993,33.735-27.807,57.623-27.807c36.968,0,59.222,22.254,59.222,64.469v114.23
				h-49.737v-97.877c0-23.553-10.459-35.654-29.124-35.654c-18.659,0-30.14,12.102-30.14,35.654v97.877h-49.738v-97.877
				c0-23.553-10.458-35.654-29.124-35.654c-18.659,0-30.092,12.102-30.092,35.654v97.877h-49.786V815.108z"/>
			<path fill="#231815" d="M1649.615,967.28l21.28-32.712c18.968,13.742,38.964,20.941,55.323,20.941
				c14.405,0,20.917-5.253,20.917-13.094v-0.666c0-10.8-17.019-14.389-36.302-20.287c-24.56-7.196-52.347-18.661-52.347-52.703
				v-0.636c0-35.666,28.761-55.633,64.142-55.633c22.248,0,46.446,7.511,65.42,20.273l-18.974,34.383
				c-17.322-10.153-34.656-16.383-47.426-16.383c-12.146,0-18.35,5.229-18.35,12.126v0.639c0,9.826,16.71,14.407,35.684,20.949
				c24.56,8.171,53.018,19.967,53.018,52.044v0.665c0,38.932-29.123,56.601-67.119,56.601
				C1700.375,993.786,1672.844,985.601,1649.615,967.28z"/>
		</g>
		<path fill="#231815" d="M153.818,742.353C68.857,742.353,0,811.231,0,896.165c0,84.979,68.857,153.842,153.818,153.842
			c84.956,0,153.866-68.863,153.866-153.842C307.684,811.231,238.774,742.353,153.818,742.353z M209.549,947.974
			c-19.636,24.506-45.426,29.329-66.037,28.042c-27.07-1.664-55.888-25.912-57.067-51.22c-0.871-19.999,9.178-47.991,47.274-51.598
			c9.591-0.903,20.409,1.949,22.355,12.25c1.899,10.256-7.689,15.946-12.921,16.329c-18.148,1.411-25.172,10.922-23.172,23.018
			c1.949,11.585,15.382,17.055,27.739,17.379c11.585,0.341,30.045-4.971,39.324-19.037c17.69-26.919,8.049-50.331-1.999-61.611
			c-14.152-15.845-33.738-25.276-66.807-9.894c-7.847,3.666-15.795,3.072-21.946-1.952c-3.488-2.87-5.897-9.588-4.409-15.195
			c1.281-4.849,3.896-9.466,12.149-14c41.84-23.071,82.037-7.431,103.267,15.795C230.674,861.836,241.593,908.079,209.549,947.974z"
			/>
		<path fill="#231815" d="M666.226,912.061v-0.591c0-42.354,32.915-79.114,77.932-79.114c44.761,0,77.369,36.144,77.369,78.546
			v0.568c0,42.375-32.915,79.11-77.931,79.11C698.835,990.58,666.226,954.433,666.226,912.061z M805.84,912.061v-0.591
			c0-36.424-27.275-65.5-62.243-65.5c-35.842,0-61.631,29.349-61.631,64.932v0.568c0,36.451,27.225,65.499,62.193,65.499
			C780.05,976.969,805.84,947.614,805.84,912.061z"/>
		<path fill="#231815" d="M605.879,753.753c0.05-0.36,0.103-0.713,0.103-1.1c0-4.284-3.485-7.766-7.793-7.766
			c-4.258,0-7.69,3.434-7.743,7.69h-0.101v234.31h0.051c0,0,0,0.03,0,0.077c0,4.281,3.485,7.764,7.743,7.764
			c4.305,0,7.791-3.483,7.791-7.764c0-0.178-0.05-0.353-0.05-0.541V753.753z"/>
		<path fill="#231815" d="M1007.642,925.286c-0.309,13.204-24.203,31.453-48.65,31.711c-27.742,0.235-61.325-18.1-62.044-56.985
			c-0.615-36.248,33.117-68.325,64.552-68.174c25.273,0.155,39.321,9.671,45.578,14.131c0,0,1.331,1.129,2.157,1.539
			c0.766,0.431,2.305,0.978,3.636,0.978c4.308,0,7.797-3.47,7.797-7.776c0-2.531-1.231-4.789-3.126-6.207v-0.018
			c0,0-1.794-2.184-14.618-8.593c-6.917-3.744-23.276-9.585-42.809-9.71c-32.558-0.205-78.294,31.072-78.294,85.059
			c0,49.731,47.378,71.062,77.016,70.877c32.35-0.175,49.268-19.841,49.268-19.841s0.559,28.354-0.974,41.097
			c-1.593,13.352-11.023,36.453-39.992,38.171c-22.819,1.361-35.74-10.001-49.633-32.202l-0.048,0.029
			c-1.283-2.439-3.847-4.13-6.819-4.13c-4.255,0-7.641,3.488-7.746,7.79c-0.047,0.722,0.259,3.028,1.028,4.564
			c0,0,18.406,42.001,64.086,40.102c31.019-1.31,51.478-23.305,54.705-53.383c2.312-21.58,0.826-63.676,0.571-69.469
			c0-0.053,0-0.071,0-0.101c0-4.311-3.488-7.794-7.797-7.794c-4.302,0-7.791,3.483-7.791,7.794
			C1007.696,924.748,1007.696,924.691,1007.642,925.286z"/>
		<path fill="#231815" d="M436.684,833.993c-0.05,0-0.154-0.053-0.258-0.053c-0.051,0-0.155,0.036-0.205,0.036
			c-0.205,0-0.461,0-0.666,0v0.074c-3.844,0.437-6.869,3.685-6.869,7.69c0,4.288,3.435,7.767,7.74,7.767
			c0.565,0,1.744,0.074,2.309-0.03c46.707,0,75.931,26.764,75.931,60.965c-0.82,36.813-32.606,65.705-63.678,65.833
			c-29.174,0.54-62.859-24.736-64.448-66.962c-0.767-19.331-1.281-44.473-1.281-44.473V749.807l0,0c0-0.021,0-0.054,0-0.054
			c0-4.273-3.488-7.761-7.796-7.761c-4.252,0-7.743,3.488-7.743,7.761c0,0,0,0.033,0,0.054l0,0V864.84
			c0,0,1.028,38.248,1.182,44.909c0.871,44.919,34.095,80.775,79.575,81.443c45.221-0.668,78.597-36.914,78.597-80.65
			C529.074,868.735,495.439,833.993,436.684,833.993z"/>
	</g>
</g>
<g id="内容">
	<path d="M1373.549,640v-0.133h-110.774L1152,448l110.774-191.867h110.774V256h375.33C1676.976,104.646,1522.712,0,1344,0
		c-247.423,0-448,200.576-448,448c0,56.029,10.286,109.655,29.072,159.094l-740.944,740.945L3.494,1528.672L0,1532.166l2.508,2.535
		C0.86,1545.652,0,1556.862,0,1568.272C0,1691.834,100.166,1792,223.727,1792c10.577,0,20.978-0.751,31.164-2.171l2.148,2.171
		l2.935-2.938l184.583-184.783l737.612-738.41C1232.364,885.323,1286.934,896,1344,896c178.712,0,332.976-104.646,404.879-256
		H1373.549z"/>
</g>
<g id="ラベル">
</g>
<g id="Unicode" display="none">
	<text transform="matrix(1 0 0 1 437.0625 964.2812)" display="inline" fill="#ED1E79" font-family="'ArialMT'" font-size="256">U+F700</text>
</g>
</svg>
