<?xml version="1.0" encoding="utf-8"?>
<!-- Generator: Adobe Illustrator 17.0.0, SVG Export Plug-In . SVG Version: 6.00 Build 0)  -->
<!DOCTYPE svg PUBLIC "-//W3C//DTD SVG 1.1//EN" "http://www.w3.org/Graphics/SVG/1.1/DTD/svg11.dtd">
<svg version="1.1" xmlns="http://www.w3.org/2000/svg" xmlns:xlink="http://www.w3.org/1999/xlink" x="0px" y="0px" width="1792px"
	 height="1792px" viewBox="0 0 1792 1792" enable-background="new 0 0 1792 1792" xml:space="preserve">
<g id="Guide">
</g>
<g id="Font" display="none">
</g>
<g id="内容">
	<g>
		<circle cx="448" cy="448" r="128"/>
		<path d="M192,1088h767.999c0-178.712,104.646-332.977,256.001-404.879v-60.576L1024,448L512,832L192,622.545V1088z"/>
		<path d="M1407.999,704c-212.078,0-384,171.922-384,384c0,56.346,12.135,109.857,33.938,158.063l-162.493,162.492l-190.888,190.889
			c-0.002,0.276-0.012,0.552-0.012,0.828c0,0.093,0.005,0.184,0.005,0.276c0.148,105.668,85.778,191.299,191.446,191.447
			c0.004,0,0.006,0,0.009,0l191.991-191.992l161.941-161.94c48.206,21.801,101.717,33.937,158.062,33.937
			c212.078,0,384.001-171.924,384.001-384C1792,875.922,1620.077,704,1407.999,704z M1408,1281c-106.592,0-193-86.409-193-193
			c0-106.592,86.408-193,193-193c106.589,0,193,86.408,193,193C1601,1194.591,1514.589,1281,1408,1281z"/>
		<path d="M983.491,1231.507c-8.634-25.549-15.03-52.128-18.948-79.507H128V128h1152v530.553
			c40.557-12.07,83.521-18.553,127.999-18.553c0,0,0,0,0,0l0-640H0v1280h934.998L983.491,1231.507z"/>
	</g>
</g>
<g id="ラベル">
</g>
<g id="Unicode" display="none">
	<text transform="matrix(1 0 0 1 437.0635 964.2812)" display="inline" fill="#ED1E79" font-family="'ArialMT'" font-size="256">U+F733</text>
</g>
</svg>
