<?xml version="1.0" encoding="utf-8"?>
<!-- Generator: Adobe Illustrator 17.0.0, SVG Export Plug-In . SVG Version: 6.00 Build 0)  -->
<!DOCTYPE svg PUBLIC "-//W3C//DTD SVG 1.1//EN" "http://www.w3.org/Graphics/SVG/1.1/DTD/svg11.dtd">
<svg version="1.1" xmlns="http://www.w3.org/2000/svg" xmlns:xlink="http://www.w3.org/1999/xlink" x="0px" y="0px" width="1792px"
	 height="1792px" viewBox="0 0 1792 1792" enable-background="new 0 0 1792 1792" xml:space="preserve">
<g id="Guide">
</g>
<g id="Font" display="none">
</g>
<g id="内容">
	<g>
		<path d="M1408,704c-212.078,0-384,171.922-384,384c0,56.346,12.135,109.858,33.937,158.064l-162.492,162.491l-190.889,190.889
			c-0.001,0.277-0.011,0.551-0.011,0.828c0,0.092,0.003,0.184,0.004,0.276c0.148,105.668,85.778,191.299,191.447,191.448h0.008
			l191.992-191.993l161.94-161.94c48.205,21.8,101.717,33.937,158.063,33.937c212.077,0,384-171.924,384-384
			C1792,875.922,1620.077,704,1408,704z M1408,1281c-106.592,0-193-86.409-193-193c0-106.592,86.408-193,193-193
			c106.59,0,193,86.408,193,193C1601,1194.591,1514.59,1281,1408,1281z"/>
		<path d="M730.075,1407.999c0.002,0.001,0.002,0.001,0.002,0.001l76.923,0l176.49-176.492C968.263,1186.455,960,1138.193,960,1088
			c0-49.89,8.159-97.873,23.21-142.693c-7.385-3.652-13.942-7.145-19.529-10.441c-6.48-16.7-36.293-62.33-41.561-86.38
			c1.715-17.88-0.846-78.612,9.78-100.233c57.816-68.82,127.911-170.464,137.256-368.248C1076.49,224.789,970.162,0,731.435,0
			c-0.456,0-0.907,0.021-1.36,0.032C729.622,0.021,729.172,0,728.715,0C489.99,0,383.661,224.789,390.994,380.004
			c9.345,197.784,79.44,299.429,137.259,368.248c10.625,21.621,8.067,82.353,9.777,100.233c-5.267,24.05-35.08,69.68-41.561,86.38
			c-88.364,52.142-418.963,153.23-437.598,161.349c-18.638,8.121-50.216,31.341-58.869,54.562V1408h730.072
			C730.075,1408,730.075,1408,730.075,1407.999z"/>
	</g>
</g>
<g id="ラベル">
</g>
<g id="Unicode" display="none">
	<text transform="matrix(1 0 0 1 422.876 964.2812)" display="inline" fill="#ED1E79" font-family="'ArialMT'" font-size="256">U+F71E</text>
</g>
</svg>
