<?xml version="1.0" encoding="utf-8"?>
<!-- Generator: Adobe Illustrator 17.0.0, SVG Export Plug-In . SVG Version: 6.00 Build 0)  -->
<!DOCTYPE svg PUBLIC "-//W3C//DTD SVG 1.1//EN" "http://www.w3.org/Graphics/SVG/1.1/DTD/svg11.dtd">
<svg version="1.1" xmlns="http://www.w3.org/2000/svg" xmlns:xlink="http://www.w3.org/1999/xlink" x="0px" y="0px" width="1792px"
	 height="1792px" viewBox="0 0 1792 1792" enable-background="new 0 0 1792 1792" xml:space="preserve">
<g id="Guide">
</g>
<g id="Font" display="none">
</g>
<g id="内容">
	<path d="M1600,1276.203V896H949.336V758.324c186.614-24.545,330.667-184.209,330.667-377.523C1280.003,170.49,1109.511,0,899.2,0
		S518.399,170.49,518.399,380.801c0,191.098,140.765,349.312,324.261,376.625V896H192v381.746
		C81.298,1308.312,0,1409.732,0,1530.156C0,1674.769,117.23,1792,261.844,1792c144.616,0,261.845-117.231,261.845-261.844
		c0-124.625-87.066-228.903-203.688-255.354V1024h522.66v249.755c-119.032,24.636-208.504,130.067-208.504,256.401
		c0,144.612,117.231,261.844,261.847,261.844c144.611,0,261.843-117.231,261.843-261.844c0-126.336-89.474-231.769-208.51-256.402
		V1024H1472v252.203c-113.674,28.559-197.845,131.42-197.845,253.953c0,144.612,117.231,261.844,261.845,261.844
		s261.845-117.231,261.845-261.844C1797.845,1407.623,1713.674,1304.762,1600,1276.203z"/>
</g>
<g id="ラベル">
</g>
<g id="Unicode" display="none">
	<text transform="matrix(1 0 0 1 437.0635 964.2812)" display="inline" fill="#ED1E79" font-family="'ArialMT'" font-size="256">U+F735</text>
</g>
</svg>
