<?xml version="1.0" encoding="utf-8"?>
<!-- Generator: Adobe Illustrator 17.0.0, SVG Export Plug-In . SVG Version: 6.00 Build 0)  -->
<!DOCTYPE svg PUBLIC "-//W3C//DTD SVG 1.1//EN" "http://www.w3.org/Graphics/SVG/1.1/DTD/svg11.dtd">
<svg version="1.1" xmlns="http://www.w3.org/2000/svg" xmlns:xlink="http://www.w3.org/1999/xlink" x="0px" y="0px" width="1792px"
	 height="1792px" viewBox="0 0 1792 1792" enable-background="new 0 0 1792 1792" xml:space="preserve">
<g id="Guide">
</g>
<g id="Font" display="none">
</g>
<g id="内容">
	<g>
		<path d="M1344,0c-203.054,0-374.556,135.09-429.535,320.299c140.275,4.419,267.897,58.99,365.535,146.381v-23.228V128h128v293.49
			l128,128L1445.49,640l-85.916-85.916c67.241,91.015,108.324,202.529,112.133,323.449C1656.913,822.552,1792,651.053,1792,448
			C1792,200.576,1591.424,0,1344,0z"/>
		<path d="M896,448c-203.055,0-374.556,135.09-429.535,320.299C606.74,772.718,734.362,827.29,832,914.681V832V576h128v256h128v128
			H960h-82.68c87.391,97.638,141.963,225.26,146.381,365.535C1208.91,1270.556,1344,1099.055,1344,896
			C1344,648.576,1143.424,448,896,448z"/>
		<path d="M448,896C200.576,896,0,1096.576,0,1344s200.576,448,448,448s448-200.576,448-448S695.424,896,448,896z M512,1370.51
			L474.51,1408h-31.059H384v-59.451v-31.059V1024h128v165.49l37.49-37.49l90.51,90.51L512,1370.51z"/>
	</g>
</g>
<g id="ラベル">
</g>
<g id="Unicode" display="none">
	<text transform="matrix(1 0 0 1 437.0625 964.2812)" display="inline" fill="#ED1E79" font-family="'ArialMT'" font-size="256">U+F738</text>
</g>
</svg>
