<?xml version="1.0" encoding="utf-8"?>
<!-- Generator: Adobe Illustrator 17.0.0, SVG Export Plug-In . SVG Version: 6.00 Build 0)  -->
<!DOCTYPE svg PUBLIC "-//W3C//DTD SVG 1.1//EN" "http://www.w3.org/Graphics/SVG/1.1/DTD/svg11.dtd">
<svg version="1.1" xmlns="http://www.w3.org/2000/svg" xmlns:xlink="http://www.w3.org/1999/xlink" x="0px" y="0px" width="1792px"
	 height="1792px" viewBox="0 0 1792 1792" enable-background="new 0 0 1792 1792" xml:space="preserve">
<g id="Guide">
</g>
<g id="Font" display="none">
	<path display="inline" d="M1303.272,407.272V81.455c0-45.615,35.84-81.455,81.455-81.455h325.818C1756.16,0,1792,35.84,1792,81.455
		v325.818c0,45.615-35.84,81.455-81.455,81.455h-325.818C1339.113,488.728,1303.272,452.887,1303.272,407.272z M1303.272,1058.909
		V733.091c0-45.614,35.84-81.455,81.455-81.455h325.818c45.614,0,81.455,35.84,81.455,81.455v325.818
		c0,45.614-35.84,81.455-81.455,81.455h-325.818C1339.113,1140.364,1303.272,1104.523,1303.272,1058.909z M1303.272,1710.545
		v-325.818c0-45.615,35.84-81.455,81.455-81.455h325.818c45.614,0,81.455,35.84,81.455,81.455v325.818
		c0,45.614-35.84,81.455-81.455,81.455h-325.818C1339.113,1792,1303.272,1756.16,1303.272,1710.545z M651.635,407.272V81.455
		C651.635,35.84,687.476,0,733.091,0h325.818c45.613,0,81.454,35.84,81.454,81.455v325.818c0,45.615-35.841,81.455-81.454,81.455
		H733.091C687.476,488.728,651.635,452.887,651.635,407.272z M651.635,1058.909V733.091c0-45.614,35.841-81.455,81.456-81.455
		h325.818c45.613,0,81.454,35.84,81.454,81.455v325.818c0,45.614-35.841,81.455-81.454,81.455H733.091
		C687.476,1140.364,651.635,1104.523,651.635,1058.909z M651.635,1710.545v-325.818c0-45.615,35.841-81.455,81.456-81.455h325.818
		c45.613,0,81.454,35.84,81.454,81.455v325.818c0,45.614-35.841,81.455-81.454,81.455H733.091
		C687.476,1792,651.635,1756.16,651.635,1710.545z M0,407.272V81.455C0,35.84,35.84,0,81.454,0h325.818
		c45.615,0,81.455,35.84,81.455,81.455v325.818c0,45.615-35.84,81.455-81.455,81.455H81.454C35.84,488.728,0,452.887,0,407.272z
		 M0,1058.909V733.091c0-45.614,35.84-81.455,81.454-81.455h325.818c45.615,0,81.455,35.84,81.455,81.455v325.818
		c0,45.614-35.84,81.455-81.455,81.455H81.454C35.84,1140.364,0,1104.523,0,1058.909z M0,1710.545v-325.818
		c0-45.615,35.84-81.455,81.454-81.455h325.818c45.615,0,81.455,35.84,81.455,81.455v325.818c0,45.614-35.84,81.455-81.455,81.455
		H81.454C35.84,1792,0,1756.16,0,1710.545z"/>
</g>
<g id="内容">
	<g>
		<circle cx="896" cy="960" r="384"/>
		<path d="M1664,384h-256c0-141.385-114.615-256-256-256H640c-141.385,0-256,114.615-256,256H128C57.308,384,0,441.308,0,512v1024
			c0,70.692,57.308,128,128,128h1536c70.692,0,128-57.308,128-128V512C1792,441.308,1734.692,384,1664,384z M896,1536
			c-318.116,0-576-257.884-576-576s257.884-576,576-576c318.115,0,576,257.884,576,576S1214.115,1536,896,1536z"/>
	</g>
</g>
<g id="ラベル">
</g>
<g id="Unicode" display="none">
	<text transform="matrix(1 0 0 1 437.063 964.2812)" display="inline" fill="#ED1E79" font-family="'ArialMT'" font-size="256">U+F712</text>
</g>
</svg>
