<?xml version="1.0" encoding="utf-8"?>
<!-- Generator: Adobe Illustrator 17.0.0, SVG Export Plug-In . SVG Version: 6.00 Build 0)  -->
<!DOCTYPE svg PUBLIC "-//W3C//DTD SVG 1.1//EN" "http://www.w3.org/Graphics/SVG/1.1/DTD/svg11.dtd">
<svg version="1.1" xmlns="http://www.w3.org/2000/svg" xmlns:xlink="http://www.w3.org/1999/xlink" x="0px" y="0px" width="1792px"
	 height="1792px" viewBox="0 0 1792 1792" enable-background="new 0 0 1792 1792" xml:space="preserve">
<g id="Guide">
</g>
<g id="Font" display="none">
</g>
<g id="内容">
	<g>
		<path d="M896,0H479.999C426.98,0,384,42.98,384,96v32h343.001l917.837,917.837L1792,896L896,0z"/>
		<path d="M287.999,192C234.98,192,192,234.98,192,288v32h343.001l917.837,917.837L1600,1088L704,192H287.999z"/>
		<path d="M95.999,384C42.98,384,0,426.98,0,480v406.856L905.143,1792L1408,1280L512,384H95.999z M288,768
			c-53.02,0-96-42.981-96-96.001C192,618.981,234.98,576,288,576s96,42.981,96,95.999C384,725.019,341.02,768,288,768z"/>
	</g>
</g>
<g id="ラベル">
</g>
<g id="Unicode" display="none">
	<text transform="matrix(1 0 0 1 437.0625 964.2812)" display="inline" fill="#ED1E79" font-family="'ArialMT'" font-size="256">U+F720</text>
</g>
</svg>
