<?xml version="1.0" encoding="utf-8"?>
<!-- Generator: Adobe Illustrator 17.0.0, SVG Export Plug-In . SVG Version: 6.00 Build 0)  -->
<!DOCTYPE svg PUBLIC "-//W3C//DTD SVG 1.1//EN" "http://www.w3.org/Graphics/SVG/1.1/DTD/svg11.dtd">
<svg version="1.1" xmlns="http://www.w3.org/2000/svg" xmlns:xlink="http://www.w3.org/1999/xlink" x="0px" y="0px" width="1792px"
	 height="1792px" viewBox="0 0 1792 1792" enable-background="new 0 0 1792 1792" xml:space="preserve">
<g id="Guide">
</g>
<g id="Font" display="none">
</g>
<g id="内容">
	<g>
		<path d="M1304.75,609.894c30.585-30.583,66.272-54.275,106.077-70.416C1449.244,523.898,1489.82,516,1531.429,516
			c1.526,0,3.049,0.033,4.574,0.055V0H0v640h1274.644L1304.75,609.894z"/>
		<path d="M1347.201,1341.38c-1.927,0-3.852-0.017-5.775-0.051c0.43,22.464-1.53,44.802-5.75,66.671h200.327v-128.067
			c-21.05,15.38-43.857,28.098-68.216,37.975C1429.376,1333.482,1388.803,1341.38,1347.201,1341.38z"/>
		<path d="M794.144,1120.498c30.578-30.578,66.266-54.266,106.069-70.405c38.414-15.575,78.983-23.473,120.585-23.473
			c1.927,0,3.852,0.017,5.776,0.051c-1.645-85.826,31.278-169.88,93.925-232.526L1146.644,768H0v640h540.668
			c16.106-38.664,39.372-73.396,69.226-103.25L794.144,1120.498z"/>
		<path d="M1715.681,652.319c-101.759-101.759-266.745-101.759-368.503,0l-184.252,184.252
			c-68.194,68.194-90.662,164.778-67.454,251.704l343.831-343.83c50.881-50.881,133.373-50.879,184.252,0.001
			c50.881,50.88,50.881,133.371,0,184.251c-0.035,0.035-0.07,0.068-0.105,0.103l-343.728,343.728
			c86.927,23.21,183.512,0.742,251.707-67.452l184.252-184.253C1817.439,919.065,1817.439,754.078,1715.681,652.319z"/>
		<path d="M1112.949,1439.301L1112.949,1439.301l-184.252,184.253c-50.88,50.88-133.371,50.88-184.252,0
			c-50.879-50.88-50.879-133.371,0-184.251l119.75-119.75h-0.001l224.081-224.082c-86.926-23.209-183.51-0.74-251.703,67.453
			l-184.253,184.253c-101.759,101.759-101.759,266.744,0.001,368.504c101.76,101.759,266.744,101.759,368.502,0l184.253-184.252
			c68.194-68.194,90.663-164.78,67.453-251.707L1112.949,1439.301z"/>
		<path d="M923.429,1357.715c0,47.969,38.888,86.856,86.857,86.856c24.062,0,45.836-9.784,61.566-25.591l0.002,0.002
			l347.278-347.279c15.718-15.719,25.44-37.433,25.44-61.418c0-47.969-38.889-86.857-86.857-86.857
			c-23.984,0-45.699,9.722-61.418,25.44l-346.555,346.555l0.012,0.011C933.519,1311.215,923.429,1333.285,923.429,1357.715z"/>
	</g>
</g>
<g id="ラベル">
</g>
<g id="Unicode" display="none">
	<text transform="matrix(1 0 0 1 437.0635 964.2812)" display="inline" fill="#ED1E79" font-family="'ArialMT'" font-size="256">U+F725</text>
</g>
</svg>
