<?xml version="1.0" encoding="utf-8"?>
<!-- Generator: Adobe Illustrator 17.0.0, SVG Export Plug-In . SVG Version: 6.00 Build 0)  -->
<!DOCTYPE svg PUBLIC "-//W3C//DTD SVG 1.1//EN" "http://www.w3.org/Graphics/SVG/1.1/DTD/svg11.dtd">
<svg version="1.1" xmlns="http://www.w3.org/2000/svg" xmlns:xlink="http://www.w3.org/1999/xlink" x="0px" y="0px" width="1792px"
	 height="1792px" viewBox="0 0 1792 1792" enable-background="new 0 0 1792 1792" xml:space="preserve">
<g id="Guide">
</g>
<g id="Font" display="none">
</g>
<g id="内容">
	<g>
		<polygon points="1433.003,704 1516.503,787.499 1792,512 1625.003,512 		"/>
		<polygon points="1235.5,1068.501 1127,960 192,960 0,1152 1152,1152 		"/>
		<polygon points="1305.003,576 1388.503,659.499 1792,256 1625.003,256 		"/>
		<polygon points="871,704 192,704 0,896 1063,896 		"/>
		<polygon points="704,537.002 704,448 1177.003,448 1260.503,531.499 1792,0 640,0 0,640 807,640 		"/>
		<polygon points="768,512 1408,1152 770,1790 1154,1790 1792,1152 1152,512 		"/>
	</g>
</g>
<g id="ラベル">
</g>
<g id="Unicode" display="none">
	<text transform="matrix(1 0 0 1 437.0635 964.2812)" display="inline" fill="#ED1E79" font-family="'ArialMT'" font-size="256">U+F727</text>
</g>
</svg>
