<?xml version="1.0" encoding="utf-8"?>
<!-- Generator: Adobe Illustrator 17.0.0, SVG Export Plug-In . SVG Version: 6.00 Build 0)  -->
<!DOCTYPE svg PUBLIC "-//W3C//DTD SVG 1.1//EN" "http://www.w3.org/Graphics/SVG/1.1/DTD/svg11.dtd">
<svg version="1.1" xmlns="http://www.w3.org/2000/svg" xmlns:xlink="http://www.w3.org/1999/xlink" x="0px" y="0px" width="1792px"
	 height="1792px" viewBox="0 0 1792 1792" enable-background="new 0 0 1792 1792" xml:space="preserve">
<g id="Guide">
</g>
<g id="Font" display="none">
	<polygon display="inline" points="307.117,727.955 0,1035.072 606.991,1643.512 1792,455.605 1484.883,148.488 605.542,1027.829 	
		"/>
</g>
<g id="内容">
	<path d="M192,0v1792h960.839L1600,1344.839V0H192z M640,320h768v128H640V320z M640,576h768v128H640V576z M640,832h768v128H640V832z
		 M512,1472H384v-128h128V1472z M512,1216H384v-128h128V1216z M512,960H384V832h128V960z M512,704H384V576h128V704z M512,448H384
		V320h128V448z M960,1472H640v-128h320V1472z M960.002,1216H640v-128h768.001v64h-448V1216z M1088,1727.58v-447.161h447.161
		L1088,1727.58z"/>
</g>
<g id="ラベル">
</g>
<g id="Unicode" display="none">
	<text transform="matrix(1 0 0 1 437.0635 964.2812)" display="inline" fill="#ED1E79" font-family="'ArialMT'" font-size="256">U+F713</text>
</g>
</svg>
