<?xml version="1.0" encoding="utf-8"?>
<!-- Generator: Adobe Illustrator 17.0.0, SVG Export Plug-In . SVG Version: 6.00 Build 0)  -->
<!DOCTYPE svg PUBLIC "-//W3C//DTD SVG 1.1//EN" "http://www.w3.org/Graphics/SVG/1.1/DTD/svg11.dtd">
<svg version="1.1" xmlns="http://www.w3.org/2000/svg" xmlns:xlink="http://www.w3.org/1999/xlink" x="0px" y="0px" width="1792px"
	 height="1792px" viewBox="0 0 1792 1792" enable-background="new 0 0 1792 1792" xml:space="preserve">
<g id="Guide">
</g>
<g id="Font" display="none">
	<path display="inline" d="M238.934,597.333L0,1075.2V358.4h238.934c0-65.707,53.76-119.467,119.467-119.467H716.8
		c65.707,0,119.467,53.76,119.467,119.467h597.334v238.934H238.934z M1433.601,1553.067H0L358.4,716.8H1792L1433.601,1553.067z"/>
</g>
<g id="内容">
	<g>
		<path d="M192,0v1088h960.84L1600,640.839V0H192z M1088,1023.58V576.419h447.16L1088,1023.58z"/>
		<path d="M192,1792h1408v-640H192V1792z M704.003,1408H832v-128h128.003v128H1088v128H960.003v128H832v-128H704.003V1408z"/>
	</g>
</g>
<g id="ラベル">
</g>
<g id="Unicode" display="none">
	<text transform="matrix(1 0 0 1 437.0635 964.2812)" display="inline" fill="#ED1E79" font-family="'ArialMT'" font-size="256">U+F717</text>
</g>
</svg>
