<?xml version="1.0" encoding="utf-8"?>
<!-- Generator: Adobe Illustrator 17.0.0, SVG Export Plug-In . SVG Version: 6.00 Build 0)  -->
<!DOCTYPE svg PUBLIC "-//W3C//DTD SVG 1.1//EN" "http://www.w3.org/Graphics/SVG/1.1/DTD/svg11.dtd">
<svg version="1.1" xmlns="http://www.w3.org/2000/svg" xmlns:xlink="http://www.w3.org/1999/xlink" x="0px" y="0px" width="1792px"
	 height="1792px" viewBox="0 0 1792 1792" enable-background="new 0 0 1792 1792" xml:space="preserve">
<g id="Guide">
</g>
<g id="Font" display="none">
</g>
<g id="内容">
	<g>
		<rect x="768" y="0.001" width="256" height="383.998"/>
		<rect x="768" y="1408.001" width="256" height="383.998"/>
		<rect x="1408" y="768" width="384" height="256"/>
		<rect y="768" width="384" height="256"/>
		
			<rect x="1265.804" y="206.199" transform="matrix(0.7071 0.7071 -0.7071 0.7071 689.8005 -868.9359)" width="255.998" height="383.998"/>
		
			<rect x="270.197" y="1201.806" transform="matrix(-0.7071 -0.7071 0.7071 -0.7071 -305.8082 2660.939)" width="256" height="383.998"/>
		
			<rect x="1201.803" y="1265.805" transform="matrix(-0.7071 -0.7071 0.7071 -0.7071 1393.8002 3364.9402)" width="383.998" height="256"/>
		<rect x="206.195" y="270.198" transform="matrix(-0.7071 -0.7071 0.7071 -0.7071 398.1922 961.3335)" width="384" height="256"/>
	</g>
</g>
<g id="ラベル">
</g>
<g id="Unicode" display="none">
	<text transform="matrix(1 0 0 1 422.876 964.2812)" display="inline" fill="#ED1E79" font-family="'ArialMT'" font-size="256">U+F73E</text>
</g>
</svg>
