<?xml version="1.0" encoding="utf-8"?>
<!-- Generator: Adobe Illustrator 17.0.0, SVG Export Plug-In . SVG Version: 6.00 Build 0)  -->
<!DOCTYPE svg PUBLIC "-//W3C//DTD SVG 1.1//EN" "http://www.w3.org/Graphics/SVG/1.1/DTD/svg11.dtd">
<svg version="1.1" xmlns="http://www.w3.org/2000/svg" xmlns:xlink="http://www.w3.org/1999/xlink" x="0px" y="0px" width="1792px"
	 height="1792px" viewBox="0 0 1792 1792" enable-background="new 0 0 1792 1792" xml:space="preserve">
<g id="Guide">
</g>
<g id="Font" display="none">
</g>
<g id="内容">
	<g>
		<g>
			<path d="M709.96,1278.189c-10.066-34.88-16.004-72.622-17.968-114.174c-3.68-77.91,27.432-161.321,81.193-217.683
				c48.884-51.247,113.193-78.334,185.978-78.334c0.279,0,0.558,0.002,0.837,0.005c0.277-0.003,0.555-0.005,0.835-0.005
				c41.823,0,80.841,8.962,115.751,26.295c5.293-67.341,34.67-135.236,80.601-183.389c48.883-51.246,113.193-78.334,185.978-78.334
				c0.279,0,0.559,0.002,0.836,0.005c0.278-0.003,0.557-0.005,0.836-0.005c72.784,0,137.095,27.088,185.979,78.336
				c0.151,0.159,0.298,0.325,0.449,0.484c3.122-23.44,4.736-47.258,4.736-71.392c0-353.462-343.846-640-768-640S0,286.538,0,640
				c0,231.591,147.615,434.447,368.713,546.805C357.484,1283.768,318.828,1382.399,256,1472
				c124.4-45.922,227.231-122.85,293.046-218.388C600.625,1266.374,654.472,1274.733,709.96,1278.189z"/>
		</g>
		<g>
			<path d="M1755.878,1365.248c-11.438-4.981-214.305-67.013-268.529-99.009c-3.977-10.248-22.271-38.248-25.504-53.006
				c1.052-10.972-0.519-48.239,6.002-61.507c35.479-42.229,78.491-104.604,84.226-225.971
				c4.5-95.245-60.746-233.185-207.236-233.185c-0.281,0-0.559,0.014-0.836,0.021c-0.278-0.007-0.555-0.021-0.836-0.021
				c-146.489,0-211.736,137.939-207.237,233.185c0.166,3.509,0.367,6.964,0.593,10.375c3.501,3.291,6.939,6.685,10.294,10.204
				c53.762,56.36,84.872,139.771,81.191,217.681c-0.52,10.996-1.331,21.714-2.407,32.196c0.152,7.271,0.219,13.502,0.556,17.021
				c-0.76,3.471-2.358,7.678-4.4,12.209c-5.974,37.101-15.808,71.037-29.747,102.626c-16.344,37.038-35.9,65.024-52.851,86.258
				c-0.548,7.13-0.737,16.976-0.836,21.981c-0.019,0.937-0.036,1.849-0.054,2.736c2.587,5.25,6.458,12.273,8.864,16.641
				c0.295,0.535,0.588,1.065,0.878,1.592c49.128,22.931,163.021,60.125,208.841,75.089c28.659,9.359,34.147,11.194,38.987,13.303
				c5.506,2.398,12.4,6.064,19.742,10.904H1792V1398.73C1786.689,1384.48,1767.313,1370.231,1755.878,1365.248z"/>
		</g>
		<g>
			<path d="M1371.877,1600.676c-11.438-4.981-214.305-67.013-268.529-99.009c-3.977-10.248-22.271-38.248-25.504-53.006
				c1.052-10.972-0.519-48.239,6.002-61.507c35.479-42.229,78.491-104.604,84.226-225.971
				c4.5-95.245-60.746-233.185-207.236-233.185c-0.281,0-0.559,0.014-0.835,0.02c-0.279-0.007-0.556-0.02-0.837-0.02
				c-146.489,0-211.736,137.939-207.237,233.185c5.734,121.367,48.748,183.741,84.226,225.971
				c6.52,13.268,4.951,50.535,6.001,61.507c-3.231,14.758-21.524,42.758-25.503,53.006
				c-54.224,31.996-257.091,94.027-268.524,99.009c-11.438,4.983-30.815,19.232-36.125,33.482V1792h448v-0.002V1792h448v-157.842
				C1402.688,1619.908,1383.312,1605.659,1371.877,1600.676z"/>
		</g>
	</g>
</g>
<g id="ラベル">
</g>
<g id="Unicode" display="none">
	<text transform="matrix(1 0 0 1 430.0635 964.2812)" display="inline" fill="#ED1E79" font-family="'ArialMT'" font-size="256">U+F72F</text>
</g>
</svg>
