<?xml version="1.0" encoding="utf-8"?>
<!-- Generator: Adobe Illustrator 17.0.0, SVG Export Plug-In . SVG Version: 6.00 Build 0)  -->
<!DOCTYPE svg PUBLIC "-//W3C//DTD SVG 1.1//EN" "http://www.w3.org/Graphics/SVG/1.1/DTD/svg11.dtd">
<svg version="1.1" xmlns="http://www.w3.org/2000/svg" xmlns:xlink="http://www.w3.org/1999/xlink" x="0px" y="0px" width="1792px"
	 height="1792px" viewBox="0 0 1792 1792" enable-background="new 0 0 1792 1792" xml:space="preserve">
<g id="Guide">
</g>
<g id="Font" display="none">
	<path display="inline" d="M1231.417,871.154c-17.081-17.081-24.845-37.269-24.845-60.561c0-48.139,37.268-85.407,85.407-85.407
		c45.033,0,83.854,37.269,83.854,85.407c0,48.139-38.821,85.407-83.854,85.407C1268.686,896,1248.499,888.236,1231.417,871.154z
		 M760.901,882.024c0-66.773,49.692-122.676,113.359-133.546l189.449-195.66l1.553-1.553c-9.317-13.976-13.976-29.504-13.976-43.48
		c0-45.033,37.268-85.407,85.407-85.407c45.033,0,83.854,37.269,83.854,85.407c0,48.139-38.822,85.407-83.854,85.407
		c-17.081,0-31.057-4.659-45.033-15.529l-85.407,225.165c17.081,23.293,26.398,49.691,26.398,79.196
		c0,74.537-60.562,135.099-135.099,135.099S760.901,956.562,760.901,882.024z M610.273,566.794
		c-17.081-17.082-24.845-35.716-24.845-59.009c0-45.033,37.269-85.407,85.407-85.407c45.033,0,83.854,37.269,83.854,85.407
		c0,48.139-38.821,85.407-83.854,85.407C647.542,593.192,627.355,583.875,610.273,566.794z M441.012,871.154
		c-17.082-17.081-24.846-37.269-24.846-60.561c0-48.139,38.822-85.407,83.855-85.407c48.139,0,85.407,37.269,85.407,85.407
		c0,48.139-37.269,85.407-85.407,85.407C476.728,896,458.094,888.236,441.012,871.154z M232.929,896
		c0,364.922,298.149,663.071,663.071,663.071c366.475,0,663.071-298.149,663.071-663.071c0-366.475-296.597-663.071-663.071-663.071
		C531.078,232.929,232.929,529.525,232.929,896z M71.432,1243.841C23.293,1133.588,0,1018.676,0,896
		c0-243.799,100.936-473.622,262.433-635.12C422.377,100.936,652.201,0,896,0c243.799,0,473.622,100.936,635.12,260.88
		C1691.064,422.378,1792,652.201,1792,896s-100.936,473.622-260.88,633.567C1369.622,1691.064,1139.799,1792,896,1792
		c-243.799,0-473.623-100.936-633.567-262.433C181.685,1450.371,118.017,1354.094,71.432,1243.841z"/>
</g>
<g id="内容">
	<path fill-rule="evenodd" clip-rule="evenodd" d="M1792,832L1792,832c-71.018,0-133.071,77.25-166.286,192h-196.836
		c-63.16-132.951-189.87-229.856-340.878-251.456V672l448,224l256-128V640l-387.643-193.822L1792,241V128L1536,0l-512,256L512,0
		L256,128v128l384,192L256,640v128l256,128l448-224v100.544C808.992,794.144,682.281,891.049,619.122,1024H384
		c-212.077,0-384,171.923-384,384v384h384v-21.853V1536c0-70.692,57.308-128,128-128h107.122
		c71.902,151.354,226.166,256,404.878,256c178.711,0,332.976-104.646,404.878-256h196.836c33.215,114.751,95.268,192,166.285,192h0
		V832z M832,384c0-53.019,85.961-96,192-96s192,42.981,192,96s-85.961,96-192,96S832,437.019,832,384z"/>
</g>
<g id="ラベル">
</g>
<g id="Unicode" display="none">
	<text transform="matrix(1 0 0 1 437.0627 964.2812)" display="inline" fill="#ED1E79" font-family="'ArialMT'" font-size="256">U+F701</text>
</g>
</svg>
