<?xml version="1.0" encoding="utf-8"?>
<!-- Generator: Adobe Illustrator 17.0.0, SVG Export Plug-In . SVG Version: 6.00 Build 0)  -->
<!DOCTYPE svg PUBLIC "-//W3C//DTD SVG 1.1//EN" "http://www.w3.org/Graphics/SVG/1.1/DTD/svg11.dtd">
<svg version="1.1" xmlns="http://www.w3.org/2000/svg" xmlns:xlink="http://www.w3.org/1999/xlink" x="0px" y="0px" width="1792px"
	 height="1792px" viewBox="0 0 1792 1792" enable-background="new 0 0 1792 1792" xml:space="preserve">
<g id="Guide">
</g>
<g id="Font" display="none">
</g>
<g id="内容">
	<g>
		<path d="M128,1152V512h82.552C198.482,552.558,192,595.521,192,640c0,247.424,200.576,448,448,448s448-200.576,448-448
			c0-44.479-6.482-87.442-18.552-128H1152v409.964c44.557,0,88.104,9.453,128,27.141V0H0v1280h838.831
			c-1.864-13.855-2.831-27.894-2.831-42.036c0-29.37,3.971-58.149,11.833-85.964H128z M896,128h256v256h-144.307
			C977.354,340.505,939.495,302.647,896,272.308V128z M640,320c176.731,0,320,143.27,320,320c0,176.731-143.269,320-320,320
			S320,816.731,320,640C320,463.27,463.269,320,640,320z"/>
		<path d="M1792,1237.964c0-141.385-114.615-256-256-256c-76.28,0-144.754,33.375-191.654,86.304l-0.347-0.347l-0.346,0.346
			c-46.9-52.929-115.374-86.303-191.653-86.303c-141.385,0-256,114.615-256,256c0,76.28,33.375,144.755,86.304,191.654l-0.343,0.343
			L1343.999,1792l362.039-362.04l-0.342-0.342C1758.625,1382.718,1792,1314.244,1792,1237.964z"/>
	</g>
</g>
<g id="ラベル">
</g>
<g id="Unicode" display="none">
	<text transform="matrix(1 0 0 1 437.0627 964.2812)" display="inline" fill="#ED1E79" font-family="'ArialMT'" font-size="256">U+F731</text>
</g>
</svg>
