<?xml version="1.0" encoding="utf-8"?>
<!-- Generator: Adobe Illustrator 17.0.0, SVG Export Plug-In . SVG Version: 6.00 Build 0)  -->
<!DOCTYPE svg PUBLIC "-//W3C//DTD SVG 1.1//EN" "http://www.w3.org/Graphics/SVG/1.1/DTD/svg11.dtd">
<svg version="1.1" xmlns="http://www.w3.org/2000/svg" xmlns:xlink="http://www.w3.org/1999/xlink" x="0px" y="0px" width="1792px"
	 height="1792px" viewBox="0 0 1792 1792" enable-background="new 0 0 1792 1792" xml:space="preserve">
<g id="Guide">
</g>
<g id="Font" display="none">
	<path display="inline" d="M1418.667,597.333H672V448h746.667V597.333z M1418.667,896H672V746.667h746.667V896z M1418.667,1194.667
		H672v-149.333h746.667V1194.667z M672,1344v149.333h746.667V1344H672z M522.667,597.333H373.333V448h149.333V597.333z M522.667,896
		H373.333V746.667h149.333V896z M522.667,1194.667H373.333v-149.333h149.333V1194.667z M522.667,1493.333H373.333V1344h149.333
		V1493.333z M1568,1642.667H224v-1344h1344V1642.667z M74.666,0v1792h1642.667V0H74.666z"/>
</g>
<g id="内容">
	<g>
		<polygon points="0,256 0,509 896,1024 1792,512 1792,256 		"/>
		<polygon points="1792,1413 1792,512 1233.017,911.273 		"/>
		<polygon points="896,1152 634.188,964.114 0,1413 0,1536 1792,1536 1792,1413 1158.429,964.551 		"/>
		<polygon points="0,509 0,1413 559.682,910.646 		"/>
	</g>
</g>
<g id="ラベル">
</g>
<g id="Unicode" display="none">
	<text transform="matrix(1 0 0 1 437.0635 964.2812)" display="inline" fill="#ED1E79" font-family="'ArialMT'" font-size="256">U+F703</text>
</g>
</svg>
