<?xml version="1.0" encoding="utf-8"?>
<!-- Generator: Adobe Illustrator 17.0.0, SVG Export Plug-In . SVG Version: 6.00 Build 0)  -->
<!DOCTYPE svg PUBLIC "-//W3C//DTD SVG 1.1//EN" "http://www.w3.org/Graphics/SVG/1.1/DTD/svg11.dtd">
<svg version="1.1" xmlns="http://www.w3.org/2000/svg" xmlns:xlink="http://www.w3.org/1999/xlink" x="0px" y="0px" width="1792px"
	 height="1792px" viewBox="0 0 1792 1792" enable-background="new 0 0 1792 1792" xml:space="preserve">
<g id="Guide">
</g>
<g id="Font" display="none">
	<path display="inline" d="M746.667,1045.333L224,298.667h1344l-522.667,746.667v448L746.667,1792V1045.333z M1642.667,149.333
		H149.333V0h1493.333V149.333z"/>
</g>
<g id="内容">
	<g>
		<polygon points="1152,0 0,0 0,1408 256,1408 256,128 1152,128 		"/>
		<polygon points="1472,192 320,192 320,1600 576,1600 576,320 1472,320 		"/>
		<path d="M640,384v1408h704.839L1792,1344.839V384H640z M1280,1728v-448h448L1280,1728z"/>
	</g>
</g>
<g id="ラベル">
</g>
<g id="Unicode" display="none">
	<text transform="matrix(1 0 0 1 437.0627 964.2812)" display="inline" fill="#ED1E79" font-family="'ArialMT'" font-size="256">U+F711</text>
</g>
</svg>
