<?xml version="1.0" encoding="utf-8"?>
<!-- Generator: Adobe Illustrator 17.0.0, SVG Export Plug-In . SVG Version: 6.00 Build 0)  -->
<!DOCTYPE svg PUBLIC "-//W3C//DTD SVG 1.1//EN" "http://www.w3.org/Graphics/SVG/1.1/DTD/svg11.dtd">
<svg version="1.1" xmlns="http://www.w3.org/2000/svg" xmlns:xlink="http://www.w3.org/1999/xlink" x="0px" y="0px" width="1792px"
	 height="1792px" viewBox="0 0 1792 1792" enable-background="new 0 0 1792 1792" xml:space="preserve">
<g id="Guide">
</g>
<g id="Font" display="none">
	<polygon display="inline" points="558.47,1063.685 0,660.665 689.452,660.665 899.599,84.922 902.477,84.922 1112.623,660.665 
		1792,660.665 1242.165,1060.807 1450.872,1707.078 898.159,1311.254 348.324,1707.078 	"/>
</g>
<g id="内容">
	<path d="M192,0v1792h960.84L1600,1344.839V0H192z M768,320h640v128H768V320z M768,576h640v128H768V576z M768,1024h640v128H768V1024
		z M640,1408H384v-384h256V1408z M640,704H384V320h256V704z M960,1408H768v-128h192V1408z M1088,1727.58v-447.161h447.16
		L1088,1727.58z"/>
</g>
<g id="ラベル">
</g>
<g id="Unicode" display="none">
	<text transform="matrix(1 0 0 1 437.0635 964.2812)" display="inline" fill="#ED1E79" font-family="'ArialMT'" font-size="256">U+F714</text>
</g>
</svg>
