<?xml version="1.0" encoding="utf-8"?>
<!-- Generator: Adobe Illustrator 17.0.0, SVG Export Plug-In . SVG Version: 6.00 Build 0)  -->
<!DOCTYPE svg PUBLIC "-//W3C//DTD SVG 1.1//EN" "http://www.w3.org/Graphics/SVG/1.1/DTD/svg11.dtd">
<svg version="1.1" xmlns="http://www.w3.org/2000/svg" xmlns:xlink="http://www.w3.org/1999/xlink" x="0px" y="0px" width="1792px"
	 height="1792px" viewBox="0 0 1792 1792" enable-background="new 0 0 1792 1792" xml:space="preserve">
<g id="Guide">
</g>
<g id="Font" display="none">
</g>
<g id="内容">
	<g>
		<path d="M707.979,1212.006C488.938,1182.676,320,995.071,320,768c0-247.424,200.576-448,448-448
			c227.068,0,414.675,168.938,444.004,387.981c22.302-2.623,44.99-3.981,67.996-3.981c91.947,0,178.863,21.545,255.975,59.86
			c-0.255-48.189-4.935-95.329-13.678-141.029l-199.003-8.391c-12.709-46.063-30.998-89.811-54.092-130.474l134.767-146.631
			c-54.789-80.751-124.551-150.515-205.302-205.305l-146.633,134.767c-40.662-23.094-84.407-41.38-130.472-54.091l-8.391-199.004
			C866.162,4.709,817.631,0,768,0s-98.161,4.709-145.169,13.702l-8.391,199.004c-46.062,12.71-89.811,30.997-130.474,54.09
			L337.336,132.03c-80.75,54.789-150.517,124.554-205.306,205.306l134.766,146.631c-23.094,40.662-41.379,84.41-54.091,130.474
			l-199.003,8.391C4.71,669.84,0,718.37,0,768s4.71,98.16,13.702,145.169l199.003,8.391c12.712,46.063,30.997,89.812,54.091,130.474
			L132.03,1198.664c54.789,80.752,124.556,150.517,205.306,205.306l146.631-134.767c40.663,23.094,84.411,41.381,130.474,54.091
			l8.391,199.004c45.699,8.743,92.841,13.423,141.03,13.678C725.545,1458.864,704,1371.948,704,1280
			C704,1256.994,705.357,1234.307,707.979,1212.006z"/>
		<path d="M768,448c-176.732,0-320,143.269-320,320c0,166.376,126.977,303.078,289.308,318.527
			c57.929-162.475,186.744-291.291,349.22-349.219C1071.077,574.979,934.378,448,768,448z"/>
		<path d="M1782.935,1376.401c5.948-31.222,9.065-63.447,9.065-96.401s-3.117-65.18-9.065-96.401l-132.635-5.592
			c-8.513-30.978-20.809-60.388-36.359-87.705l89.821-97.729c-36.422-53.593-82.742-99.913-136.335-136.334l-97.729,89.82
			c-27.316-15.551-56.726-27.847-87.703-36.359l-5.592-132.634c-31.223-5.949-63.449-9.065-96.403-9.065s-65.18,3.116-96.401,9.064
			l-5.592,132.634c-30.978,8.513-60.388,20.808-87.705,36.359l-97.729-89.821c-53.593,36.422-99.913,82.742-136.335,136.336
			l89.82,97.728c-15.552,27.317-27.848,56.728-36.36,87.706l-132.633,5.592c-5.948,31.222-9.062,63.447-9.062,96.401
			s3.114,65.18,9.062,96.401l132.633,5.592c8.513,30.979,20.809,60.389,36.36,87.706l-89.82,97.728
			c36.421,53.594,82.741,99.914,136.335,136.336l97.729-89.821c27.317,15.552,56.728,27.847,87.705,36.36l5.592,132.634
			c31.222,5.948,63.447,9.064,96.401,9.064s65.181-3.116,96.403-9.065l5.592-132.634c30.978-8.514,60.387-20.809,87.704-36.36
			l97.729,89.821c53.593-36.422,99.912-82.742,136.334-136.335l-89.821-97.729c15.551-27.317,27.847-56.728,36.359-87.705
			L1782.935,1376.401z M1280,1472c-106.04,0-192-85.961-192-192s85.96-192,192-192c106.037,0,192,85.961,192,192
			S1386.037,1472,1280,1472z"/>
	</g>
</g>
<g id="ラベル">
</g>
<g id="Unicode" display="none">
	<text transform="matrix(1 0 0 1 430.0635 964.2812)" display="inline" fill="#ED1E79" font-family="'ArialMT'" font-size="256">U+F73F</text>
</g>
</svg>
