<?xml version="1.0" encoding="utf-8"?>
<!-- Generator: Adobe Illustrator 17.0.0, SVG Export Plug-In . SVG Version: 6.00 Build 0)  -->
<!DOCTYPE svg PUBLIC "-//W3C//DTD SVG 1.1//EN" "http://www.w3.org/Graphics/SVG/1.1/DTD/svg11.dtd">
<svg version="1.1" xmlns="http://www.w3.org/2000/svg" xmlns:xlink="http://www.w3.org/1999/xlink" x="0px" y="0px" width="1792px"
	 height="1792px" viewBox="0 0 1792 1792" enable-background="new 0 0 1792 1792" xml:space="preserve">
<g id="Guide">
</g>
<g id="Font" display="none">
</g>
<g id="内容">
	<g>
		<circle cx="704" cy="1600" r="192"/>
		<circle cx="1344" cy="1600" r="192"/>
		<path d="M1664,256h-32H416L352,0H192H0v128h224l288,1152h1024l256-1024H1664z M896,704V384h256v320H896z M1152,832v320H896V832
			H1152z M1280,384h320l-80,320h-240V384z M448,384h320v320H528L448,384z M560,832h208v320H640L560,832z M1280,1152V832h208l-80,320
			H1280z"/>
	</g>
</g>
<g id="ラベル">
</g>
<g id="Unicode" display="none">
	<text transform="matrix(1 0 0 1 422.8755 964.2812)" display="inline" fill="#ED1E79" font-family="'ArialMT'" font-size="256">U+F72A</text>
</g>
</svg>
