<?xml version="1.0" encoding="utf-8"?>
<!-- Generator: Adobe Illustrator 17.0.0, SVG Export Plug-In . SVG Version: 6.00 Build 0)  -->
<!DOCTYPE svg PUBLIC "-//W3C//DTD SVG 1.1//EN" "http://www.w3.org/Graphics/SVG/1.1/DTD/svg11.dtd">
<svg version="1.1" xmlns="http://www.w3.org/2000/svg" xmlns:xlink="http://www.w3.org/1999/xlink" x="0px" y="0px" width="1792px"
	 height="1792px" viewBox="0 0 1792 1792" enable-background="new 0 0 1792 1792" xml:space="preserve">
<g id="Guide">
</g>
<g id="Font" display="none">
</g>
<g id="内容">
	<g>
		<rect width="1536" height="256"/>
		<path d="M1152,448c106.039,0,192,85.961,192,192h192V384H0v256h960C960,533.961,1045.961,448,1152,448z"/>
		<path d="M911.088,1024H960V768H0v256h624.905c35.156-39.275,86.234-64,143.095-64C824.858,960,875.932,984.727,911.088,1024z"/>
		<rect x="1344" y="768" width="192" height="192"/>
		<path d="M1664,1024h-384V640c0-70.692-57.308-128-128-128s-128,57.308-128,128v586.98l-159.058-159.058l-0.228,0.229
			C841.245,1041.104,806.62,1024,768,1024c-70.692,0-128,57.308-128,128c0,38.62,17.104,73.245,44.151,96.714l-0.228,0.228
			L1024,1589.018V1792h640v-128c70.692,0,128-57.308,128-128v-384C1792,1081.308,1734.692,1024,1664,1024z"/>
	</g>
</g>
<g id="ラベル">
</g>
<g id="Unicode" display="none">
	<text transform="matrix(1 0 0 1 437.0635 964.2812)" display="inline" fill="#ED1E79" font-family="'ArialMT'" font-size="256">U+F726</text>
</g>
</svg>
