<?xml version="1.0" encoding="utf-8"?>
<!-- Generator: Adobe Illustrator 17.0.0, SVG Export Plug-In . SVG Version: 6.00 Build 0)  -->
<!DOCTYPE svg PUBLIC "-//W3C//DTD SVG 1.1//EN" "http://www.w3.org/Graphics/SVG/1.1/DTD/svg11.dtd">
<svg version="1.1" xmlns="http://www.w3.org/2000/svg" xmlns:xlink="http://www.w3.org/1999/xlink" x="0px" y="0px" width="1792px"
	 height="1792px" viewBox="0 0 1792 1792" enable-background="new 0 0 1792 1792" xml:space="preserve">
<g id="Guide">
</g>
<g id="Font" display="none">
</g>
<g id="内容">
	<g>
		<g>
			<path d="M974.642,1256.555c-11.404-17.87-22.721-38.244-32.983-61.501c-26.261-59.511-40.795-125.889-44.435-202.927
				c-2.079-44.017,5.205-91.108,21.065-136.184c17.231-48.974,44.115-93.497,77.75-128.757
				c59.042-61.897,136.786-94.615,224.825-94.615c0.356,0,0.712,0.003,1.065,0.008c0.355-0.005,0.707-0.008,1.059-0.008
				c88.04,0,165.785,32.718,224.828,94.616c23.548,24.688,43.772,53.927,59.707,86.045C1526.07,758.135,1536,700.035,1536,640
				c0-353.462-343.846-640-768-640S0,286.538,0,640c0,231.591,147.615,434.447,368.713,546.805
				C357.484,1283.768,318.828,1382.399,256,1472c124.399-45.922,227.231-122.85,293.045-218.388
				C618.434,1270.78,691.925,1280,768,1280C839.593,1280,908.893,1271.825,974.642,1256.555z"/>
		</g>
		<g>
			<path d="M1746.033,1548.543c-14.553-6.339-272.697-85.273-341.697-125.987c-5.061-13.041-28.34-48.671-32.453-67.449
				c1.338-13.962-0.661-61.385,7.636-78.267c45.147-53.737,99.88-133.106,107.177-287.545
				c5.726-121.198-77.299-296.724-263.708-296.724c-0.355,0-0.708,0.017-1.062,0.025c-0.354-0.009-0.705-0.025-1.062-0.025
				c-186.406,0-269.434,175.525-263.707,296.724c7.296,154.438,62.03,233.808,107.176,287.545
				c8.297,16.882,6.301,64.305,7.637,78.267c-4.114,18.778-27.393,54.408-32.452,67.449
				c-68.999,40.714-327.146,119.648-341.697,125.987c-14.553,6.341-39.209,24.473-45.966,42.605V1792h570.072v-0.002
				c0.002,0.001,0.002,0.001,0.002,0.001L1792,1792v-200.852C1785.242,1573.016,1760.587,1554.884,1746.033,1548.543z"/>
		</g>
	</g>
</g>
<g id="ラベル">
</g>
<g id="Unicode" display="none">
	<text transform="matrix(1 0 0 1 415.8135 964.2812)" display="inline" fill="#ED1E79" font-family="'ArialMT'" font-size="256">U+F72C</text>
</g>
</svg>
