<?xml version="1.0" encoding="utf-8"?>
<!-- Generator: Adobe Illustrator 17.0.0, SVG Export Plug-In . SVG Version: 6.00 Build 0)  -->
<!DOCTYPE svg PUBLIC "-//W3C//DTD SVG 1.1//EN" "http://www.w3.org/Graphics/SVG/1.1/DTD/svg11.dtd">
<svg version="1.1" xmlns="http://www.w3.org/2000/svg" xmlns:xlink="http://www.w3.org/1999/xlink" x="0px" y="0px" width="1792px"
	 height="1792px" viewBox="0 0 1792 1792" enable-background="new 0 0 1792 1792" xml:space="preserve">
<g id="Guide">
</g>
<g id="Font" display="none">
</g>
<g id="内容">
	<g>
		<path d="M0,10.174V1792h517.071c18.712-42.133,35.542-86.206,50.305-131.982C549.293,1662.63,530.807,1664,512,1664
			c-212.078,0-384-171.923-384-384h128v0.002C256,1421.387,370.615,1536,512,1536c32.871,0,64.288-6.205,93.159-17.493
			C627.799,1412.873,640,1300.516,640,1184c0-10.704-0.113-21.368-0.318-32H832C832,567.85,469.675,85.271,0,10.174z M288,896
			c-53.02,0-96-42.981-96-96s42.98-96,96-96s96,42.981,96,96S341.02,896,288,896z"/>
		<path d="M960,1152h192.318c-0.205,10.632-0.318,21.296-0.318,32c0,116.516,12.201,228.873,34.84,334.507
			c28.872,11.288,60.289,17.493,93.16,17.493c141.385,0,256-114.613,256-255.998V1280h128c0,212.077-171.922,384-384,384
			c-18.807,0-37.29-1.37-55.372-3.982c14.759,45.776,31.589,89.85,50.301,131.982H1792V10.174C1322.326,85.271,960,567.85,960,1152z
			 M1504,896c-53.02,0-96-42.981-96-96s42.98-96,96-96s96,42.981,96,96S1557.02,896,1504,896z"/>
	</g>
</g>
<g id="ラベル">
</g>
<g id="Unicode" display="none">
	<text transform="matrix(1 0 0 1 437.0635 964.2812)" display="inline" fill="#ED1E79" font-family="'ArialMT'" font-size="256">U+F737</text>
</g>
</svg>
