<?xml version="1.0" encoding="utf-8"?>
<!-- Generator: Adobe Illustrator 17.0.0, SVG Export Plug-In . SVG Version: 6.00 Build 0)  -->
<!DOCTYPE svg PUBLIC "-//W3C//DTD SVG 1.1//EN" "http://www.w3.org/Graphics/SVG/1.1/DTD/svg11.dtd">
<svg version="1.1" xmlns="http://www.w3.org/2000/svg" xmlns:xlink="http://www.w3.org/1999/xlink" x="0px" y="0px" width="1792px"
	 height="1792px" viewBox="0 0 1792 1792" enable-background="new 0 0 1792 1792" xml:space="preserve">
<g id="Guide">
</g>
<g id="Font" display="none">
</g>
<g id="内容">
	<g>
		<path d="M1043.074,828.073c41.158-57.68,95.65-105.185,158.975-138.024L704,192H287.999C234.98,192,192,234.98,192,288v32h343.002
			L1043.074,828.073z"/>
		<path d="M1262.995,663.994c45.48-15.55,94.255-23.994,145.004-23.994c54.814,0,107.324,9.852,155.868,27.868L896,0H479.999
			C426.98,0,384,42.98,384,96v32h343.002L1262.995,663.994z"/>
		<path d="M1407.999,704c-212.077,0-384,171.922-384,384c0,56.346,12.136,109.857,33.937,158.064l-162.491,162.491l-190.889,190.889
			c-0.001,0.276-0.011,0.552-0.011,0.828c0,0.093,0.004,0.184,0.004,0.276c0.15,105.668,85.779,191.299,191.448,191.447
			c0.002,0,0.005,0,0.007,0l191.993-191.992l161.94-161.94c48.205,21.801,101.717,33.937,158.063,33.937
			c212.078,0,384.001-171.924,384.001-384C1792,875.922,1620.077,704,1407.999,704z M1408,1281c-106.592,0-193-86.409-193-193
			c0-106.592,86.408-193,193-193c106.59,0,193,86.408,193,193C1601,1194.591,1514.59,1281,1408,1281z"/>
		<path d="M959.999,1088c0-74.257,18.073-144.289,50.05-205.951L512,384H95.999C42.98,384,0,426.98,0,480v406.856l664.07,664.071
			l319.419-319.42C968.262,1186.455,959.999,1138.193,959.999,1088z M288,768c-53.02,0-96-42.981-96-96.001
			C192,618.981,234.98,576,288,576c53.02,0,96,42.981,96,95.999C384,725.019,341.02,768,288,768z"/>
	</g>
</g>
<g id="ラベル">
</g>
<g id="Unicode" display="none">
	<text transform="matrix(1 0 0 1 437.0627 964.2812)" display="inline" fill="#ED1E79" font-family="'ArialMT'" font-size="256">U+F721</text>
</g>
</svg>
