<?xml version="1.0" encoding="utf-8"?>
<!-- Generator: Adobe Illustrator 17.0.0, SVG Export Plug-In . SVG Version: 6.00 Build 0)  -->
<!DOCTYPE svg PUBLIC "-//W3C//DTD SVG 1.1//EN" "http://www.w3.org/Graphics/SVG/1.1/DTD/svg11.dtd">
<svg version="1.1" xmlns="http://www.w3.org/2000/svg" xmlns:xlink="http://www.w3.org/1999/xlink" x="0px" y="0px" width="1792px"
	 height="1792px" viewBox="0 0 1792 1792" enable-background="new 0 0 1792 1792" xml:space="preserve">
<g id="Guide">
</g>
<g id="Font" display="none">
	<path display="inline" d="M746.667,224v149.333h298.667V224H746.667z M746.667,1120H0V522.667
		c0-82.133,67.2-149.333,149.333-149.333h448V224c0-82.133,67.2-149.333,149.333-149.333h298.667
		c82.134,0,149.333,67.2,149.333,149.333v149.333h448c82.134,0,149.334,67.2,149.334,149.333V1120h-746.667V970.667H746.667V1120z
		 M0,1568v-298.667h1792V1568c0,82.133-67.2,149.333-149.334,149.333H149.333C67.2,1717.333,0,1650.133,0,1568z"/>
</g>
<g id="内容">
	<g>
		<path fill-rule="evenodd" clip-rule="evenodd" d="M1536,1139.261v161.234c41.713,32.688,65,69.109,65,107.505
			c0,141.385-315.639,256-705,256s-705-114.615-705-256c0-38.396,23.287-74.817,65-107.505v-161.234
			C97.644,1208.52,0,1303.372,0,1408c0,212.077,401.153,384,896,384s896-171.923,896-384
			C1792,1303.372,1694.356,1208.52,1536,1139.261z"/>
		<path fill-rule="evenodd" clip-rule="evenodd" d="M320,1472h1152V768h192l-320-315.481V0h-192v263.23L885,0L128,768h192V1472z
			 M1088,832h256v320h-256V832z M768,832h256v320H768V832z M448,832h256v320H448V832z"/>
	</g>
</g>
<g id="ラベル">
</g>
<g id="Unicode" display="none">
	<text transform="matrix(1 0 0 1 437.063 964.2812)" display="inline" fill="#ED1E79" font-family="'ArialMT'" font-size="256">U+F702</text>
</g>
</svg>
