<?xml version="1.0" encoding="utf-8"?>
<!-- Generator: Adobe Illustrator 17.0.0, SVG Export Plug-In . SVG Version: 6.00 Build 0)  -->
<!DOCTYPE svg PUBLIC "-//W3C//DTD SVG 1.1//EN" "http://www.w3.org/Graphics/SVG/1.1/DTD/svg11.dtd">
<svg version="1.1" xmlns="http://www.w3.org/2000/svg" xmlns:xlink="http://www.w3.org/1999/xlink" x="0px" y="0px" width="1792px"
	 height="1792px" viewBox="0 0 1792 1792" enable-background="new 0 0 1792 1792" xml:space="preserve">
<g id="Guide">
</g>
<g id="Font" display="none">
</g>
<g id="内容">
	<g>
		<path d="M359.763,952.36c74.563,4.358,158.757,7.031,248.237,7.549V672.005H319.397
			C321.903,773.465,336.258,868.712,359.763,952.36z"/>
		<path d="M319.397,608.005H608v-287.91c-89.479,0.518-173.673,3.19-248.235,7.549C336.259,411.293,321.903,506.542,319.397,608.005
			z"/>
		<path d="M379.844,265.028c71.088-5.143,147.872-8.24,228.156-8.893V3.153C514.205,21.662,432.281,120.662,379.844,265.028z"/>
		<path d="M608,1276.855v-252.984c-80.284-0.652-157.068-3.75-228.157-8.894C432.281,1159.346,514.205,1258.347,608,1276.855z"/>
		<path d="M1023.606,608.005h255.604c-4.122-83.686-24.322-163.14-57.567-235.35c-27.491-16.638-114.337-31.048-235.979-40.565
			C1007.833,416.068,1021.214,509.397,1023.606,608.005z"/>
		<path d="M1184.031,302.762c-79.916-128.646-204.19-226.856-351.449-273.265c55.041,58.486,101.432,141.581,134.751,241.155
			C1050.898,278.647,1124.537,289.606,1184.031,302.762z"/>
		<path d="M672,3.153v252.982c80.284,0.652,157.068,3.75,228.156,8.893C847.719,120.662,765.794,21.662,672,3.153z"/>
		<path d="M900.157,1014.977c-71.088,5.144-147.873,8.241-228.157,8.894v252.984
			C765.794,1258.347,847.719,1159.346,900.157,1014.977z"/>
		<path d="M960.603,672.005H672v287.904c89.481-0.518,173.673-3.19,248.237-7.549C943.742,868.713,958.097,773.466,960.603,672.005z
			"/>
		<path d="M95.967,977.245c81.19,130.696,208.162,229.978,358.506,275.442c-55.853-58.497-102.921-142.248-136.644-242.845
			C232.135,1001.809,156.684,990.67,95.967,977.245z"/>
		<path d="M299.441,331.695c-124.319,9.512-213.215,24.092-241.084,40.963C25.111,444.867,4.912,524.32,0.791,608.005h260.604
			C263.789,509.242,277.21,415.776,299.441,331.695z"/>
		<path d="M920.235,327.644c-74.562-4.358-158.755-7.031-248.235-7.549v287.91h288.603
			C958.097,506.542,943.741,411.293,920.235,327.644z"/>
		<path d="M454.474,27.319C304.131,72.784,177.158,172.064,95.968,302.761c60.717-13.425,136.167-24.563,221.862-32.597
			C351.553,169.567,398.622,85.816,454.474,27.319z"/>
		<path d="M261.395,672.005H0.791c4.121,83.682,24.319,163.134,57.563,235.341c27.867,16.871,116.764,31.451,241.085,40.964
			C277.209,864.229,263.79,770.766,261.395,672.005z"/>
		<path d="M992.685,919.718c45.688-112.64,135.866-202.476,248.736-247.713h-217.816
			C1021.478,759.71,1010.651,843.231,992.685,919.718z"/>
		<path d="M832.583,1250.51c49-15.442,95.45-36.627,138.573-62.752c-7.297-32.079-11.157-65.465-11.157-99.754
			c0-25.897,2.206-51.279,6.424-75.975C933.171,1110.412,887.129,1192.55,832.583,1250.51z"/>
		<path d="M1407.999,704.004c-212.077,0-384,171.922-384,384c0,56.346,12.136,109.857,33.937,158.063L895.444,1408.56
			l-190.889,190.889c-0.001,0.276-0.011,0.552-0.011,0.828c0,0.093,0.004,0.184,0.004,0.276
			c0.148,105.668,85.778,191.299,191.447,191.447c0.003,0,0.005,0,0.008,0l191.992-191.992l161.94-161.94
			c48.206,21.801,101.717,33.937,158.063,33.937c212.078,0,384.001-171.924,384.001-384
			C1792,875.926,1620.077,704.004,1407.999,704.004z M1408,1281.004c-106.593,0-193-86.409-193-193c0-106.592,86.407-193,193-193
			c106.589,0,193,86.408,193,193C1601,1194.595,1514.589,1281.004,1408,1281.004z"/>
	</g>
</g>
<g id="ラベル">
</g>
<g id="Unicode" display="none">
	<text transform="matrix(1 0 0 1 437.063 964.2812)" display="inline" fill="#ED1E79" font-family="'ArialMT'" font-size="256">U+F732</text>
</g>
</svg>
