<?xml version="1.0" encoding="utf-8"?>
<!-- Generator: Adobe Illustrator 17.0.0, SVG Export Plug-In . SVG Version: 6.00 Build 0)  -->
<!DOCTYPE svg PUBLIC "-//W3C//DTD SVG 1.1//EN" "http://www.w3.org/Graphics/SVG/1.1/DTD/svg11.dtd">
<svg version="1.1" xmlns="http://www.w3.org/2000/svg" xmlns:xlink="http://www.w3.org/1999/xlink" x="0px" y="0px" width="1792px"
	 height="1792px" viewBox="0 0 1792 1792" enable-background="new 0 0 1792 1792" xml:space="preserve">
<g id="Guide">
</g>
<g id="Font" display="none">
</g>
<g id="内容">
	<g>
		<path d="M832.019,896H896v-63.981C877.8,856.244,856.244,877.801,832.019,896z"/>
		<path d="M320,640c0-176.73,143.269-320,320-320s320,143.27,320,320c0,18.036-1.516,35.716-4.384,52.938
			C990.062,660.137,1036.679,640,1088,640c0-44.479-6.482-87.442-18.552-128H1152v128h128V0H0v1280h640v-128H128V512h82.553
			C198.482,552.558,192,595.521,192,640c0,247.424,200.576,448,448,448c0-51.321,20.136-97.938,52.938-132.384
			C675.716,958.483,658.036,960,640,960C463.269,960,320,816.731,320,640z M896,128h256v256h-144.307
			C977.353,340.505,939.495,302.647,896,272.308V128z"/>
		<path d="M1664,704h-576c-70.692,0-128,57.308-128,128v64h448c106.039,0,192,85.961,192,192v448h64c70.692,0,128-57.308,128-128
			V832C1792,761.308,1734.692,704,1664,704z"/>
		<path d="M1408,960H832c-70.692,0-128,57.308-128,128v576c0,70.692,57.308,128,128,128h576c70.692,0,128-57.308,128-128v-576
			C1536,1017.308,1478.692,960,1408,960z"/>
	</g>
</g>
<g id="ラベル">
</g>
<g id="Unicode" display="none">
	<text transform="matrix(1 0 0 1 437.0625 964.2812)" display="inline" fill="#ED1E79" font-family="'ArialMT'" font-size="256">U+F730</text>
</g>
</svg>
