<?xml version="1.0" encoding="utf-8"?>
<!-- Generator: Adobe Illustrator 17.0.0, SVG Export Plug-In . SVG Version: 6.00 Build 0)  -->
<!DOCTYPE svg PUBLIC "-//W3C//DTD SVG 1.1//EN" "http://www.w3.org/Graphics/SVG/1.1/DTD/svg11.dtd">
<svg version="1.1" xmlns="http://www.w3.org/2000/svg" xmlns:xlink="http://www.w3.org/1999/xlink" x="0px" y="0px" width="1792px"
	 height="1792px" viewBox="0 0 1792 1792" enable-background="new 0 0 1792 1792" xml:space="preserve">
<g id="Guide">
</g>
<g id="Font" display="none">
</g>
<g id="内容">
	<g>
		<path d="M960,64c0-35.346-28.654-64-64-64c-35.349,0-64,28.654-64,64v192H640.001v192H832v1280.001l0,0
			c0,35.346,28.651,63.999,64,63.999c35.346,0,64-28.653,64-63.999l0,0V448h191.999V256H960V64z"/>
		<path d="M319.998,64.077c0-0.025,0.002-0.051,0.002-0.077c0-35.346-28.654-64-64-64c-35.349,0-64,28.654-64,64h-0.002v832H-0.001
			v192h191.999v640.001H192c0,35.346,28.651,63.999,64,63.999c35.346,0,64-28.654,64-64c0-0.026-0.002-0.052-0.002-0.077V1088
			h191.999V896H319.998V64.077z"/>
		<path d="M1791.999,1536v-192h-192.001V64.077c0-0.025,0.002-0.051,0.002-0.077c0-35.346-28.654-64-64-64
			c-35.349,0-64,28.654-64,64h-0.002v1280h-191.997v192h191.997v192.001H1472c0,35.346,28.651,63.999,64,63.999
			c35.346,0,64-28.654,64-64c0-0.026-0.002-0.052-0.002-0.077V1536H1791.999z"/>
	</g>
</g>
<g id="ラベル">
</g>
<g id="Unicode" display="none">
	<text transform="matrix(1 0 0 1 437.0635 964.2812)" display="inline" fill="#ED1E79" font-family="'ArialMT'" font-size="256">U+F736</text>
</g>
</svg>
