<?xml version="1.0" encoding="utf-8"?>
<!-- Generator: Adobe Illustrator 17.0.0, SVG Export Plug-In . SVG Version: 6.00 Build 0)  -->
<!DOCTYPE svg PUBLIC "-//W3C//DTD SVG 1.1//EN" "http://www.w3.org/Graphics/SVG/1.1/DTD/svg11.dtd">
<svg version="1.1" xmlns="http://www.w3.org/2000/svg" xmlns:xlink="http://www.w3.org/1999/xlink" x="0px" y="0px" width="1792px"
	 height="1792px" viewBox="0 0 1792 1792" enable-background="new 0 0 1792 1792" xml:space="preserve">
<g id="Guide">
</g>
<g id="Font" display="none">
	<path display="inline" d="M692.962,1457.286L554.37,1333.939v-697.12l469.828-327.078l119.189,115.032L939.656,678.397
		c-15.245,20.789-18.017,42.964-6.929,65.138c4.157,5.544,6.929,9.702,11.087,12.473c1.386,1.386,4.158,2.772,8.315,4.158
		c2.772,1.386,5.544,1.386,6.93,1.386c2.772,1.386,12.474,2.772,16.631,2.772c1.386,0,5.544,0,11.088,0c4.157,0,6.932,0,8.315,0
		h633.367c40.191,0,58.209,58.209,41.578,103.944c-8.316,23.561-22.175,34.648-41.578,34.648h-281.343
		c-27.719,0-55.437,45.736-66.523,84.542l-181.557,469.828H692.962z M415.777,625.732v727.61
		c0,23.561,227.291,242.537,239.767,242.537h472.599c27.718,0,55.437-44.35,67.91-84.541l180.17-469.828h148.294
		c155.224,0,267.483-74.84,267.483-207.889s-109.487-205.117-266.098-205.117h-418.549l117.804-167.697
		c20.789-27.718,19.402-67.91-4.157-91.471l-152.452-155.224c-20.789-20.789-44.35-23.561-73.454-8.316L493.39,524.559
		c-5.544,4.158-12.471,8.315-20.789,13.859C454.586,550.891,415.777,593.855,415.777,625.732z M277.185,1457.286H0V625.732h277.185
		V1457.286z"/>
</g>
<g id="内容">
	<path fill-rule="evenodd" clip-rule="evenodd" d="M1792,1280l-128-128l-158.92,158.92l-64.094-63.906L1600,1088l-128-128
		l-159.202,159.202l-466.77-465.403C877.956,592.175,896,522.196,896,448C896,200.576,695.423,0,448,0C200.576,0,0,200.576,0,448
		s200.576,448,448,448c74.256,0,144.288-18.073,205.95-50.05L1600,1792l192-195l-158.732-158.267L1792,1280z M448,640
		c-106.039,0-192-85.961-192-192s85.961-192,192-192s192,85.961,192,192S554.039,640,448,640z"/>
</g>
<g id="ラベル">
</g>
<g id="Unicode" display="none">
	<text transform="matrix(1 0 0 1 437.0635 964.2812)" display="inline" fill="#ED1E79" font-family="'ArialMT'" font-size="256">U+F706</text>
</g>
</svg>
