<?xml version="1.0" encoding="utf-8"?>
<!-- Generator: Adobe Illustrator 17.0.0, SVG Export Plug-In . SVG Version: 6.00 Build 0)  -->
<!DOCTYPE svg PUBLIC "-//W3C//DTD SVG 1.1//EN" "http://www.w3.org/Graphics/SVG/1.1/DTD/svg11.dtd">
<svg version="1.1" xmlns="http://www.w3.org/2000/svg" xmlns:xlink="http://www.w3.org/1999/xlink" x="0px" y="0px" width="1792px"
	 height="1792px" viewBox="0 0 1792 1792" enable-background="new 0 0 1792 1792" xml:space="preserve">
<g id="Guide">
</g>
<g id="Font" display="none">
</g>
<g id="内容">
	<g>
		<path d="M1600,0H576.001L384,640v196h444v188h900c35.346,0,64-28.654,64-64V640L1600,0z M1312,575.999c-17.674,0-32,14.327-32,32
			V704H896v-96.001c0-17.673-14.326-32-32-32H512.001L640,64h896l128,511.999H1312z"/>
		<path d="M548.928,1443.922c-34.959,34.959-62.028,65.754-80.971,92.078h279.194l-145.149-145.151L548.928,1443.922z"/>
		<path d="M1728,1088H828v448h900c35.346,0,64-28.654,64-64v-320C1792,1116.654,1763.346,1088,1728,1088z"/>
		<path d="M346.059,1050.054l-127.554,159.443c-141.351,176.688-174.201,370.42-90.499,486.496
			c65.5,90.832,179.32,103.492,245.975,92.801c73.972-11.865,146.24-50.997,192.522-130.635c-64,32-139.55,31.199-170.024-2.857
			c-47.713-53.323-11.975-131.808,110.024-253.807l95.5-95.499L768,1471.995V896H192.006L346.059,1050.054z"/>
	</g>
</g>
<g id="ラベル">
</g>
<g id="Unicode" display="none">
	<text transform="matrix(1 0 0 1 437.0635 964.2812)" display="inline" fill="#ED1E79" font-family="'ArialMT'" font-size="256">U+F734</text>
</g>
</svg>
