<?xml version="1.0" encoding="utf-8"?>
<!-- Generator: Adobe Illustrator 17.0.0, SVG Export Plug-In . SVG Version: 6.00 Build 0)  -->
<!DOCTYPE svg PUBLIC "-//W3C//DTD SVG 1.1//EN" "http://www.w3.org/Graphics/SVG/1.1/DTD/svg11.dtd">
<svg version="1.1" xmlns="http://www.w3.org/2000/svg" xmlns:xlink="http://www.w3.org/1999/xlink" x="0px" y="0px" width="1792px"
	 height="1792px" viewBox="0 0 1792 1792" enable-background="new 0 0 1792 1792" xml:space="preserve">
<g id="Guide">
</g>
<g id="Font" display="none">
</g>
<g id="内容">
	<g>
		<path d="M1408,704c-212.078,0-384,171.922-384,384c0,56.346,12.135,109.857,33.937,158.063l-162.492,162.492l-190.889,190.889
			c-0.001,0.276-0.011,0.552-0.011,0.828c0,0.093,0.004,0.184,0.004,0.276c0.148,105.668,85.778,191.299,191.447,191.447h0.008
			l191.992-191.992l161.94-161.94C1298.143,1459.864,1351.653,1472,1408,1472c212.077,0,384-171.924,384-384
			C1792,875.922,1620.077,704,1408,704z M1408,1281c-106.592,0-193-86.409-193-193c0-106.592,86.408-193,193-193
			c106.59,0,193,86.408,193,193C1601,1194.591,1514.59,1281,1408,1281z"/>
		<path d="M953.907,1261.091l29.583-29.583C968.263,1186.455,960,1138.193,960,1088c0-247.424,200.576-448,448-448
			c44.359,0,87.213,6.449,127.676,18.458c0.208-6.133,0.324-12.284,0.324-18.458c0-353.462-343.846-640-768-640S0,286.538,0,640
			c0,231.591,147.615,434.447,368.713,546.805C357.484,1283.768,318.828,1382.399,256,1472
			c124.4-45.922,227.231-122.85,293.046-218.388C618.434,1270.78,691.925,1280,768,1280
			C832.111,1280,894.378,1273.427,953.907,1261.091z"/>
	</g>
</g>
<g id="ラベル">
</g>
<g id="Unicode" display="none">
	<text transform="matrix(1 0 0 1 415.8135 964.2812)" display="inline" fill="#ED1E79" font-family="'ArialMT'" font-size="256">U+F72D</text>
</g>
</svg>
