<?xml version="1.0" encoding="utf-8"?>
<!-- Generator: Adobe Illustrator 17.0.0, SVG Export Plug-In . SVG Version: 6.00 Build 0)  -->
<!DOCTYPE svg PUBLIC "-//W3C//DTD SVG 1.1//EN" "http://www.w3.org/Graphics/SVG/1.1/DTD/svg11.dtd">
<svg version="1.1" xmlns="http://www.w3.org/2000/svg" xmlns:xlink="http://www.w3.org/1999/xlink" x="0px" y="0px" width="1792px"
	 height="1792px" viewBox="0 0 1792 1792" enable-background="new 0 0 1792 1792" xml:space="preserve">
<g id="Guide">
</g>
<g id="Font" display="none">
	<path display="inline" d="M1418.669,597.333H672V448h746.669V597.333z M1418.669,896H672V746.667h746.669V896z M1418.669,1194.667
		H672v-149.333h746.669V1194.667z M672,1344v149.333h746.669V1344H672z M522.669,597.333H373.336V448h149.333V597.333z M522.669,896
		H373.336V746.667h149.333V896z M522.669,1194.667H373.336v-149.333h149.333V1194.667z M522.669,1493.333H373.336V1344h149.333
		V1493.333z M1568,1642.667H224v-1344h1344V1642.667z M74.666,0v1792h1642.67V0H74.666z"/>
</g>
<g id="内容">
	<path fill-rule="evenodd" clip-rule="evenodd" d="M1344,128L1280,0H512l-64,128H0v640h256v1024h1280V768h256V128H1344z M896,832
		c-35.347,0-64-28.654-64-64c0-35.346,28.653-64,64-64s64,28.654,64,64C960,803.346,931.347,832,896,832z M896,576
		c-35.347,0-64-28.654-64-64s28.653-64,64-64s64,28.654,64,64S931.347,576,896,576z M1088,512L896,256L704,512L448,320L576,64
		l320,128l320-128l128,256L1088,512z"/>
</g>
<g id="ラベル">
</g>
<g id="Unicode" display="none">
	<text transform="matrix(1 0 0 1 437.0635 964.2812)" display="inline" fill="#ED1E79" font-family="'ArialMT'" font-size="256">U+F705</text>
</g>
</svg>
