<?xml version="1.0" encoding="utf-8"?>
<!-- Generator: Adobe Illustrator 17.0.0, SVG Export Plug-In . SVG Version: 6.00 Build 0)  -->
<!DOCTYPE svg PUBLIC "-//W3C//DTD SVG 1.1//EN" "http://www.w3.org/Graphics/SVG/1.1/DTD/svg11.dtd">
<svg version="1.1" xmlns="http://www.w3.org/2000/svg" xmlns:xlink="http://www.w3.org/1999/xlink" x="0px" y="0px" width="1792px"
	 height="1792px" viewBox="0 0 1792 1792" enable-background="new 0 0 1792 1792" xml:space="preserve">
<g id="Guide">
</g>
<g id="Font" display="none">
	<path display="inline" d="M263.573,262.827C235.2,291.2,220.267,327.04,220.267,368.853c0,83.627,67.2,150.827,150.827,150.827
		c82.133,0,149.333-67.2,149.333-150.827c0-83.626-67.2-150.827-149.333-150.827C329.28,218.027,293.44,232.96,263.573,262.827z
		 M1044.587,1792L0.747,746.667V37.333C0.747,17.92,18.667,0,38.08,0h707.84l1045.333,1045.333L1044.587,1792z"/>
</g>
<g id="内容">
	<path d="M192,0v1792h960.839L1600,1344.839V0H192z M660.255,1246.122l-91.966,92.067l-1.462,1.463l-1.07-1.082
		c-5.075,0.708-10.257,1.082-15.527,1.082c-61.563,0-111.47-49.906-111.47-111.47c0-5.685,0.428-11.27,1.25-16.727l-1.25-1.263
		l1.741-1.741l89.999-89.998l369.167-369.168c-9.36-24.632-14.485-51.351-14.485-79.267c0-123.276,99.935-223.211,223.211-223.211
		c89.041,0,165.902,52.139,201.727,127.549h-187.004v0.067h-55.192l-55.192,95.595l55.192,95.596h55.192v0.066h187.004
		c-35.825,75.411-112.685,127.549-201.727,127.549c-28.432,0-55.621-5.32-80.631-15.013L660.255,1246.122z M1088,1727.58v-447.161
		h447.161L1088,1727.58z"/>
</g>
<g id="ラベル">
</g>
<g id="Unicode" display="none">
	<text transform="matrix(1 0 0 1 437.0625 964.2812)" display="inline" fill="#ED1E79" font-family="'ArialMT'" font-size="256">U+F708</text>
</g>
</svg>
