<?xml version="1.0" encoding="utf-8"?>
<!-- Generator: Adobe Illustrator 17.0.0, SVG Export Plug-In . SVG Version: 6.00 Build 0)  -->
<!DOCTYPE svg PUBLIC "-//W3C//DTD SVG 1.1//EN" "http://www.w3.org/Graphics/SVG/1.1/DTD/svg11.dtd">
<svg version="1.1" xmlns="http://www.w3.org/2000/svg" xmlns:xlink="http://www.w3.org/1999/xlink" x="0px" y="0px" width="1792px"
	 height="1792px" viewBox="0 0 1792 1792" enable-background="new 0 0 1792 1792" xml:space="preserve">
<g id="Guide">
</g>
<g id="Font" display="none">
</g>
<g id="内容">
	<path fill="#4D4D4D" d="M1792,654.896"/>
	<g>
		<path d="M551.4,1152H512V960h231.661L896,807.868V640h168.096L1280,424.389V0H0v1280h423.226L551.4,1152z M896,320h256v192H896
			V320z M512,320h256v192H512V320z M512,640h256v192H512V640z M384,1152H128V960h256V1152z M384,832H128V640h256V832z M384,512H128
			V320h256V512z"/>
		<polygon points="1280,1280 1280,1113.001 1113.001,1280 		"/>
		<polygon points="257.653,1792 640,1664 640,1664 384,1408 		"/>
		<path d="M1536,256L448,1344l256,256L1792,512C1792,370.615,1677.385,256,1536,256z"/>
	</g>
</g>
<g id="ラベル">
</g>
<g id="Unicode" display="none">
	<text transform="matrix(1 0 0 1 437.0635 964.2812)" display="inline" fill="#ED1E79" font-family="'ArialMT'" font-size="256">U+F723</text>
</g>
</svg>
