<?xml version="1.0" encoding="utf-8"?>
<!-- Generator: Adobe Illustrator 17.0.0, SVG Export Plug-In . SVG Version: 6.00 Build 0)  -->
<!DOCTYPE svg PUBLIC "-//W3C//DTD SVG 1.1//EN" "http://www.w3.org/Graphics/SVG/1.1/DTD/svg11.dtd">
<svg version="1.1" xmlns="http://www.w3.org/2000/svg" xmlns:xlink="http://www.w3.org/1999/xlink" x="0px" y="0px" width="1792px"
	 height="1792px" viewBox="0 0 1792 1792" enable-background="new 0 0 1792 1792" xml:space="preserve">
<g id="Guide">
</g>
<g id="Font" display="none">
</g>
<g id="内容">
	<g>
		<path d="M320,0c-65.073,0-129.158,4.229-192,12.416V335.94C190.441,325.465,254.582,320,320,320c636.232,0,1152,515.769,1152,1152
			c0,65.418-5.465,129.559-15.941,192h323.525c8.186-62.842,12.416-126.927,12.416-192C1792,659.036,1132.963,0,320,0z"/>
		<circle cx="320" cy="1472" r="320"/>
		<path d="M320,576c-65.904,0-130.146,7.118-192,20.623v332.156C188.054,907.553,252.677,896,320,896c318.116,0,576,257.884,576,576
			c0,67.322-11.553,131.946-32.779,192h332.156c13.504-61.854,20.623-126.096,20.623-192C1215.999,977.152,814.846,576,320,576z"/>
	</g>
</g>
<g id="ラベル">
</g>
<g id="Unicode" display="none">
	<text transform="matrix(1 0 0 1 437.0625 964.2812)" display="inline" fill="#ED1E79" font-family="'ArialMT'" font-size="256">U+F728</text>
</g>
</svg>
