<?xml version="1.0" encoding="utf-8"?>
<!-- Generator: Adobe Illustrator 17.0.0, SVG Export Plug-In . SVG Version: 6.00 Build 0)  -->
<!DOCTYPE svg PUBLIC "-//W3C//DTD SVG 1.1//EN" "http://www.w3.org/Graphics/SVG/1.1/DTD/svg11.dtd">
<svg version="1.1" xmlns="http://www.w3.org/2000/svg" xmlns:xlink="http://www.w3.org/1999/xlink" x="0px" y="0px" width="1792px"
	 height="1792px" viewBox="0 0 1792 1792" enable-background="new 0 0 1792 1792" xml:space="preserve">
<g id="Guide">
</g>
<g id="Font" display="none">
</g>
<g id="内容">
	<g>
		<polygon points="768,128 1344,128 1344,0 384,0 384,384 768,384 		"/>
		<path d="M832,192v199.958c110.389,28.234,192,128.357,192,247.545c0,0.166-0.006,0.331-0.006,0.497H1024v896h384l384-383.161V192
			H832z M1408,1408v-256h256L1408,1408z"/>
		<path d="M736,448H0v1344h960v-768c-70.693-0.001-128-57.308-128-128S889.306,768,960,768v-95.961c0-0.013,0-0.026,0-0.039
			s0-0.025,0-0.039C959.977,548.268,859.698,448,736,448z M128,1728H64v-64h64V1728z M255.999,1728h-64v-64h64V1728z M383.999,1728
			h-64v-64h64V1728z M511.999,1728h-64v-64h64V1728z M639.998,1728h-64v-64h64V1728z M767.998,1728h-64v-64h64V1728z M895.998,1664
			v64h-64v-64H895.998z"/>
	</g>
</g>
<g id="ラベル">
</g>
<g id="Unicode" display="none">
	<text transform="matrix(1 0 0 1 422.876 964.2812)" display="inline" fill="#ED1E79" font-family="'ArialMT'" font-size="256">U+F71B</text>
</g>
</svg>
