<?xml version="1.0" encoding="utf-8"?>
<!-- Generator: Adobe Illustrator 17.0.0, SVG Export Plug-In . SVG Version: 6.00 Build 0)  -->
<!DOCTYPE svg PUBLIC "-//W3C//DTD SVG 1.1//EN" "http://www.w3.org/Graphics/SVG/1.1/DTD/svg11.dtd">
<svg version="1.1" xmlns="http://www.w3.org/2000/svg" xmlns:xlink="http://www.w3.org/1999/xlink" x="0px" y="0px" width="1792px"
	 height="1792px" viewBox="0 0 1792 1792" enable-background="new 0 0 1792 1792" xml:space="preserve">
<g id="Guide">
</g>
<g id="Font" display="none">
</g>
<g id="内容">
	<g>
		<path d="M1728,1280h-544.003c-17.674,0-32,14.327-32,32v96h-512v-96c0-17.673-14.326-32-32-32h-544c-35.347,0-64,28.654-64,64v384
			c0,35.346,28.653,64,64,64H1728c35.346,0,64-28.654,64-64v-384C1792,1308.654,1763.346,1280,1728,1280z"/>
		<path d="M1792,768L1536.003,0H256L0,768v384c0,35.346,28.653,64,64,64h1664.003c35.346,0,64-28.654,64-64V768H1792z M1184,704
			c-17.674,0-32,14.327-32,32v96H640v-96c0-17.673-14.327-32-32-32H128L320,64h1152l192,640H1184z"/>
	</g>
</g>
<g id="ラベル">
</g>
<g id="Unicode" display="none">
	<text transform="matrix(1 0 0 1 430.0635 964.2812)" display="inline" fill="#ED1E79" font-family="'ArialMT'" font-size="256">U+F71F</text>
</g>
</svg>
