<?xml version="1.0" encoding="utf-8"?>
<!-- Generator: Adobe Illustrator 17.0.0, SVG Export Plug-In . SVG Version: 6.00 Build 0)  -->
<!DOCTYPE svg PUBLIC "-//W3C//DTD SVG 1.1//EN" "http://www.w3.org/Graphics/SVG/1.1/DTD/svg11.dtd">
<svg version="1.1" xmlns="http://www.w3.org/2000/svg" xmlns:xlink="http://www.w3.org/1999/xlink" x="0px" y="0px" width="1792px"
	 height="1792px" viewBox="0 0 1792 1792" enable-background="new 0 0 1792 1792" xml:space="preserve">
<g id="Guide">
</g>
<g id="Font" display="none">
	<path display="inline" d="M740.715,1206.572v155.286h310.571v-155.286H740.715z M529.524,740.714h222.06
		c4.658,0,10.87,0,18.634,1.553c15.529,1.553,20.188,1.553,26.399-4.659c3.106-1.553,4.658-6.211,4.658-12.423
		c0-12.423,1.553-23.293,7.765-31.057c1.553-3.106,3.106-6.211,4.658-9.317c1.553-1.553,4.659-4.659,9.317-6.211
		s7.764-1.553,9.317-3.106c4.658-1.553,23.292-3.106,27.951-3.106c1.553,0,7.765,0,18.634,0c9.317,0,15.529,0,18.635,0
		c38.821,0,63.667,23.293,63.667,55.903c0,43.48-3.105,45.033-48.139,76.09c-4.658,1.553-10.87,3.106-18.634,4.659
		c-15.529,6.211-65.221,31.057-94.725,63.667c-31.058,32.61-60.562,99.383-59.008,178.579h310.571
		c4.657-3.106,12.423-7.764,21.74-12.423c18.634-10.87,74.536-59.009,110.253-111.806c35.716-52.797,69.876-147.522,69.876-251.563
		c0-105.594-41.925-186.343-91.616-228.27c-51.246-41.927-131.994-66.773-181.685-72.984c-26.398-3.106-52.797-4.659-80.749-4.659
		c-104.043,0-184.79,23.293-256.222,77.643C571.452,503.126,529.524,604.062,529.524,740.714z M71.431,1243.841
		C23.293,1133.588,0,1018.676,0,896c0-243.799,100.935-473.622,262.434-635.12C422.377,100.936,652.201,0,896,0
		c243.8,0,473.622,100.936,635.12,260.88C1691.062,422.378,1792,652.201,1792,896s-100.938,473.622-260.88,633.567
		C1369.622,1691.064,1139.8,1792,896,1792c-243.799,0-473.623-100.936-633.566-262.433
		C181.685,1450.371,118.018,1354.094,71.431,1243.841z"/>
</g>
<g id="内容">
	<path d="M1536,768h-192V451.5C1344,202.143,1141.854,0,892.5,0C643.144,0,441,202.143,441,451.5V768H256
		c-70.693,0-128,57.308-128,128v768c0,70.692,57.307,128,128,128h1280c70.692,0,128-57.308,128-128V896
		C1664,825.308,1606.692,768,1536,768z M984.356,1322.494L1024.001,1600H767.999l39.644-277.506
		C746.068,1290.519,704,1226.176,704,1152c0-106.038,85.961-192,192-192s192,85.961,192,192
		C1088,1226.176,1045.93,1290.519,984.356,1322.494z M1152,768H640V448c0-141.385,114.615-256,256-256s256,114.615,256,256V768z"/>
</g>
<g id="ラベル">
</g>
<g id="Unicode" display="none">
	<text transform="matrix(1 0 0 1 437.0635 964.2812)" display="inline" fill="#ED1E79" font-family="'ArialMT'" font-size="256">U+F704</text>
</g>
</svg>
