<?xml version="1.0" encoding="utf-8"?>
<!-- Generator: Adobe Illustrator 17.1.0, SVG Export Plug-In . SVG Version: 6.00 Build 0)  -->
<!DOCTYPE svg PUBLIC "-//W3C//DTD SVG 1.1//EN" "http://www.w3.org/Graphics/SVG/1.1/DTD/svg11.dtd">
<svg version="1.1" xmlns="http://www.w3.org/2000/svg" xmlns:xlink="http://www.w3.org/1999/xlink" x="0px" y="0px"
	 viewBox="0 0 1792 1792" enable-background="new 0 0 1792 1792" xml:space="preserve">
<g id="Guide">
</g>
<g id="オブジェクト">
	<g>
		<circle cx="895.365" cy="191.788" r="191.789"/>
		<path d="M223.972,1471.945L448,1695.973l191.999-192l0,0.001l255.534-255.534L1216,1571.254l0.742,2.188
			c-47.579,69.102-53.13,149.671-8.506,194.294c11.221,11.222,24.722,19.258,39.736,24.264L1472,1567.972l-192-191.999h0.001
			l-233.763-233.763c8.173-10.399,15.284-21.671,21.193-33.641L1344,832l-276.57-276.57
			c-31.297-63.395-96.583-107.007-172.065-107.007c-76.46,0-142.463,44.748-173.268,109.479L576,704L448,576
			c-27.582-27.581-71.431-28.451-97.941-1.941c-26.509,26.51-25.64,70.359,1.941,97.94c0,0,0,0,0,0.001h0l224,224l128-128v243.182
			c-0.271,4.169-0.423,8.37-0.423,12.608c0,44.735,15.317,85.892,40.992,118.514l-299.85,297.67l-2.188,0.742
			c-69.101-47.579-149.671-53.13-194.295-8.506C237.014,1443.431,228.978,1456.932,223.972,1471.945z M1152,832l-64,64V768L1152,832
			z"/>
	</g>
</g>
<g id="レイヤー_3">
</g>
<g id="Unicode" display="none">
	<text transform="matrix(1 0 0 1 437.0625 964.2812)" display="inline" fill="#ED1E79" font-family="'ArialMT'" font-size="256">U+F728</text>
</g>
</svg>
