<?xml version="1.0" encoding="utf-8"?>
<!-- Generator: Adobe Illustrator 17.0.0, SVG Export Plug-In . SVG Version: 6.00 Build 0)  -->
<!DOCTYPE svg PUBLIC "-//W3C//DTD SVG 1.1//EN" "http://www.w3.org/Graphics/SVG/1.1/DTD/svg11.dtd">
<svg version="1.1" xmlns="http://www.w3.org/2000/svg" xmlns:xlink="http://www.w3.org/1999/xlink" x="0px" y="0px" width="1792px"
	 height="1792px" viewBox="0 0 1792 1792" enable-background="new 0 0 1792 1792" xml:space="preserve">
<g id="Guide">
</g>
<g id="オブジェクト">
	<g>
		<polygon fill-rule="evenodd" clip-rule="evenodd" points="1152,0 0,0 0,1408 256,1408 256,128 1152,128 		"/>
		<polygon fill-rule="evenodd" clip-rule="evenodd" points="1472,192 320,192 320,1600 576,1600 576,320 1472,320 		"/>
		<path fill-rule="evenodd" clip-rule="evenodd" d="M640,384v1408h1152V384H640z M1664,1088h-128v448H896v-448H768V768h192l64-128
			l384,0l64,128h192V1088z"/>
		<polygon fill-rule="evenodd" clip-rule="evenodd" points="1216,768 1087.999,704 1024,832 1151.999,896 1216,832 1280,896 
			1408,832 1343.999,704 		"/>
		<circle fill-rule="evenodd" clip-rule="evenodd" cx="1216" cy="1024" r="64"/>
		<circle fill-rule="evenodd" clip-rule="evenodd" cx="1216" cy="1216" r="64"/>
	</g>
</g>
<g id="レイヤー_3">
</g>
<g id="Unicode" display="none">
	<text transform="matrix(1 0 0 1 437.0635 964.2812)" display="inline" fill="#ED1E79" font-family="'ArialMT'" font-size="256">U+F713</text>
</g>
</svg>
