<?xml version="1.0" encoding="utf-8"?>
<!-- Generator: Adobe Illustrator 17.1.0, SVG Export Plug-In . SVG Version: 6.00 Build 0)  -->
<!DOCTYPE svg PUBLIC "-//W3C//DTD SVG 1.1//EN" "http://www.w3.org/Graphics/SVG/1.1/DTD/svg11.dtd">
<svg version="1.1" xmlns="http://www.w3.org/2000/svg" xmlns:xlink="http://www.w3.org/1999/xlink" x="0px" y="0px"
	 viewBox="0 0 1792 1792" enable-background="new 0 0 1792 1792" xml:space="preserve">
<g id="Guide">
</g>
<g id="オブジェクト">
	<g>
		<path d="M0,320.203v255.594v1024.406C82.94,1523.573,238.176,1472,416,1472c177.823,0,333.06,51.573,416,128.203V575.797V320.203
			C749.06,243.573,593.823,192,416,192C238.176,192,82.94,243.573,0,320.203z"/>
		<path d="M1376,192c-177.823,0-333.06,51.573-416,128.203v255.594v1014.576c82.94-82.525,238.176-138.065,416.002-138.065
			c177.821,0,333.057,55.54,415.998,138.064V575.797V320.203C1709.06,243.573,1553.823,192,1376,192z"/>
	</g>
</g>
<g id="レイヤー_3">
</g>
<g id="Unicode" display="none">
	<text transform="matrix(1 0 0 1 437.0635 964.2812)" display="inline" fill="#ED1E79" font-family="'ArialMT'" font-size="256">U+F727</text>
</g>
</svg>
