<?xml version="1.0" encoding="utf-8"?>
<!-- Generator: Adobe Illustrator 17.0.0, SVG Export Plug-In . SVG Version: 6.00 Build 0)  -->
<!DOCTYPE svg PUBLIC "-//W3C//DTD SVG 1.1//EN" "http://www.w3.org/Graphics/SVG/1.1/DTD/svg11.dtd">
<svg version="1.1" xmlns="http://www.w3.org/2000/svg" xmlns:xlink="http://www.w3.org/1999/xlink" x="0px" y="0px" width="1792px"
	 height="1792px" viewBox="0 0 1792 1792" enable-background="new 0 0 1792 1792" xml:space="preserve">
<g id="Guide">
</g>
<g id="オブジェクト">
	<g>
		<path d="M896,1152h256v-108.761c-58.651-21.894-110.126-43.21-138.258-59.811c-6.817-17.567-38.179-65.567-43.719-90.867
			c1.801-18.808-0.89-82.695,10.287-105.439c60.819-72.394,134.556-179.32,144.387-387.379C1132.411,236.466,1020.558,0,769.432,0
			c-0.48,0-0.954,0.023-1.431,0.033C767.524,0.023,767.05,0,766.57,0C515.443,0,403.591,236.466,411.305,399.743
			c9.83,208.059,83.567,314.985,144.387,387.379c11.177,22.744,8.488,86.631,10.287,105.439c-5.54,25.3-36.902,73.3-43.719,90.867
			c-92.956,54.851-440.727,161.189-460.331,169.731c-19.605,8.542-52.824,32.969-61.926,57.396V1792H768c0,0,0-0.001,0-0.002
			c0.003,0.001,0.003,0.002,0.003,0.002l383.997,0v-125H896V1152z"/>
		<polygon points="1792,1283 1536,1283 1536,1022.839 1280,1022.839 1280,1283 1024,1283 1024,1539 1280,1539 1280,1792 1536,1792 
			1536,1539 1792,1539 		"/>
	</g>
</g>
<g id="レイヤー_3">
</g>
<g id="Unicode" display="none">
	<text transform="matrix(1 0 0 1 437.0625 964.2812)" display="inline" fill="#ED1E79" font-family="'ArialMT'" font-size="256">U+F718</text>
</g>
</svg>
