<?xml version="1.0" encoding="utf-8"?>
<!-- Generator: Adobe Illustrator 17.0.0, SVG Export Plug-In . SVG Version: 6.00 Build 0)  -->
<!DOCTYPE svg PUBLIC "-//W3C//DTD SVG 1.1//EN" "http://www.w3.org/Graphics/SVG/1.1/DTD/svg11.dtd">
<svg version="1.1" xmlns="http://www.w3.org/2000/svg" xmlns:xlink="http://www.w3.org/1999/xlink" x="0px" y="0px" width="1792px"
	 height="1792px" viewBox="0 0 1792 1792" enable-background="new 0 0 1792 1792" xml:space="preserve">
<g id="Guide">
</g>
<g id="オブジェクト">
	<path d="M896,0C599.092,0,358.4,240.692,358.4,537.6c0,448,448,537.6,448,1164.8c0,49.485,40.115,89.6,89.6,89.6
		c49.485,0,89.6-40.115,89.6-89.6c0-627.2,448-716.8,448-1164.8C1433.6,240.692,1192.907,0,896,0z M896,716.8
		c-98.97,0-179.2-80.231-179.2-179.2c0-98.969,80.23-179.2,179.2-179.2c98.969,0,179.199,80.231,179.199,179.2
		C1075.199,636.569,994.969,716.8,896,716.8z"/>
</g>
<g id="レイヤー_3">
</g>
<g id="Unicode" display="none">
	<text transform="matrix(1 0 0 1 437.0627 964.2812)" display="inline" fill="#ED1E79" font-family="'ArialMT'" font-size="256">U+F709</text>
</g>
</svg>
