<?xml version="1.0" encoding="utf-8"?>
<!-- Generator: Adobe Illustrator 17.1.0, SVG Export Plug-In . SVG Version: 6.00 Build 0)  -->
<!DOCTYPE svg PUBLIC "-//W3C//DTD SVG 1.1//EN" "http://www.w3.org/Graphics/SVG/1.1/DTD/svg11.dtd">
<svg version="1.1" xmlns="http://www.w3.org/2000/svg" xmlns:xlink="http://www.w3.org/1999/xlink" x="0px" y="0px"
	 viewBox="0 0 1792 1792" enable-background="new 0 0 1792 1792" xml:space="preserve">
<g id="Guide">
</g>
<g id="オブジェクト">
	<path d="M1376,960c-110.988,0-211.822,43.468-286.415,114.305L993.886,897.07l411.517-764.246L1408,128l-2.532-2.582
		c-1.334-68.641-55.637-124.026-122.936-125.386c-0.018,0-0.033,0-0.05,0L896,715.788L509.518,0.032c-0.017,0-0.033,0-0.05,0
		c-67.299,1.359-121.603,56.745-122.936,125.386L384,128l2.598,4.824L798.114,897.07l-95.7,177.234
		C627.822,1003.468,526.987,960,416,960C186.25,960,0,1146.25,0,1376s186.25,416,416,416c29.804,0,58.873-3.142,86.901-9.099
		c5.375-1.143,10.712-2.386,16.009-3.732L896,1078.857l377.09,700.312c5.296,1.347,10.633,2.59,16.009,3.732
		c28.029,5.957,57.097,9.099,86.901,9.099c229.75,0,416-186.25,416-416S1605.75,960,1376,960z M418.575,1599.968
		c-0.858,0.01-1.714,0.032-2.575,0.032c-123.711,0-224-100.289-224-224s100.289-224,224-224
		c79.249,0,148.886,41.155,188.704,103.259L418.575,1599.968z M1376,1600c-0.862,0-1.717-0.022-2.575-0.032l-186.13-344.709
		C1227.113,1193.155,1296.751,1152,1376,1152c123.711,0,224,100.289,224,224S1499.711,1600,1376,1600z"/>
</g>
<g id="レイヤー_3">
</g>
<g id="Unicode" display="none">
	<text transform="matrix(1 0 0 1 437.0635 964.2812)" display="inline" fill="#ED1E79" font-family="'ArialMT'" font-size="256">U+F724</text>
</g>
</svg>
