<?xml version="1.0" encoding="utf-8"?>
<!-- Generator: Adobe Illustrator 17.0.0, SVG Export Plug-In . SVG Version: 6.00 Build 0)  -->
<!DOCTYPE svg PUBLIC "-//W3C//DTD SVG 1.1//EN" "http://www.w3.org/Graphics/SVG/1.1/DTD/svg11.dtd">
<svg version="1.1" xmlns="http://www.w3.org/2000/svg" xmlns:xlink="http://www.w3.org/1999/xlink" x="0px" y="0px" width="1792px"
	 height="1792px" viewBox="0 0 1792 1792" enable-background="new 0 0 1792 1792" xml:space="preserve">
<g id="Guide">
</g>
<g id="オブジェクト">
	<path d="M896,512c-640,0-640,192.001-896,64c0,0,0,384,128,576.001c50.205,75.309,128,192,256,192c256,0,380.769-192,508.769-192
		c0.973,0,2.053-0.094,3.231-0.271c1.178,0.177,2.258,0.271,3.231,0.271c128,0,252.769,192,508.769,192
		c128,0,205.795-116.691,256-192C1792,960,1792,576,1792,576C1536,704.001,1536,512,896,512z M511.986,1088.001
		c-104.689,0-197.632-50.278-256.014-128c58.382-77.722,151.324-128,256.014-128s197.632,50.278,256.014,128
		C709.618,1037.723,616.676,1088.001,511.986,1088.001z M1280.014,1088.001c-104.689,0-197.632-50.278-256.014-128
		c58.382-77.722,151.324-128,256.014-128s197.632,50.278,256.014,128C1477.646,1037.723,1384.703,1088.001,1280.014,1088.001z"/>
</g>
<g id="レイヤー_3">
</g>
<g id="Unicode" display="none">
	<text transform="matrix(1 0 0 1 430.0635 964.2812)" display="inline" fill="#ED1E79" font-family="'ArialMT'" font-size="256">U+F73F</text>
</g>
</svg>
