<?xml version="1.0" encoding="utf-8"?>
<!-- Generator: Adobe Illustrator 17.1.0, SVG Export Plug-In . SVG Version: 6.00 Build 0)  -->
<!DOCTYPE svg PUBLIC "-//W3C//DTD SVG 1.1//EN" "http://www.w3.org/Graphics/SVG/1.1/DTD/svg11.dtd">
<svg version="1.1" xmlns="http://www.w3.org/2000/svg" xmlns:xlink="http://www.w3.org/1999/xlink" x="0px" y="0px"
	 viewBox="0 0 1792 1792" enable-background="new 0 0 1792 1792" xml:space="preserve">
<g id="Guide">
</g>
<g id="オブジェクト">
	<g>
		<circle cx="447.493" cy="1408.507" r="191.493"/>
		<circle cx="1344.507" cy="1408.507" r="191.493"/>
		<path d="M1792.001,321.014c0-70.692-57.308-128-128-128c-0.052,0-0.103,0.002-0.155,0.002l-1535.846-0.002c0,0-0.001,0-0.001,0
			c-70.692,0-128,57.308-128,128c0,0.339,0.01,0.676,0.013,1.015H0.001v1024h134.124c29.053-146.536,158.3-257.015,313.368-257.015
			s284.315,110.479,313.368,257.015h270.278c29.053-146.536,158.3-257.015,313.368-257.015s284.314,110.479,313.369,257.015H1792
			V322.03h-0.012C1791.991,321.691,1792.001,321.353,1792.001,321.014z M512.001,961.014H128V448
			c0-65.215,48.77-119.035,111.826-126.986h272.175V961.014z M896,705.014H640v-384h256V705.014z M1280,705.014h-256v-384h256
			V705.014z M1664,705.014h-256v-384h144.173C1615.23,328.965,1664,382.786,1664,448V705.014z"/>
	</g>
</g>
<g id="レイヤー_3">
</g>
<g id="Unicode" display="none">
	<text transform="matrix(1 0 0 1 422.8755 964.2812)" display="inline" fill="#ED1E79" font-family="'ArialMT'" font-size="256">U+F72A</text>
</g>
</svg>
