<?xml version="1.0" encoding="utf-8"?>
<!-- Generator: Adobe Illustrator 17.1.0, SVG Export Plug-In . SVG Version: 6.00 Build 0)  -->
<!DOCTYPE svg PUBLIC "-//W3C//DTD SVG 1.1//EN" "http://www.w3.org/Graphics/SVG/1.1/DTD/svg11.dtd">
<svg version="1.1" xmlns="http://www.w3.org/2000/svg" xmlns:xlink="http://www.w3.org/1999/xlink" x="0px" y="0px"
	 viewBox="0 0 1792 1792" enable-background="new 0 0 1792 1792" xml:space="preserve">
<g id="Guide">
</g>
<g id="オブジェクト">
	<g>
		<circle cx="893" cy="192" r="192"/>
		<path d="M1472,869.49c-0.872-0.871-1.766-1.705-2.674-2.516L1024,448H768L322.674,866.975c-0.908,0.811-1.803,1.644-2.674,2.516
			c-24.994,24.994-24.994,65.516,0,90.51c24.993,24.993,65.516,24.994,90.51,0l277.836-253.123L512,1280h192v448
			c0,35.347,28.654,64,64,64c35.346,0,64-28.653,64-64v-448h128v448c0,35.347,28.654,64,64,64c35.346,0,64-28.653,64-64v-448h192
			l-176.346-573.123L1381.49,960c24.994,24.994,65.517,24.993,90.51,0C1496.994,935.006,1496.994,894.484,1472,869.49z"/>
	</g>
</g>
<g id="レイヤー_3">
</g>
<g id="Unicode" display="none">
	<text transform="matrix(1 0 0 1 437.0625 964.2812)" display="inline" fill="#ED1E79" font-family="'ArialMT'" font-size="256">U+F730</text>
</g>
</svg>
