<?xml version="1.0" encoding="utf-8"?>
<!-- Generator: Adobe Illustrator 17.0.2, SVG Export Plug-In . SVG Version: 6.00 Build 0)  -->
<!DOCTYPE svg PUBLIC "-//W3C//DTD SVG 1.1//EN" "http://www.w3.org/Graphics/SVG/1.1/DTD/svg11.dtd">
<svg version="1.1" xmlns="http://www.w3.org/2000/svg" xmlns:xlink="http://www.w3.org/1999/xlink" x="0px" y="0px" width="1792px"
	 height="1792px" viewBox="0 0 1792 1792" enable-background="new 0 0 1792 1792" xml:space="preserve">
<g id="Guide">
</g>
<g id="オブジェクト">
	<g>
		<path d="M640.835,256.626L896,448l255.165-191.374c30.739-23.248,65.81-41.064,103.779-52.049L896,0L537.679,204.755
			C575.409,215.754,610.264,233.505,640.835,256.626z"/>
		<path d="M1792,510.667l-138.092-78.704c6.587,25.581,10.092,52.4,10.092,80.038c0,176.731-143.27,320-320,320
			c-72.413,0-139.199-24.065-192.823-64.618l-22.45-16.837L1408,1216l-128,64L896,640l-384,640l-128-64l279.273-465.455
			l-22.45,16.837C587.199,807.935,520.413,832,448,832c-176.73,0-320-143.269-320-320c0-27.168,3.398-53.539,9.77-78.726
			L1.166,511.333L0,510.667V1344l893,448l899-448V510.667l-0.328,0.188L1792,510.667z"/>
		<path d="M1229.581,360.312l-0.208,0.157l-0.208,0.156L1027.333,512l201.844,151.382l0.207,0.155l0.206,0.156
			C1262.729,688.754,1302.291,702,1344,702c50.751,0,98.464-19.764,134.35-55.65c35.887-35.887,55.65-83.6,55.65-134.35
			s-19.764-98.464-55.65-134.35C1442.464,341.764,1394.751,322,1344,322C1302.288,322,1262.723,335.249,1229.581,360.312z"/>
		<path d="M448,702c41.709,0,81.271-13.246,114.41-38.307l0.206-0.156l0.207-0.155L764.667,512L562.835,360.626l-0.208-0.156
			l-0.208-0.157C529.277,335.249,489.712,322,448,322c-50.751,0-98.464,19.764-134.35,55.65C277.764,413.536,258,461.25,258,512
			s19.764,98.463,55.65,134.35C349.536,682.236,397.249,702,448,702z"/>
	</g>
</g>
<g id="レイヤー_3">
</g>
<g id="Unicode" display="none">
	<text transform="matrix(1 0 0 1 415.8135 964.2812)" display="inline" fill="#ED1E79" font-family="'ArialMT'" font-size="256">U+F71C</text>
</g>
</svg>
