<?xml version="1.0" encoding="utf-8"?>
<!-- Generator: Adobe Illustrator 17.0.0, SVG Export Plug-In . SVG Version: 6.00 Build 0)  -->
<!DOCTYPE svg PUBLIC "-//W3C//DTD SVG 1.1//EN" "http://www.w3.org/Graphics/SVG/1.1/DTD/svg11.dtd">
<svg version="1.1" xmlns="http://www.w3.org/2000/svg" xmlns:xlink="http://www.w3.org/1999/xlink" x="0px" y="0px" width="1792px"
	 height="1792px" viewBox="0 0 1792 1792" enable-background="new 0 0 1792 1792" xml:space="preserve">
<g id="Guide">
</g>
<g id="オブジェクト">
	<path d="M1536,0H256C114.613,0,0,114.615,0,255.999V1536c0,0,0,0,0,0c0,141.385,114.613,256,256,256h1280
		c141.383,0,256-114.615,256-255.999c0,0,0,0,0,0V255.999C1792,114.615,1677.383,0,1536,0z M1220.443,1197.687
		c-114.365,142.74-264.569,170.83-384.61,163.336c-157.661-9.693-325.5-150.929-332.37-298.345
		c-5.072-116.488,53.454-279.53,275.332-300.541c55.859-5.26,118.865,11.352,130.199,71.354
		c11.061,59.74-44.781,92.883-75.258,95.116c-105.692,8.219-146.604,63.616-134.957,134.071
		c11.352,67.477,89.584,99.338,161.556,101.227c67.47,1.989,174.983-28.954,229.026-110.885
		c103.031-156.794,46.881-293.166-11.645-358.864c-82.423-92.295-196.494-147.225-389.096-57.627
		c-45.702,21.354-91.99,17.891-127.812-11.371c-20.315-16.719-34.349-55.848-25.68-88.505c7.459-28.245,22.688-55.139,70.76-81.548
		c243.684-134.384,477.795-43.284,601.438,92C1343.48,695.957,1407.072,965.313,1220.443,1197.687z"/>
</g>
<g id="レイヤー_3">
</g>
<g id="Unicode" display="none">
	<text transform="matrix(1 0 0 1 430.0635 964.2812)" display="inline" fill="#ED1E79" font-family="'ArialMT'" font-size="256">U+F70F</text>
</g>
</svg>
