<?xml version="1.0" encoding="utf-8"?>
<!-- Generator: Adobe Illustrator 17.1.0, SVG Export Plug-In . SVG Version: 6.00 Build 0)  -->
<!DOCTYPE svg PUBLIC "-//W3C//DTD SVG 1.1//EN" "http://www.w3.org/Graphics/SVG/1.1/DTD/svg11.dtd">
<svg version="1.1" xmlns="http://www.w3.org/2000/svg" xmlns:xlink="http://www.w3.org/1999/xlink" x="0px" y="0px"
	 viewBox="0 0 1792 1792" enable-background="new 0 0 1792 1792" xml:space="preserve">
<g id="Guide">
</g>
<g id="オブジェクト">
	<path d="M1405.385,866.923h-228.308V750.615h228.308V516.923h113.077v233.692h229.385v116.308h-229.385v235.846h-113.077V866.923z
		 M358.615,338.154c0,65.692,14,142.154,45.231,215.385C434,627.846,476,688.154,540.615,725.846
		c31.231,18.308,65.692,28,103.385,28c54.923,0,117.385-25.846,155.077-64.615c37.692-40.923,57.077-98,57.077-171.231
		c0-82.923-24.769-184.154-70-274.615C740.923,154,660.154,88.308,568.615,88.308c-60.308,0-123.846,30.154-159.385,77.538
		C375.846,207.846,358.615,266,358.615,338.154z M244.462,1408.615c0,100.154,54.923,179.846,136.769,221.846
		C462,1673.538,552.462,1694,646.154,1694c82.923,0,161.538-18.308,227.231-56c64.615-37.692,107.692-106.615,107.692-196
		c0-35.538-11.846-72.154-22.615-98s-47.385-65.692-61.385-82.923c-14-16.154-68.923-59.231-80.769-67.846
		c-11.846-8.615-79.692-57.077-84-60.308c-11.846-1.077-29.077-2.154-51.692-2.154c-76.461,0-148.615,8.615-228.308,34.461
		c-79.692,25.846-140,62.462-178.769,129.231C254.154,1327.846,244.462,1366.615,244.462,1408.615z M44.154,1458.154
		c0-116.308,68.923-219.692,175.538-285.385c93.692-59.231,239.077-94.769,435.077-107.692
		c-46.308-60.308-67.846-99.077-67.846-158.308c0-25.846,7.538-56,22.615-91.538c-33.385,3.231-57.077,4.308-73.231,4.308
		c-212.154,0-378-155.077-378-367.231c0-117.385,54.923-234.769,145.385-312.308C414.615,45.231,574,0,734.462,0h450.154
		L1036,94.769H894.923c106.615,90.462,161.538,186.308,161.538,315.538c0,103.385-39.846,188.462-89.385,239.077
		c-24.769,25.846-50.615,49.538-75.385,70c-50.615,43.077-90.462,89.385-90.462,137.846c0,51.692,52.769,101.231,118.462,148.615
		c64.615,48.462,133.538,100.154,179.846,191.692c22.615,46.308,34.462,96.923,34.462,152.923
		c0,129.231-79.692,297.231-278.923,379.077c-100.154,42-206.769,62.462-320.923,62.462c-189.538,0-368.308-54.923-450.154-192.769
		C57.077,1556.154,44.154,1508.769,44.154,1458.154z"/>
</g>
<g id="レイヤー_3">
</g>
<g id="Unicode" display="none">
	<text transform="matrix(1 0 0 1 437.0625 964.2812)" display="inline" fill="#ED1E79" font-family="'ArialMT'" font-size="256">U+F738</text>
</g>
</svg>
