<?xml version="1.0" encoding="utf-8"?>
<!-- Generator: Adobe Illustrator 17.0.0, SVG Export Plug-In . SVG Version: 6.00 Build 0)  -->
<!DOCTYPE svg PUBLIC "-//W3C//DTD SVG 1.1//EN" "http://www.w3.org/Graphics/SVG/1.1/DTD/svg11.dtd">
<svg version="1.1" xmlns="http://www.w3.org/2000/svg" xmlns:xlink="http://www.w3.org/1999/xlink" x="0px" y="0px" width="1792px"
	 height="1792px" viewBox="0 0 1792 1792" enable-background="new 0 0 1792 1792" xml:space="preserve">
<g id="Guide">
</g>
<g id="オブジェクト">
	<g>
		<path d="M1664,256h-436.54C1301.396,377.213,1344,519.63,1344,672c0,441.827-358.173,800-800,800
			c-210.087,0-401.255-80.985-544-213.434V1408c0,70.692,57.308,128,128,128h1536c70.692,0,128-57.308,128-128V384
			C1792,313.308,1734.692,256,1664,256z"/>
		<path d="M543.894,1344C914.99,1344,1216,1043.171,1216,671.935c0-157.045-53.93-301.519-144.27-415.935H128
			C57.308,256,0,313.308,0,384v682.639C122.122,1234.731,320.231,1344,543.894,1344z M396.085,797.008
			c8.513,50.608,67.188,74.503,121.167,75.92c50.602,1.491,131.237-21.715,171.769-83.163
			c77.273-117.596,35.16-219.875-8.734-269.148c-61.817-69.221-147.369-110.418-291.821-43.22
			c-34.277,16.016-68.993,13.418-95.86-8.528c-15.235-12.539-25.762-41.886-19.26-66.379c5.595-21.183,17.017-41.354,53.07-61.161
			c182.764-100.788,358.347-32.462,451.079,69c102.115,111.638,149.81,313.655,9.838,487.936
			c-85.774,107.055-198.428,128.122-288.459,122.503c-118.246-7.27-244.126-113.196-249.277-223.759
			c-3.803-87.366,40.09-209.648,206.499-225.406c41.896-3.945,89.149,8.514,97.649,53.516c8.297,44.805-33.586,69.662-56.442,71.337
			C418.031,702.619,387.35,744.167,396.085,797.008z"/>
	</g>
</g>
<g id="レイヤー_3">
</g>
<g id="Unicode" display="none">
	<text transform="matrix(1 0 0 1 415.8135 964.2812)" display="inline" fill="#ED1E79" font-family="'ArialMT'" font-size="256">U+F70D</text>
</g>
</svg>
