<?xml version="1.0" encoding="utf-8"?>
<!-- Generator: Adobe Illustrator 17.1.0, SVG Export Plug-In . SVG Version: 6.00 Build 0)  -->
<!DOCTYPE svg PUBLIC "-//W3C//DTD SVG 1.1//EN" "http://www.w3.org/Graphics/SVG/1.1/DTD/svg11.dtd">
<svg version="1.1" xmlns="http://www.w3.org/2000/svg" xmlns:xlink="http://www.w3.org/1999/xlink" x="0px" y="0px"
	 viewBox="0 0 1792 1792" enable-background="new 0 0 1792 1792" xml:space="preserve">
<g id="Guide">
</g>
<g id="オブジェクト">
	<path d="M1504.577,908.25L1536,704H597.935l122.337-448H960V128H640L429.547,898.68C414.61,896.914,399.412,896,384,896
		C171.923,896,0,1067.923,0,1280c0,212.078,171.923,384,384,384s384-171.922,384-384c0-157.748-95.123-293.275-231.135-352.362
		l17.11-62.657l472.494,371.245c-1.63,14.366-2.469,28.973-2.469,43.774c0,212.078,171.923,384,384,384
		c212.077,0,384-171.922,384-384C1792,1101.28,1669.905,951.079,1504.577,908.25z M640,1280c0,141.385-114.615,256-256,256
		c-141.385,0-256-114.615-256-256s114.615-256,256-256c3.772,0,7.521,0.099,11.254,0.26l-57.842,211.817l90.51,90.51l74.684-273.493
		C584.27,1095.869,640,1181.42,640,1280z M1060.225,1116.98L704,832h704l-8.011,64.09
		C1249.612,899.168,1120.468,988.685,1060.225,1116.98z M1408,1536c-141.385,0-256-114.615-256-256s114.615-256,256-256
		c141.385,0,256,114.615,256,256S1549.385,1536,1408,1536z"/>
</g>
<g id="レイヤー_3">
</g>
<g id="Unicode" display="none">
	<text transform="matrix(1 0 0 1 437.0627 964.2812)" display="inline" fill="#ED1E79" font-family="'ArialMT'" font-size="256">U+F729</text>
</g>
</svg>
