<?xml version="1.0" encoding="utf-8"?>
<!-- Generator: Adobe Illustrator 17.0.0, SVG Export Plug-In . SVG Version: 6.00 Build 0)  -->
<!DOCTYPE svg PUBLIC "-//W3C//DTD SVG 1.1//EN" "http://www.w3.org/Graphics/SVG/1.1/DTD/svg11.dtd">
<svg version="1.1" xmlns="http://www.w3.org/2000/svg" xmlns:xlink="http://www.w3.org/1999/xlink" x="0px" y="0px" width="1792px"
	 height="1792px" viewBox="0 0 1792 1792" enable-background="new 0 0 1792 1792" xml:space="preserve">
<g id="Guide">
</g>
<g id="オブジェクト">
	<path d="M1792.285,1450.261c-1.364-1.292-2.712-2.6-4.083-3.885c-149.819-140.31-345.63-232.094-562.38-250.305
		c-38.516,49.02-71.682,102.438-98.652,159.364c-82.632-34.79-160.891-77.916-233.718-128.337
		c-128.29-88.822-239.729-200.26-328.55-328.551c-50.421-72.827-93.547-151.086-128.337-233.718
		c56.926-26.97,110.344-60.136,159.364-98.652C577.717,349.428,485.933,153.617,345.623,3.798c-1.284-1.371-2.592-2.72-3.884-4.083
		C212.821,57.121,97.001,138.616,0,238.497c40.282,176.293,103.082,344.008,185.232,499.947
		c75.94,144.152,168.404,278.245,274.875,399.756c60.234,68.743,124.95,133.459,193.693,193.693
		c121.512,106.472,255.605,198.936,399.756,274.876c155.939,82.149,323.654,144.949,499.946,185.232
		C1653.383,1694.999,1734.879,1579.179,1792.285,1450.261z"/>
</g>
<g id="レイヤー_3">
</g>
<g id="Unicode" display="none">
	<text transform="matrix(1 0 0 1 437.0625 964.2812)" display="inline" fill="#ED1E79" font-family="'ArialMT'" font-size="256">U+F708</text>
</g>
</svg>
