<?xml version="1.0" encoding="utf-8"?>
<!-- Generator: Adobe Illustrator 17.1.0, SVG Export Plug-In . SVG Version: 6.00 Build 0)  -->
<!DOCTYPE svg PUBLIC "-//W3C//DTD SVG 1.1//EN" "http://www.w3.org/Graphics/SVG/1.1/DTD/svg11.dtd">
<svg version="1.1" xmlns="http://www.w3.org/2000/svg" xmlns:xlink="http://www.w3.org/1999/xlink" x="0px" y="0px"
	 viewBox="0 0 1792 1792" enable-background="new 0 0 1792 1792" xml:space="preserve">
<g id="Guide">
</g>
<g id="オブジェクト">
	<path d="M1792.001,576c0-70.692-57.308-128-128-128c-0.053,0-0.103,0.002-0.155,0.002h-170.515L1664,320l-256-192l-256,192
		l170.668,128.002L469.333,448L640,320L384,128L128,320l170.668,128H128.001H128C57.308,448,0,505.308,0,576
		c0,0.678,0.015,1.352,0.026,2.028H0.001v896h143.774c-10.05,18.229-15.775,39.177-15.775,61.465
		c0,70.413,57.081,127.493,127.493,127.493c70.412,0,127.493-57.08,127.493-127.493c0-22.288-5.725-43.236-15.776-61.465h96.565
		c-10.05,18.229-15.775,39.177-15.775,61.465c0,70.413,57.081,127.493,127.493,127.493c70.413,0,127.494-57.08,127.494-127.493
		c0-22.288-5.726-43.236-15.775-61.465h416.564c-10.05,18.229-15.775,39.177-15.775,61.465c0,70.413,57.081,127.493,127.493,127.493
		c70.413,0,127.494-57.08,127.494-127.493c0-22.288-5.726-43.236-15.775-61.465h96.564c-10.05,18.229-15.775,39.177-15.775,61.465
		c0,70.413,57.081,127.493,127.493,127.493c70.413,0,127.494-57.08,127.494-127.493c0-22.288-5.726-43.236-15.775-61.465H1792
		V578.029h-0.025C1791.985,577.354,1792.001,576.679,1792.001,576z M1408,203l156,117l-156,117l-156-117L1408,203z M384,203l156,117
		L384,437L228,320L384,203z M1664,704v257.014h-320v-384h208.173C1615.23,584.965,1664,638.786,1664,704z M960,577.014h256v384H960
		V577.014z M576,577.014h256v384H576V577.014z M128,704c0-65.215,48.77-119.035,111.826-126.986H448v384H128V704z M1728,1216H64v-64
		h1664V1216z"/>
</g>
<g id="レイヤー_3">
</g>
<g id="Unicode" display="none">
	<text transform="matrix(1 0 0 1 422.876 964.2812)" display="inline" fill="#ED1E79" font-family="'ArialMT'" font-size="256">U+F72B</text>
</g>
</svg>
