<?xml version="1.0" encoding="utf-8"?>
<!-- Generator: Adobe Illustrator 17.0.0, SVG Export Plug-In . SVG Version: 6.00 Build 0)  -->
<!DOCTYPE svg PUBLIC "-//W3C//DTD SVG 1.1//EN" "http://www.w3.org/Graphics/SVG/1.1/DTD/svg11.dtd">
<svg version="1.1" xmlns="http://www.w3.org/2000/svg" xmlns:xlink="http://www.w3.org/1999/xlink" x="0px" y="0px" width="1792px"
	 height="1792px" viewBox="0 0 1792 1792" enable-background="new 0 0 1792 1792" xml:space="preserve">
<g id="Guide">
</g>
<g id="オブジェクト">
	<g>
		<path d="M544.002,0C395.213,0,272.788,112.831,257.598,257.596C112.833,272.786,0,395.211,0,544c0,159.058,128.942,288,288,288
			h448.002c53.018,0,96-42.981,96-96V288C832.002,128.942,703.059,0,544.002,0z"/>
		<path d="M1056,832h448.002c159.057,0,288-128.942,288-288c0-148.789-112.833-271.214-257.599-286.404
			C1519.213,112.831,1396.788,0,1248,0c-159.058,0-288,128.942-288,288v448C960,789.019,1002.981,832,1056,832z"/>
		<path d="M736.002,960H288C128.942,960,0,1088.942,0,1248c0,148.789,112.833,271.214,257.598,286.404
			C272.788,1679.168,395.213,1792,544.002,1792c159.057,0,288-128.942,288-288v-448C832.002,1002.981,789.021,960,736.002,960z"/>
		<path d="M1504.002,960H1056c-53.019,0-96,42.981-96,96v448c0,159.058,128.942,288,288,288
			c148.788,0,271.213-112.832,286.403-257.596c144.766-15.19,257.599-137.615,257.599-286.404
			C1792.002,1088.942,1663.059,960,1504.002,960z"/>
	</g>
</g>
<g id="レイヤー_3">
</g>
<g id="Unicode" display="none">
	<text transform="matrix(1 0 0 1 437.0635 964.2812)" display="inline" fill="#ED1E79" font-family="'ArialMT'" font-size="256">U+F716</text>
</g>
</svg>
