<?xml version="1.0" encoding="utf-8"?>
<!-- Generator: Adobe Illustrator 17.1.0, SVG Export Plug-In . SVG Version: 6.00 Build 0)  -->
<!DOCTYPE svg PUBLIC "-//W3C//DTD SVG 1.1//EN" "http://www.w3.org/Graphics/SVG/1.1/DTD/svg11.dtd">
<svg version="1.1" xmlns="http://www.w3.org/2000/svg" xmlns:xlink="http://www.w3.org/1999/xlink" x="0px" y="0px"
	 viewBox="0 0 1792 1792" enable-background="new 0 0 1792 1792" xml:space="preserve">
<g id="Guide">
</g>
<g id="オブジェクト">
	<g>
		<path d="M1671.793,1087.762C1613.868,1124.031,1545.383,1145,1472,1145c-39.807,0-78.169-6.176-114.19-17.61
			c-43.293,49.622-93.132,92.28-147.989,126.297C1180.629,1341.679,1051.23,1408,896,1408c-155.231,0-284.63-66.321-313.821-154.313
			c-103.435-64.14-189.03-159.003-246.546-273.334C131.007,1050.729,0,1158.807,0,1280c0,212.078,401.153,384,896,384
			s896-171.922,896-384C1792,1209.957,1748.232,1144.297,1671.793,1087.762z"/>
		<path d="M640.063,1213.509c-0.032,0.829-0.063,1.658-0.063,2.491c0,70.692,114.615,128,256,128c141.384,0,256-57.308,256-128
			c0-0.833-0.031-1.662-0.062-2.491c69.641-38.442,131.278-92.091,181.413-157.025c41.948,20.198,88.977,31.517,138.65,31.517
			c176.731,0,320-143.269,320-320s-143.269-320-320-320c0-176.73-257.884-320-576-320c-318.116,0-576,143.27-576,320v192
			C320,891.315,450.369,1108.797,640.063,1213.509z M1472,576c106.038,0,192,85.961,192,192s-85.962,192-192,192
			c-24.828,0-48.555-4.713-70.336-13.293C1446.503,855.635,1472,751.128,1472,640V576z M385.62,596.465
			C384.552,589.713,384,582.889,384,576c0-141.385,229.23-256,512-256s512,114.615,512,256c0,6.889-0.552,13.713-1.62,20.465
			C1310.074,698.438,1117.662,768,896,768C674.337,768,481.925,698.438,385.62,596.465z"/>
	</g>
</g>
<g id="レイヤー_3">
</g>
<g id="Unicode" display="none">
	<text transform="matrix(1 0 0 1 437.0635 964.2812)" display="inline" fill="#ED1E79" font-family="'ArialMT'" font-size="256">U+F723</text>
</g>
</svg>
