<?xml version="1.0" encoding="utf-8"?>
<!-- Generator: Adobe Illustrator 17.1.0, SVG Export Plug-In . SVG Version: 6.00 Build 0)  -->
<!DOCTYPE svg PUBLIC "-//W3C//DTD SVG 1.1//EN" "http://www.w3.org/Graphics/SVG/1.1/DTD/svg11.dtd">
<svg version="1.1" xmlns="http://www.w3.org/2000/svg" xmlns:xlink="http://www.w3.org/1999/xlink" x="0px" y="0px"
	 viewBox="0 0 1792 1792" enable-background="new 0 0 1792 1792" xml:space="preserve">
<g id="Guide">
</g>
<g id="オブジェクト">
	<path id="White_1_" d="M1693.096,0H98.904C44.272,0,0,44.272,0,98.904v1594.191C0,1747.715,44.272,1792,98.904,1792h858.258
		v-693.956H723.632V827.595h233.531V628.147c0-231.458,141.367-357.491,347.843-357.491c98.904,0,183.908,7.364,208.68,10.655
		v241.887l-143.202,0.065c-112.293,0-134.036,53.36-134.036,131.663v172.669h267.81l-34.87,270.449h-232.94V1792h456.648
		c54.619,0,98.904-44.285,98.904-98.904V98.904C1792,44.272,1747.715,0,1693.096,0z"/>
</g>
<g id="レイヤー_3">
</g>
<g id="Unicode" display="none">
	<text transform="matrix(1 0 0 1 437.0635 964.2812)" display="inline" fill="#ED1E79" font-family="'ArialMT'" font-size="256">U+F737</text>
</g>
</svg>
