<?xml version="1.0" encoding="utf-8"?>
<!-- Generator: Adobe Illustrator 17.1.0, SVG Export Plug-In . SVG Version: 6.00 Build 0)  -->
<!DOCTYPE svg PUBLIC "-//W3C//DTD SVG 1.1//EN" "http://www.w3.org/Graphics/SVG/1.1/DTD/svg11.dtd">
<svg version="1.1" xmlns="http://www.w3.org/2000/svg" xmlns:xlink="http://www.w3.org/1999/xlink" x="0px" y="0px"
	 viewBox="0 0 1792 1792" enable-background="new 0 0 1792 1792" xml:space="preserve">
<g id="Guide">
</g>
<g id="オブジェクト">
	<path d="M1592,0H200C90,0,0,90,0,200v1392c0,110,90,200,200,200h1392c110,0,200-90,200-200V200C1792,90,1702,0,1592,0z
		 M1419.943,643.247c0.813,7.314,0.813,18.692,0.813,34.134c0,140.594-40.634,283.628-124.341,412.846
		c-84.52,129.218-196.671,230.805-360.022,289.318c-82.082,30.069-169.039,44.698-262.499,44.698
		c-147.097,0-281.19-39.009-403.094-117.84c18.692,2.44,39.821,3.252,63.39,3.252c121.903,0,230.804-37.385,325.889-112.152
		c-113.777-2.438-212.112-77.206-245.432-182.042c17.879,2.438,34.133,4.063,49.574,4.063c23.569,0,46.324-3.251,69.079-8.94
		c-121.09-25.193-210.486-130.843-210.486-257.623v-3.251c36.571,20.317,76.393,31.695,118.652,33.32
		c-71.517-47.948-117.027-128.405-117.027-218.613c0-47.948,12.19-91.835,35.758-132.469
		c130.843,161.725,326.701,264.125,541.252,274.69c-4.063-20.317-6.501-40.636-6.501-60.14
		c0-145.472,117.027-262.498,262.499-262.498c75.58,0,139.783,27.631,191.795,82.894c59.326-11.378,114.589-32.507,166.601-63.389
		c-20.318,62.576-58.514,110.526-115.402,144.659c50.387-5.689,100.773-18.692,151.16-40.634
		C1515.029,560.354,1471.143,605.864,1419.943,643.247z"/>
</g>
<g id="レイヤー_3">
</g>
<g id="Unicode" display="none">
	<text transform="matrix(1 0 0 1 437.0635 964.2812)" display="inline" fill="#ED1E79" font-family="'ArialMT'" font-size="256">U+F735</text>
</g>
</svg>
