<?xml version="1.0" encoding="utf-8"?>
<!-- Generator: Adobe Illustrator 17.1.0, SVG Export Plug-In . SVG Version: 6.00 Build 0)  -->
<!DOCTYPE svg PUBLIC "-//W3C//DTD SVG 1.1//EN" "http://www.w3.org/Graphics/SVG/1.1/DTD/svg11.dtd">
<svg version="1.1" xmlns="http://www.w3.org/2000/svg" xmlns:xlink="http://www.w3.org/1999/xlink" x="0px" y="0px"
	 viewBox="0 0 1792 1792" enable-background="new 0 0 1792 1792" xml:space="preserve">
<g id="Guide">
</g>
<g id="オブジェクト">
	<g>
		<circle cx="447.492" cy="1408.507" r="191.493"/>
		<circle cx="1344.507" cy="1408.507" r="191.493"/>
		<path d="M1792,1152c0-159.167-64.561-303.254-168.922-407.507C1525.761,497.058,1265.63,320,960,320
			c-314.157,0-580.241,187.075-670.841,445.367C116.354,854.351,0,1021.264,0,1212.5c0,0.753,0.009,1.505,0.016,2.256
			C0.012,1215.171,0,1215.584,0,1216c0,70.692,57.308,128,128,128h6.517c29.837-145.529,158.622-254.986,312.976-254.986
			S730.632,1198.471,760.469,1344h271.061c29.837-145.529,158.624-254.986,312.977-254.986
			c154.354,0,283.14,109.457,312.977,254.986H1664c70.692,0,128-57.308,128-128c0-6.975-0.566-13.815-1.64-20.487
			C1791.437,1181.147,1792,1166.641,1792,1152z M402.147,832C466.089,611.171,691.607,448,960,448c21.633,0,42.986,1.066,64,3.131
			V832H402.147z M1152,832V477.137c179.361,56.352,317.95,189.426,365.854,354.863H1152z"/>
	</g>
</g>
<g id="レイヤー_3">
</g>
<g id="Unicode" display="none">
	<text transform="matrix(1 0 0 1 422.876 964.2812)" display="inline" fill="#ED1E79" font-family="'ArialMT'" font-size="256">U+F72E</text>
</g>
</svg>
