<?xml version="1.0" encoding="utf-8"?>
<!-- Generator: Adobe Illustrator 17.1.0, SVG Export Plug-In . SVG Version: 6.00 Build 0)  -->
<!DOCTYPE svg PUBLIC "-//W3C//DTD SVG 1.1//EN" "http://www.w3.org/Graphics/SVG/1.1/DTD/svg11.dtd">
<svg version="1.1" xmlns="http://www.w3.org/2000/svg" xmlns:xlink="http://www.w3.org/1999/xlink" x="0px" y="0px"
	 viewBox="0 0 1792 1792" enable-background="new 0 0 1792 1792" xml:space="preserve">
<g id="Guide">
</g>
<g id="オブジェクト">
	<path d="M1152,0C798.537,0,512,286.536,512,640c0,115.101,30.392,223.099,83.578,316.423l-356.276,356.276L0.69,1551.311
		c-0.001,0.346-0.014,0.689-0.014,1.035c0,0.116,0.005,0.229,0.005,0.346c0.186,132.085,107.224,239.123,239.31,239.309
		c0.004,0,0.006,0,0.006,0l239.994-239.99l355.587-355.587C928.901,1249.607,1036.899,1280,1152,1280c353.463,0,640-286.54,640-640
		C1792,286.536,1505.463,0,1152,0z M1152,1024c-212.079,0-384-171.924-384-384c0-212.08,171.921-384,384-384
		c212.076,0,384,171.92,384,384C1536,852.076,1364.076,1024,1152,1024z"/>
</g>
<g id="レイヤー_3">
</g>
<g id="Unicode" display="none">
	<text transform="matrix(1 0 0 1 422.876 964.2812)" display="inline" fill="#ED1E79" font-family="'ArialMT'" font-size="256">U+F71E</text>
</g>
</svg>
