<?xml version="1.0" encoding="utf-8"?>
<!-- Generator: Adobe Illustrator 17.0.0, SVG Export Plug-In . SVG Version: 6.00 Build 0)  -->
<!DOCTYPE svg PUBLIC "-//W3C//DTD SVG 1.1//EN" "http://www.w3.org/Graphics/SVG/1.1/DTD/svg11.dtd">
<svg version="1.1" xmlns="http://www.w3.org/2000/svg" xmlns:xlink="http://www.w3.org/1999/xlink" x="0px" y="0px" width="1792px"
	 height="1792px" viewBox="0 0 1792 1792" enable-background="new 0 0 1792 1792" xml:space="preserve">
<g id="Guide">
</g>
<g id="オブジェクト">
	<g>
		<path d="M1059.011,622.557c-22.054-31.259-35.014-69.393-35.014-110.557c0-106.04,85.96-192,192-192c106.037,0,192,85.96,192,192
			c0,56.44-24.355,107.19-63.127,142.319l217.25,24.14c9.897-20.541,18.028-42.092,24.177-64.466l132.635-5.592
			c5.948-31.222,9.066-63.447,9.066-96.401c0-32.955-3.117-65.18-9.066-96.402l-132.635-5.592
			c-8.513-30.978-20.808-60.388-36.359-87.705l89.821-97.729c-36.422-53.593-82.742-99.913-136.335-136.334l-97.729,89.82
			c-27.316-15.551-56.726-27.847-87.703-36.359L1312.4,9.065C1281.177,3.116,1248.951,0,1215.997,0
			c-32.954,0-65.18,3.116-96.402,9.064l-5.592,132.634c-30.978,8.513-60.388,20.808-87.705,36.359L928.57,88.236
			c-53.593,36.422-99.913,82.742-136.335,136.336l89.82,97.728c-15.552,27.317-27.847,56.728-36.36,87.706l-132.633,5.592
			C707.114,446.819,704,479.045,704,512c0,24.322,1.701,48.247,4.982,71.665L1059.011,622.557z"/>
		<polygon points="64,640 1600,1344 1792,832 		"/>
		<polygon points="0,700.066 768,1792 1536,1408 		"/>
		<polygon points="1536,1792 1600,1472 1216,1664 		"/>
	</g>
</g>
<g id="レイヤー_3">
</g>
<g id="Unicode" display="none">
	<text transform="matrix(1 0 0 1 437.0627 964.2812)" display="inline" fill="#ED1E79" font-family="'ArialMT'" font-size="256">U+F719</text>
</g>
</svg>
