<?xml version="1.0" encoding="utf-8"?>
<!-- Generator: Adobe Illustrator 17.1.0, SVG Export Plug-In . SVG Version: 6.00 Build 0)  -->
<!DOCTYPE svg PUBLIC "-//W3C//DTD SVG 1.1//EN" "http://www.w3.org/Graphics/SVG/1.1/DTD/svg11.dtd">
<svg version="1.1" xmlns="http://www.w3.org/2000/svg" xmlns:xlink="http://www.w3.org/1999/xlink" x="0px" y="0px"
	 viewBox="0 0 1792 1792" enable-background="new 0 0 1792 1792" xml:space="preserve">
<g id="Guide">
</g>
<g id="オブジェクト">
	<g>
		<path d="M1088,448H704c-106.039,0-192,85.961-192,192v384c0,35.347,28.654,64,64,64s64-28.653,64-64V640h64v576v64v448
			c0,35.347,28.654,64,64,64s64-28.653,64-64v-448h128v448c0,35.347,28.654,64,64,64s64-28.653,64-64v-448v-64V640h64v384
			c0,35.347,28.654,64,64,64s64-28.653,64-64V640C1280,533.961,1194.039,448,1088,448z"/>
		<circle cx="893" cy="192" r="192"/>
	</g>
</g>
<g id="レイヤー_3">
</g>
<g id="Unicode" display="none">
	<text transform="matrix(1 0 0 1 437.0627 964.2812)" display="inline" fill="#ED1E79" font-family="'ArialMT'" font-size="256">U+F731</text>
</g>
</svg>
