<?xml version="1.0" encoding="utf-8"?>
<!-- Generator: Adobe Illustrator 17.0.0, SVG Export Plug-In . SVG Version: 6.00 Build 0)  -->
<!DOCTYPE svg PUBLIC "-//W3C//DTD SVG 1.1//EN" "http://www.w3.org/Graphics/SVG/1.1/DTD/svg11.dtd">
<svg version="1.1" xmlns="http://www.w3.org/2000/svg" xmlns:xlink="http://www.w3.org/1999/xlink" x="0px" y="0px" width="1792px"
	 height="1792px" viewBox="0 0 1792 1792" enable-background="new 0 0 1792 1792" xml:space="preserve">
<g id="Guide">
</g>
<g id="オブジェクト">
	<g>
		<path d="M1664,384v704l-384-192l-6.083,3.042C1225.131,1294.134,888.29,1600,480,1600c-180.1,0-346.294-59.519-480-159.951V1536
			c0,70.692,57.308,128,128,128h1536c70.692,0,128-57.308,128-128V512C1792,441.308,1734.692,384,1664,384z"/>
		<path d="M479.895,1472c312.003,0,574.453-212.655,650.129-501.012L896,1088V384H128C57.308,384,0,441.308,0,512v758.345
			C121.942,1394.793,291.89,1472,479.895,1472z M332.085,925.008c8.513,50.608,67.188,74.503,121.167,75.92
			c50.601,1.491,131.237-21.715,171.769-83.163c77.273-117.596,35.16-219.875-8.734-269.148
			c-61.817-69.221-147.369-110.418-291.821-43.221c-34.277,16.016-68.993,13.419-95.86-8.528
			c-15.235-12.539-25.762-41.886-19.26-66.379c5.595-21.183,17.017-41.354,53.071-61.161
			c182.763-100.788,358.346-32.462,451.078,69.001c102.115,111.638,149.81,313.655,9.838,487.936
			c-85.774,107.055-198.428,128.122-288.458,122.503c-118.247-7.27-244.126-113.197-249.278-223.759
			c-3.803-87.366,40.09-209.648,206.499-225.406c41.896-3.945,89.149,8.514,97.649,53.516c8.297,44.805-33.586,69.662-56.442,71.337
			C354.031,830.619,323.35,872.167,332.085,925.008z"/>
		<polygon points="1536,870.998 1536,0 1024,0 1024,870.998 1280,742.998 		"/>
	</g>
</g>
<g id="レイヤー_3">
</g>
<g id="Unicode" display="none">
	<text transform="matrix(1 0 0 1 422.876 964.2812)" display="inline" fill="#ED1E79" font-family="'ArialMT'" font-size="256">U+F70E</text>
</g>
</svg>
