<?xml version="1.0" encoding="utf-8"?>
<!-- Generator: Adobe Illustrator 17.1.0, SVG Export Plug-In . SVG Version: 6.00 Build 0)  -->
<!DOCTYPE svg PUBLIC "-//W3C//DTD SVG 1.1//EN" "http://www.w3.org/Graphics/SVG/1.1/DTD/svg11.dtd">
<svg version="1.1" xmlns="http://www.w3.org/2000/svg" xmlns:xlink="http://www.w3.org/1999/xlink" x="0px" y="0px"
	 viewBox="0 0 1792 1792" enable-background="new 0 0 1792 1792" xml:space="preserve">
<g id="Guide">
</g>
<g id="オブジェクト">
	<g>
		<path d="M1696.355,1408C1758.533,1205.652,1792,990.734,1792,768l-128-9.143V512l-128-7.111V256h-256v234.667L512,448v228.571
			L5.294,640.378C28.882,925.443,130.324,1188.415,288.293,1408H1696.355z M832,672c0,53.019-42.981,96-96,96s-96-42.981-96-96
			s42.981-96,96-96S832,618.981,832,672z M1088,672c0,53.019-42.98,96-96,96c-53.019,0-96-42.981-96-96s42.981-96,96-96
			C1045.02,576,1088,618.981,1088,672z M1344,672c0,53.019-42.98,96-96,96s-96-42.981-96-96s42.98-96,96-96S1344,618.981,1344,672z"
			/>
		<rect y="1465" width="1792" height="71"/>
	</g>
</g>
<g id="レイヤー_3">
</g>
<g id="Unicode" display="none">
	<text transform="matrix(1 0 0 1 415.8135 964.2812)" display="inline" fill="#ED1E79" font-family="'ArialMT'" font-size="256">U+F72D</text>
</g>
</svg>
