<?xml version="1.0" encoding="utf-8"?>
<!-- Generator: Adobe Illustrator 17.0.0, SVG Export Plug-In . SVG Version: 6.00 Build 0)  -->
<!DOCTYPE svg PUBLIC "-//W3C//DTD SVG 1.1//EN" "http://www.w3.org/Graphics/SVG/1.1/DTD/svg11.dtd">
<svg version="1.1" xmlns="http://www.w3.org/2000/svg" xmlns:xlink="http://www.w3.org/1999/xlink" x="0px" y="0px" width="1792px"
	 height="1792px" viewBox="0 0 1792 1792" enable-background="new 0 0 1792 1792" xml:space="preserve">
<g id="Guide">
</g>
<g id="オブジェクト">
	<g>
		<polygon points="1152,0 0,0 0,1408 256,1408 256,128 1152,128 		"/>
		<polygon points="1472,192 320,192 320,1600 576,1600 576,320 1472,320 		"/>
		<path d="M640,384v1408h704.839L1792,1344.839V384H640z M768,1024c0-247.423,200.576-448,448-448c247.423,0,448,200.577,448,448
			c0,44.48-6.493,87.442-18.567,128h-136.076c17.13-39.198,26.644-82.486,26.644-128c0-176.731-143.27-320-320-320
			s-320,143.269-320,320c0,154.813,109.938,283.943,256,313.593v129.864C934.894,1436.401,768,1249.693,768,1024z M1408,960v128
			h-128h-128V960V768h128v192H1408z M1280,1728v-448h448L1280,1728z"/>
	</g>
</g>
<g id="レイヤー_3">
</g>
<g id="Unicode" display="none">
	<text transform="matrix(1 0 0 1 422.8755 964.2812)" display="inline" fill="#ED1E79" font-family="'ArialMT'" font-size="256">U+F71A</text>
</g>
</svg>
