<?xml version="1.0" encoding="utf-8"?>
<!-- Generator: Adobe Illustrator 17.1.0, SVG Export Plug-In . SVG Version: 6.00 Build 0)  -->
<!DOCTYPE svg PUBLIC "-//W3C//DTD SVG 1.1//EN" "http://www.w3.org/Graphics/SVG/1.1/DTD/svg11.dtd">
<svg version="1.1" xmlns="http://www.w3.org/2000/svg" xmlns:xlink="http://www.w3.org/1999/xlink" x="0px" y="0px"
	 viewBox="0 0 1792 1792" enable-background="new 0 0 1792 1792" xml:space="preserve">
<g id="Guide">
</g>
<g id="オブジェクト">
	<g>
		<path d="M1408,1081.284V1664H384v-583.23c-48.117,24.743-102.677,38.724-160.507,38.724c-33.099,0-65.128-4.579-95.493-13.131
			V1792h1536v-685.923c-30.665,8.737-63.039,13.416-96.507,13.416C1510.068,1119.493,1455.87,1105.704,1408,1081.284z"/>
		<path d="M1792,768L1664,0.001H128L0,768h0c0,123.433,100.061,223.493,223.493,223.493c123.432,0,223.493-100.061,223.493-223.493
			H448c0,123.433,100.061,223.493,223.493,223.493c123.432,0,223.493-100.061,223.493-223.493h2.028
			c0,123.433,100.062,223.493,223.493,223.493C1243.938,991.493,1344,891.433,1344,768h1.014
			c0,123.433,100.061,223.493,223.492,223.493C1691.939,991.493,1792,891.433,1792,768L1792,768z M1536,640H256V256h1280V640z"/>
	</g>
</g>
<g id="レイヤー_3">
</g>
<g id="Unicode" display="none">
	<text transform="matrix(1 0 0 1 437.0627 964.2812)" display="inline" fill="#ED1E79" font-family="'ArialMT'" font-size="256">U+F721</text>
</g>
</svg>
