<?xml version="1.0" encoding="utf-8"?>
<!-- Generator: Adobe Illustrator 17.1.0, SVG Export Plug-In . SVG Version: 6.00 Build 0)  -->
<!DOCTYPE svg PUBLIC "-//W3C//DTD SVG 1.1//EN" "http://www.w3.org/Graphics/SVG/1.1/DTD/svg11.dtd">
<svg version="1.1" xmlns="http://www.w3.org/2000/svg" xmlns:xlink="http://www.w3.org/1999/xlink" x="0px" y="0px"
	 viewBox="0 0 1792 1792" enable-background="new 0 0 1792 1792" xml:space="preserve">
<g id="Guide">
</g>
<g id="オブジェクト">
	<g>
		<path d="M1152,512H768L387.039,866.661c-1.033,0.909-2.052,1.843-3.039,2.829c-7.672,7.672-12.978,16.81-15.94,26.51H320
			c-35.346,0-64,28.653-64,64s28.654,64,64,64h128v704c0,35.347,28.654,64,64,64s64-28.653,64-64V960
			c0-25.609-15.047-47.695-36.778-57.926L768,697.288v407.84c-38.258,22.133-64,63.495-64,110.872v512c0,35.347,28.654,64,64,64
			s64-28.653,64-64v-384h256v384c0,35.347,28.654,64,64,64s64-28.653,64-64v-512c0-47.377-25.742-88.739-64-110.872V704h64v320
			c0,35.347,28.654,64,64,64s64-28.653,64-64V704C1344,597.961,1258.039,512,1152,512z"/>
		<circle cx="957" cy="256" r="192"/>
	</g>
</g>
<g id="レイヤー_3">
</g>
<g id="Unicode" display="none">
	<text transform="matrix(1 0 0 1 437.0635 964.2812)" display="inline" fill="#ED1E79" font-family="'ArialMT'" font-size="256">U+F733</text>
</g>
</svg>
