<?xml version="1.0" encoding="utf-8"?>
<!-- Generator: Adobe Illustrator 17.0.2, SVG Export Plug-In . SVG Version: 6.00 Build 0)  -->
<!DOCTYPE svg PUBLIC "-//W3C//DTD SVG 1.1//EN" "http://www.w3.org/Graphics/SVG/1.1/DTD/svg11.dtd">
<svg version="1.1" xmlns="http://www.w3.org/2000/svg" xmlns:xlink="http://www.w3.org/1999/xlink" x="0px" y="0px" width="1792px"
	 height="1792px" viewBox="0 0 1792 1792" enable-background="new 0 0 1792 1792" xml:space="preserve">
<g id="Guide">
</g>
<g id="オブジェクト">
	<g>
		<g>
			<path d="M692.649,1672.507c-17.187-43.344-25.901-89.272-25.901-136.507s8.715-93.163,25.901-136.507
				c16.737-42.208,40.772-80.195,71.438-112.906c31.096-33.168,67.471-59.284,108.116-77.622
				c42.601-19.22,87.867-28.965,134.543-28.965c37.218,0,77.334,7.798,116.013,22.55c34.178,13.036,65.701,30.716,91.163,51.128
				c21.932,17.582,44.785,38.054,65.451,57.474c20.666-19.42,43.521-39.893,65.451-57.474
				c25.462-20.412,56.985-38.092,91.164-51.128c26.449-10.088,53.569-16.919,79.977-20.233
				c-13.424-13.155-30.111-24.025-41.892-29.157c-19.605-8.542-367.377-114.881-460.333-169.731
				c-6.816-17.567-38.179-65.567-43.719-90.867c1.801-18.808-0.89-82.695,10.287-105.439
				c60.819-72.395,134.556-179.32,144.387-387.379C1132.41,236.466,1020.559,0,769.432,0c-0.48,0-0.954,0.022-1.432,0.033
				C767.523,0.022,767.05,0,766.569,0C515.442,0,403.591,236.466,411.305,399.743c9.831,208.059,83.567,314.985,144.387,387.379
				c11.178,22.744,8.488,86.631,10.288,105.439c-5.541,25.3-36.903,73.3-43.72,90.867
				c-92.955,54.851-440.727,161.189-460.331,169.731c-19.604,8.542-52.823,32.969-61.926,57.396V1792H768c0,0,0-0.001,0-0.002
				c0.003,0.001,0.003,0.002,0.003,0.002h2.431c-2.138-2.166-4.256-4.357-6.346-6.586
				C733.422,1752.702,709.387,1714.715,692.649,1672.507z"/>
		</g>
		<g>
			<path d="M1552.001,1280c-54.314,0-111.809,25.392-144.627,51.701c-59,47.299-128,120.298-128,120.298s-69-72.999-128-120.298
				c-32.818-26.31-90.312-51.701-144.627-51.701c-132.548,0-239.999,114.615-239.999,256s107.451,256,239.999,256
				c54.314,0,111.809-25.392,144.627-51.701c59-47.299,128-120.298,128-120.298s69,72.999,128,120.298
				c32.818,26.31,90.312,51.701,144.627,51.701c132.548,0,239.999-114.615,239.999-256S1684.549,1280,1552.001,1280z
				 M1070.06,1638.869c-4.96,3.977-15.602,10.47-29.267,15.682c-12.412,4.734-24.82,7.449-34.046,7.449
				c-27.787,0-54.375-12.037-74.865-33.893c-22.656-24.167-35.134-56.878-35.134-92.107s12.478-67.94,35.134-92.107
				c20.49-21.856,47.078-33.893,74.865-33.893c9.226,0,21.634,2.715,34.046,7.449c13.665,5.212,24.307,11.706,29.268,15.682
				c42.66,34.2,93.707,86.24,109.758,102.869C1163.736,1552.661,1112.708,1604.679,1070.06,1638.869z M1626.866,1628.107
				c-20.49,21.856-47.078,33.893-74.865,33.893c-9.226,0-21.634-2.715-34.046-7.449c-13.665-5.212-24.307-11.706-29.268-15.682
				c-42.66-34.2-93.707-86.24-109.758-102.869c16.082-16.661,67.11-68.679,109.759-102.869c4.96-3.977,15.602-10.47,29.267-15.682
				c12.412-4.734,24.82-7.449,34.046-7.449c27.787,0,54.375,12.037,74.865,33.893C1649.522,1468.06,1662,1500.771,1662,1536
				S1649.522,1603.94,1626.866,1628.107z"/>
		</g>
	</g>
</g>
<g id="レイヤー_3">
</g>
<g id="Unicode" display="none">
	<text transform="matrix(1 0 0 1 415.8135 964.2812)" display="inline" fill="#ED1E79" font-family="'ArialMT'" font-size="256">U+F71D</text>
</g>
</svg>
