<?xml version="1.0" encoding="utf-8"?>
<!-- Generator: Adobe Illustrator 17.1.0, SVG Export Plug-In . SVG Version: 6.00 Build 0)  -->
<!DOCTYPE svg PUBLIC "-//W3C//DTD SVG 1.1//EN" "http://www.w3.org/Graphics/SVG/1.1/DTD/svg11.dtd">
<svg version="1.1" xmlns="http://www.w3.org/2000/svg" xmlns:xlink="http://www.w3.org/1999/xlink" x="0px" y="0px"
	 viewBox="0 0 1792 1792" enable-background="new 0 0 1792 1792" xml:space="preserve">
<g id="Guide">
</g>
<g id="オブジェクト">
	<path d="M0,1458.843c26.152,3.411,55.716,4.548,88.69,4.548c170.558,0,322.924-52.305,455.959-156.914
		c-159.188-3.411-296.772-108.02-343.391-254.701c25.015,3.411,47.756,5.685,69.36,5.685c32.975,0,64.812-4.548,96.65-12.508
		C197.848,1009.706,72.772,861.888,72.772,684.508v-4.548c51.168,28.426,106.883,44.345,166.01,46.619
		C138.721,659.492,75.046,546.924,75.046,420.711c0-67.086,17.056-128.487,50.03-185.34
		c183.066,226.274,457.096,369.543,757.279,384.325c-5.685-28.426-9.096-56.853-9.096-84.142
		c0-203.533,163.736-367.269,367.269-367.269c105.746,0,195.573,38.66,268.345,115.98c83.005-15.919,160.325-45.482,233.096-88.69
		c-28.426,87.553-81.868,154.64-161.462,202.396c70.498-7.959,140.995-26.152,211.492-56.853
		c-51.167,73.909-112.568,137.584-184.203,189.888c1.137,10.233,1.137,26.152,1.137,47.756
		c0,196.711-56.853,396.832-173.969,577.624c-118.254,180.792-275.167,322.924-503.716,404.792
		c-114.843,42.071-236.508,62.538-367.269,62.538C358.173,1623.716,170.558,1569.137,0,1458.843z"/>
</g>
<g id="レイヤー_3">
</g>
<g id="Unicode" display="none">
	<text transform="matrix(1 0 0 1 437.0635 964.2812)" display="inline" fill="#ED1E79" font-family="'ArialMT'" font-size="256">U+F734</text>
</g>
</svg>
