<?xml version="1.0" encoding="utf-8"?>
<!-- Generator: Adobe Illustrator 17.1.0, SVG Export Plug-In . SVG Version: 6.00 Build 0)  -->
<!DOCTYPE svg PUBLIC "-//W3C//DTD SVG 1.1//EN" "http://www.w3.org/Graphics/SVG/1.1/DTD/svg11.dtd">
<svg version="1.1" xmlns="http://www.w3.org/2000/svg" xmlns:xlink="http://www.w3.org/1999/xlink" x="0px" y="0px"
	 viewBox="0 0 1792 1792" enable-background="new 0 0 1792 1792" xml:space="preserve">
<g id="Guide">
</g>
<g id="オブジェクト">
	<path d="M1792,1215.153V960l-722.489-361.244l17.701-389.408c0.512-5.716,0.788-11.499,0.788-17.348c0-106.039-85.961-192-192-192
		S704,85.961,704,192c0,5.849,0.276,11.632,0.788,17.348l17.709,389.589L0,963.129v240.023l745.606-95.824l17.688,389.143L512,1664
		v128l296.307-98.769C831.215,1714.787,862.062,1728,896,1728s64.785-13.213,87.693-34.769L1280,1792v-128l-251.294-167.529
		l17.597-387.141L1792,1215.153z"/>
</g>
<g id="レイヤー_3">
</g>
<g id="Unicode" display="none">
	<text transform="matrix(1 0 0 1 415.8135 964.2812)" display="inline" fill="#ED1E79" font-family="'ArialMT'" font-size="256">U+F72C</text>
</g>
</svg>
