<?xml version="1.0" encoding="utf-8"?>
<!-- Generator: Adobe Illustrator 17.1.0, SVG Export Plug-In . SVG Version: 6.00 Build 0)  -->
<!DOCTYPE svg PUBLIC "-//W3C//DTD SVG 1.1//EN" "http://www.w3.org/Graphics/SVG/1.1/DTD/svg11.dtd">
<svg version="1.1" xmlns="http://www.w3.org/2000/svg" xmlns:xlink="http://www.w3.org/1999/xlink" x="0px" y="0px"
	 viewBox="0 0 1792 1792" enable-background="new 0 0 1792 1792" xml:space="preserve">
<g id="Guide">
</g>
<g id="オブジェクト">
	<path d="M1120,784v74.667h149.333v186.667H1344V858.667h149.333V784H1344V634.667h-74.667V784H1120z M539,512.167
		c0-94.5,51.333-171.5,144.667-171.5C766.5,340.667,833,423.5,861,511c12.833,43.167,19.833,85.167,19.833,124.833
		C880.833,729.167,827.167,798,735,798c-82.833,0-148.167-78.167-175-162.167C546,593.833,539,553,539,512.167z M460.833,1248.333
		c0-71.167,43.167-126,106.167-154C630,1067.5,694.167,1057,760.667,1057c31.5,0,30.333-2.333,63,21
		C840,1090.833,850.5,1097.833,854,1100.167c8.167,5.833,45.5,35,56,46.667c9.333,11.667,35,39.667,42,57.167
		s15.167,43.167,15.167,67.667c0,117.833-105,173.833-231,173.833c-64.167,0-126-15.167-182-44.333
		C498.167,1372,460.833,1317.167,460.833,1248.333z M322,1282.167c0,66.5,31.5,122.5,78.167,156.333s110.833,58.333,171.5,67.667
		c29.167,4.667,59.5,7,88.667,7c93.333,0,190.167-24.5,273-72.333c82.833-46.667,138.833-130.667,138.833-232.167
		c0-75.833-35-141.167-80.5-182c-22.167-19.833-45.5-38.5-67.667-56C878.5,938,843.5,901.833,843.5,868s28-66.5,61.833-95.667
		c33.833-29.167,71.167-61.833,95.667-119c11.667-28,17.5-59.5,17.5-95.667c0-93.333-32.667-142.333-110.833-221.667h96.833
		l102.667-74.667H798c-131.833,0-256.667,49-336,151.667c-40.833,51.333-60.667,110.833-60.667,178.5
		c0,144.667,114.333,252,260.167,252c17.5,0,33.833-1.167,50.167-3.5c-10.5,22.167-15.167,43.167-15.167,63
		c0,33.833,15.167,71.167,46.667,109.667c-136.5,9.333-235.667,33.833-299.833,73.5C369.833,1131.667,322,1202.833,322,1282.167z
		 M0,1456V336C0,150.5,150.5,0,336,0h1120c185.5,0,336,150.5,336,336v1120c0,185.5-150.5,336-336,336H336
		C150.5,1792,0,1641.5,0,1456z"/>
</g>
<g id="レイヤー_3">
</g>
<g id="Unicode" display="none">
	<text transform="matrix(1 0 0 1 437.0627 964.2812)" display="inline" fill="#ED1E79" font-family="'ArialMT'" font-size="256">U+F739</text>
</g>
</svg>
