<?xml version="1.0" encoding="utf-8"?>
<!-- Generator: Adobe Illustrator 17.1.0, SVG Export Plug-In . SVG Version: 6.00 Build 0)  -->
<!DOCTYPE svg PUBLIC "-//W3C//DTD SVG 1.1//EN" "http://www.w3.org/Graphics/SVG/1.1/DTD/svg11.dtd">
<svg version="1.1" xmlns="http://www.w3.org/2000/svg" xmlns:xlink="http://www.w3.org/1999/xlink" x="0px" y="0px"
	 viewBox="0 0 1792 1792" enable-background="new 0 0 1792 1792" xml:space="preserve">
<g id="Guide">
</g>
<g id="オブジェクト">
	<circle cx="64" cy="1152" r="64"/>
	<g>
		<path d="M873.136,1102.988L576,832H320L18.746,1106.745l90.51,90.51l188.22-162.537L256,1408v320c0,35.347,28.654,64,64,64
			s64-28.653,64-64v-320h128v320c0,35.347,28.654,64,64,64s64-28.653,64-64v-320l-41.476-373.282l188.22,162.537
			c24.994,24.994,65.517,24.993,90.51,0C889.752,1184.758,896,1168.379,896,1152s-6.248-32.758-18.746-45.255
			C875.927,1105.417,874.546,1104.176,873.136,1102.988z"/>
		<circle cx="448" cy="576" r="192"/>
		<path d="M1773.254,1106.745c-1.328-1.328-2.708-2.569-4.119-3.757L1472,832h-256l-297.136,270.988
			c-1.411,1.188-2.791,2.429-4.119,3.757C902.248,1119.242,896,1135.621,896,1152s6.248,32.758,18.746,45.255
			c24.993,24.993,65.516,24.994,90.51,0l188.22-162.537L1152,1408v320c0,35.347,28.654,64,64,64s64-28.653,64-64v-320h128v320
			c0,35.347,28.654,64,64,64s64-28.653,64-64v-320l-41.476-373.282l188.22,162.537c24.994,24.994,65.517,24.993,90.51,0
			C1798.249,1172.261,1798.249,1131.739,1773.254,1106.745z"/>
		<circle cx="1344" cy="576" r="192"/>
	</g>
</g>
<g id="レイヤー_3">
</g>
<g id="Unicode" display="none">
	<text transform="matrix(1 0 0 1 437.063 964.2812)" display="inline" fill="#ED1E79" font-family="'ArialMT'" font-size="256">U+F732</text>
</g>
</svg>
