<?xml version="1.0" encoding="utf-8"?>
<!-- Generator: Adobe Illustrator 17.1.0, SVG Export Plug-In . SVG Version: 6.00 Build 0)  -->
<!DOCTYPE svg PUBLIC "-//W3C//DTD SVG 1.1//EN" "http://www.w3.org/Graphics/SVG/1.1/DTD/svg11.dtd">
<svg version="1.1" xmlns="http://www.w3.org/2000/svg" xmlns:xlink="http://www.w3.org/1999/xlink" x="0px" y="0px"
	 viewBox="0 0 1792 1792" enable-background="new 0 0 1792 1792" xml:space="preserve">
<g id="Guide">
</g>
<g id="オブジェクト">
	<g>
		<path d="M832,0c-35.07,0-63.5,28.653-63.5,64H768v512c0,35.347-28.654,64-64,64c-35.347,0-64-28.653-64-64V64h-0.5
			c0-35.347-28.43-64-63.5-64s-63.5,28.653-63.5,64H512v512c0,35.347-28.654,64-64,64c-35.347,0-64-28.653-64-64V64
			c0-35.347-28.43-64-63.5-64S257,28.653,257,64h-1v640c0,78.729,78.988,146.379,192,176.009V1664c0,70.693,57.308,128,128,128
			s128-57.307,128-128V880.009C817.012,850.379,896,782.729,896,704V64h-0.5C895.5,28.653,867.07,0,832,0z"/>
		<path d="M1504,0c-229.75,0-416,401.152-416,896c0,43.46,1.442,86.193,4.219,128H1280v640c0,70.693,57.308,128,128,128
			s128-57.307,128-128V2.611C1525.438,0.881,1514.767,0,1504,0z"/>
	</g>
</g>
<g id="レイヤー_3">
</g>
<g id="Unicode" display="none">
	<text transform="matrix(1 0 0 1 437.063 964.2812)" display="inline" fill="#ED1E79" font-family="'ArialMT'" font-size="256">U+F722</text>
</g>
</svg>
